%FSTAX23Y23*%
%MOIN*%
%SFA1B1*%

%IPPOS*%
%ADD17R,0.046854X0.068031*%
%ADD18R,0.039370X0.055098*%
%ADD19R,0.086614X0.122051*%
%ADD20R,0.060000X0.059842*%
%ADD21R,0.169291X0.062992*%
%ADD22R,0.029527X0.039370*%
%ADD23R,0.066929X0.078740*%
%ADD24R,0.045275X0.037401*%
%ADD25R,0.010000X0.027598*%
%ADD26R,0.098425X0.066901*%
%ADD47R,0.068031X0.058464*%
%ADD48R,0.058464X0.068031*%
%ADD49R,0.044587X0.054212*%
%ADD50R,0.054212X0.044587*%
%ADD51R,0.053150X0.055512*%
%ADD52C,0.078740*%
%LNpcb-1*%
%LPD*%
G54D17*
X01553Y00356D03*
X01439D03*
G54D18*
X01083Y01005D03*
X01D03*
X01003Y00849D03*
X01086D03*
G54D19*
X01534Y01036D03*
X00437Y00568D03*
G54D20*
X01534Y01162D03*
X00437Y00443D03*
G54D21*
X01269Y00626D03*
X01534D03*
G54D22*
X00936Y0035D03*
Y00442D03*
X00349Y00683D03*
Y00776D03*
G54D23*
X00686Y00429D03*
Y00666D03*
G54D24*
X00264Y00801D03*
Y00668D03*
G54D25*
X0053Y00995D03*
X0051D03*
X0049D03*
X00471D03*
X00451D03*
X00431D03*
Y00881D03*
X00451D03*
X00471D03*
X0049D03*
X0051D03*
X0053D03*
G54D26*
X00481Y00938D03*
G54D47*
X01394Y01016D03*
Y01141D03*
G54D48*
X01329Y00356D03*
X01204D03*
G54D49*
X01365Y0091D03*
X01287D03*
X00861Y01005D03*
X00782D03*
X00785Y00849D03*
X00864D03*
X01016Y00236D03*
X00937D03*
X00338Y009D03*
X00259D03*
G54D50*
X01265Y01122D03*
Y01043D03*
X01041Y00435D03*
Y00357D03*
Y00625D03*
Y00547D03*
X00931D03*
Y00625D03*
G54D51*
X00437Y00772D03*
Y00693D03*
G54D52*
X01918Y00633D03*
Y00435D03*
Y0084D03*
Y01037D03*
M02*