%FSTAX23Y23*%
%MOIN*%
%SFA1B1*%

%IPPOS*%
%ADD13C,0.010000*%
%ADD52C,0.078740*%
%ADD53C,0.023622*%
%ADD54C,0.137795*%
%LNpcb-1*%
%LPD*%
G36*
X02121Y00008D02*
X00008D01*
Y01414*
X02121*
Y00008*
G37*
%LNpcb-2*%
%LPC*%
G36*
X02017Y01373D02*
X02003D01*
X01988Y0137*
X01975Y01364*
X01963Y01356*
X01952Y01346*
X01944Y01334*
X01939Y0132*
X01936Y01306*
Y01291*
X01939Y01277*
X01944Y01264*
X01952Y01252*
X01963Y01241*
X01975Y01233*
X01988Y01228*
X02003Y01225*
X02017*
X02031Y01228*
X02045Y01233*
X02057Y01241*
X02067Y01252*
X02075Y01264*
X02081Y01277*
X02084Y01291*
Y01306*
X02081Y0132*
X02075Y01334*
X02067Y01346*
X02057Y01356*
X02045Y01364*
X02031Y0137*
X02017Y01373*
G37*
G36*
X00125D02*
X0011D01*
X00096Y0137*
X00083Y01364*
X00071Y01356*
X0006Y01346*
X00052Y01334*
X00047Y0132*
X00044Y01306*
Y01291*
X00047Y01277*
X00052Y01264*
X0006Y01252*
X00071Y01241*
X00083Y01233*
X00096Y01228*
X0011Y01225*
X00125*
X00139Y01228*
X00153Y01233*
X00165Y01241*
X00175Y01252*
X00183Y01264*
X00189Y01277*
X00192Y01291*
Y01306*
X00189Y0132*
X00183Y01334*
X00175Y01346*
X00165Y01356*
X00153Y01364*
X00139Y0137*
X00125Y01373*
G37*
G36*
X01923Y01081D02*
X0192D01*
Y0104*
X01962*
Y01043*
X01959Y01054*
X01953Y01064*
X01945Y01073*
X01935Y01078*
X01923Y01081*
G37*
G36*
X01915D02*
X01912D01*
X019Y01078*
X0189Y01073*
X01882Y01064*
X01876Y01054*
X01873Y01043*
Y0104*
X01915*
Y01081*
G37*
G36*
X00594Y01134D02*
X00587D01*
X00581Y01132*
X00576Y01127*
X00574Y01121*
Y01114*
X00576Y01108*
X0058Y01105*
Y01056*
X00576Y01052*
X00573Y01046*
Y01039*
X00576Y01033*
X0058Y01028*
X00586Y01026*
X00593*
X00599Y01028*
X00604Y01033*
X00607Y01039*
Y01046*
X00604Y01052*
X006Y01056*
Y01103*
X006Y01103*
X00605Y01108*
X00607Y01114*
Y01121*
X00605Y01127*
X006Y01132*
X00594Y01134*
G37*
G36*
X01962Y01035D02*
X0192D01*
Y00993*
X01923*
X01935Y00996*
X01945Y01002*
X01953Y0101*
X01959Y0102*
X01962Y01031*
Y01035*
G37*
G36*
X01915D02*
X01873D01*
Y01031*
X01876Y0102*
X01882Y0101*
X0189Y01002*
X019Y00996*
X01912Y00993*
X01915*
Y01035*
G37*
G36*
X01271Y00994D02*
X01264D01*
X01258Y00992*
X01253Y00987*
X01251Y00981*
Y00974*
X01253Y00968*
X01257Y00964*
Y00943*
X01051*
X01047Y00947*
X01041Y00949*
X01034*
X01028Y00947*
X01023Y00942*
X01021Y00936*
Y00929*
X01023Y00923*
X01028Y00918*
X01034Y00916*
X01041*
X01047Y00918*
X01051Y00922*
X01259*
Y00922*
X01266Y00924*
X01272Y00928*
X01276Y00934*
X01278Y00942*
X01278*
Y00964*
X01282Y00968*
X01284Y00974*
Y00981*
X01282Y00987*
X01277Y00992*
X01271Y00994*
G37*
G36*
X0055Y00842D02*
X00543D01*
X00537Y0084*
X00533Y00836*
X00472*
X00468Y0084*
X00462Y00842*
X00455*
X00449Y0084*
X00444Y00835*
X00442Y00829*
Y00822*
X00444Y00816*
X00449Y00811*
X00447Y00807*
X00441Y00809*
X00434*
X00428Y00807*
X00423Y00802*
X00421Y00796*
Y00789*
X00423Y00783*
X00428Y00778*
X00434Y00776*
X00441*
X00447Y00778*
X00451Y00782*
X00527*
X00531Y00778*
X00537Y00776*
X00544*
X0055Y00778*
X00555Y00783*
X00557Y00789*
Y00796*
X00555Y00802*
X00552Y00804*
X00554Y0081*
X00556Y00811*
X00561Y00816*
X00563Y00822*
Y00829*
X00561Y00835*
X00556Y0084*
X0055Y00842*
G37*
G36*
X00456Y01211D02*
X00449D01*
X00443Y01209*
X00438Y01204*
X00436Y01198*
Y01191*
X00438Y01185*
X00443Y0118*
X00449Y01178*
X00456*
X00462Y0118*
X00466Y01184*
X0065*
X0065Y01184*
X00654Y01183*
X00655Y01179*
X00655Y01179*
Y00861*
X00655*
X00657Y00852*
X00662Y00845*
X00669Y0084*
X00678Y00838*
Y00838*
X00702*
X00706Y00834*
X00712Y00832*
X00719*
X00725Y00834*
X0073Y00839*
X00732Y00845*
Y00852*
X0073Y00858*
X00725Y00863*
X00719Y00865*
X00712*
X00706Y00863*
X00702Y00859*
X00678*
Y00859*
X00676Y00859*
X00676Y00861*
X00676*
Y01179*
X00676*
X00675Y01185*
X00672Y01192*
X00668Y01197*
X00663Y01201*
X00656Y01204*
X0065Y01205*
Y01205*
X00466*
X00462Y01209*
X00456Y01211*
G37*
G36*
X01923Y00884D02*
X01912D01*
X019Y00881*
X0189Y00875*
X01882Y00867*
X01876Y00857*
X01873Y00846*
Y00834*
X01876Y00823*
X01882Y00813*
X0189Y00804*
X019Y00799*
X01912Y00796*
X01923*
X01935Y00799*
X01945Y00804*
X01953Y00813*
X01959Y00823*
X01962Y00834*
Y00846*
X01959Y00857*
X01953Y00867*
X01945Y00875*
X01935Y00881*
X01923Y00884*
G37*
G36*
Y00677D02*
X0192D01*
Y00635*
X01962*
Y00638*
X01959Y0065*
X01953Y0066*
X01945Y00668*
X01935Y00674*
X01923Y00677*
G37*
G36*
X01915D02*
X01912D01*
X019Y00674*
X0189Y00668*
X01882Y0066*
X01876Y0065*
X01873Y00638*
Y00635*
X01915*
Y00677*
G37*
G36*
X01962Y0063D02*
X0192D01*
Y00588*
X01923*
X01935Y00591*
X01945Y00597*
X01953Y00605*
X01959Y00615*
X01962Y00627*
Y0063*
G37*
G36*
X01915D02*
X01873D01*
Y00627*
X01876Y00615*
X01882Y00605*
X0189Y00597*
X019Y00591*
X01912Y00588*
X01915*
Y0063*
G37*
G36*
X01923Y0048D02*
X01912D01*
X019Y00477*
X0189Y00471*
X01882Y00463*
X01876Y00452*
X01873Y00441*
Y00429*
X01876Y00418*
X01882Y00408*
X0189Y004*
X019Y00394*
X01912Y00391*
X01923*
X01935Y00394*
X01945Y004*
X01953Y00408*
X01959Y00418*
X01962Y00429*
Y00441*
X01959Y00452*
X01953Y00463*
X01945Y00471*
X01935Y00477*
X01923Y0048*
G37*
G36*
X00589Y00899D02*
X00582D01*
X00576Y00897*
X00571Y00892*
X00569Y00886*
Y00879*
X00571Y00873*
X00575Y00869*
Y00371*
X00571Y00367*
X00569Y00361*
Y00354*
X00571Y00348*
X00576Y00343*
X00582Y00341*
X00589*
X00595Y00343*
X006Y00348*
X00602Y00354*
Y00361*
X006Y00367*
X00596Y00371*
Y00869*
X006Y00873*
X00602Y00879*
Y00886*
X006Y00892*
X00595Y00897*
X00589Y00899*
G37*
G36*
X00732Y01021D02*
X00725D01*
X00719Y01019*
X00714Y01014*
X00712Y01008*
Y01001*
X00714Y00995*
X00719Y0099*
X00725Y00988*
X00732*
X00738Y0099*
X00742Y00994*
X00785*
Y00994*
X00787Y00993*
X00788Y00991*
X00788*
Y00206*
X00788*
X0079Y00193*
X00795Y00181*
X00803Y0017*
X00813Y00162*
X00825Y00157*
X00838Y00156*
Y00156*
X01003*
X01007Y00152*
X01013Y00149*
X0102*
X01026Y00152*
X01031Y00156*
X01033Y00163*
Y00169*
X01031Y00175*
X01026Y0018*
X0102Y00183*
X01013*
X01007Y0018*
X01003Y00176*
X00838*
Y00176*
X0083Y00177*
X00823Y0018*
X00817Y00185*
X00813Y00191*
X0081Y00198*
X00809Y00206*
X00809*
Y00991*
X00809*
X00807Y01*
X00802Y01008*
X00794Y01013*
X00785Y01015*
Y01015*
X00742*
X00738Y01019*
X00732Y01021*
G37*
G36*
X02017Y00192D02*
X02003D01*
X01988Y00189*
X01975Y00183*
X01963Y00175*
X01952Y00165*
X01944Y00153*
X01939Y00139*
X01936Y00125*
Y0011*
X01939Y00096*
X01944Y00083*
X01952Y00071*
X01963Y0006*
X01975Y00052*
X01988Y00047*
X02003Y00044*
X02017*
X02031Y00047*
X02045Y00052*
X02057Y0006*
X02067Y00071*
X02075Y00083*
X02081Y00096*
X02084Y0011*
Y00125*
X02081Y00139*
X02075Y00153*
X02067Y00165*
X02057Y00175*
X02045Y00183*
X02031Y00189*
X02017Y00192*
G37*
G36*
X00125D02*
X0011D01*
X00096Y00189*
X00083Y00183*
X00071Y00175*
X0006Y00165*
X00052Y00153*
X00047Y00139*
X00044Y00125*
Y0011*
X00047Y00096*
X00052Y00083*
X0006Y00071*
X00071Y0006*
X00083Y00052*
X00096Y00047*
X0011Y00044*
X00125*
X00139Y00047*
X00153Y00052*
X00165Y0006*
X00175Y00071*
X00183Y00083*
X00189Y00096*
X00192Y0011*
Y00125*
X00189Y00139*
X00183Y00153*
X00175Y00165*
X00165Y00175*
X00153Y00183*
X00139Y00189*
X00125Y00192*
G37*
%LNpcb-3*%
%LPD*%
G54D13*
X01259Y00933D02*
D01*
X01259Y00933*
X0126Y00933*
X0126Y00933*
X01261Y00933*
X01262Y00933*
X01262Y00933*
X01263Y00934*
X01263Y00934*
X01264Y00934*
X01264Y00935*
X01265Y00935*
X01265Y00935*
X01266Y00936*
X01266Y00936*
X01266Y00937*
X01267Y00938*
X01267Y00938*
X01267Y00939*
X01267Y00939*
X01267Y0094*
X01267Y00941*
X01267Y00941*
X01268Y00942*
X00799Y00991D02*
D01*
X00798Y00991*
X00798Y00992*
X00798Y00993*
X00798Y00994*
X00798Y00995*
X00797Y00996*
X00797Y00997*
X00796Y00998*
X00796Y00999*
X00795Y00999*
X00795Y01*
X00794Y01001*
X00793Y01002*
X00792Y01002*
X00792Y01003*
X00791Y01003*
X0079Y01003*
X00789Y01004*
X00788Y01004*
X00787Y01004*
X00786Y01004*
X00785Y01004*
X00785Y01005*
X00799Y00206D02*
D01*
X00799Y00203*
X00799Y002*
X00799Y00197*
X008Y00195*
X00801Y00192*
X00802Y00189*
X00803Y00187*
X00805Y00185*
X00806Y00182*
X00808Y0018*
X0081Y00178*
X00812Y00176*
X00814Y00174*
X00816Y00173*
X00818Y00171*
X00821Y0017*
X00823Y00169*
X00826Y00168*
X00828Y00167*
X00831Y00167*
X00834Y00166*
X00837Y00166*
X00838Y00166*
X00666Y00861D02*
D01*
X00666Y0086*
X00666Y00859*
X00666Y00858*
X00666Y00857*
X00666Y00856*
X00667Y00856*
X00667Y00855*
X00667Y00854*
X00668Y00853*
X00668Y00853*
X00669Y00852*
X00669Y00852*
X0067Y00851*
X00671Y00851*
X00672Y0085*
X00672Y0085*
X00673Y00849*
X00674Y00849*
X00675Y00849*
X00675Y00849*
X00676Y00849*
X00677Y00849*
X00678Y00849*
X00666Y01179D02*
D01*
X00665Y0118*
X00665Y01181*
X00665Y01182*
X00665Y01183*
X00665Y01184*
X00664Y01185*
X00664Y01186*
X00663Y01187*
X00662Y01188*
X00662Y01189*
X00661Y0119*
X0066Y0119*
X00659Y01191*
X00658Y01192*
X00658Y01192*
X00657Y01193*
X00655Y01193*
X00654Y01194*
X00653Y01194*
X00652Y01194*
X00651Y01194*
X0065Y01194*
X0065Y01195*
X00459Y00826D02*
X00547D01*
X00438Y00793D02*
X00541D01*
X0059Y01043D02*
Y01118D01*
X01038Y00933D02*
X01259D01*
X01268Y00942D02*
Y00978D01*
X00729Y01005D02*
X00785D01*
X00799Y00206D02*
Y00991D01*
X00838Y00166D02*
X01016D01*
X00678Y00849D02*
X00716D01*
X00666Y00861D02*
Y01179D01*
X00453Y01195D02*
X0065D01*
X00586Y00358D02*
Y00883D01*
X0059Y01118D02*
X00591D01*
G54D52*
X01918Y00633D03*
Y00435D03*
Y0084D03*
Y01037D03*
G54D53*
X00459Y00826D03*
X00438Y00793D03*
X01268Y00978D03*
X01038Y00933D03*
X00547Y00826D03*
X00729Y01005D03*
X00453Y01195D03*
X00716Y00849D03*
X00541Y00793D03*
X00586Y00358D03*
Y00883D03*
X00591Y01118D03*
X0059Y01043D03*
X01016Y00166D03*
G54D54*
X00118Y00118D03*
X0201D03*
Y01299D03*
X00118D03*
M02*