%FSTAX23Y23*%
%MOIN*%
%SFA1B1*%

%IPPOS*%
%ADD13C,0.010000*%
%LNpcb-1*%
%LPD*%
G36*
X0167Y00464D02*
X01647Y00441D01*
Y00455*
X01584*
Y00474*
X01647*
Y00488*
X0167Y00464*
G37*
G36*
Y00662D02*
X01647Y00638D01*
Y00652*
X01584*
Y00671*
X01647*
Y00685*
X0167Y00662*
G37*
G36*
X01652Y01268D02*
X01628Y01244D01*
Y01258*
X01565*
Y01278*
X01628*
Y01292*
X01652Y01268*
G37*
G36*
Y01465D02*
X01628Y01442D01*
Y01455*
X01565*
Y01475*
X01628*
Y01489*
X01652Y01465*
G37*
G36*
X01956Y00804D02*
X01957Y00804D01*
X01957Y00804*
X01958Y00804*
X01958Y00804*
X01958Y00804*
X01959Y00804*
X01959Y00803*
X01959Y00803*
X0196Y00803*
X0196Y00803*
X0196Y00803*
X0196Y00803*
X0196Y00803*
X0196Y00803*
X0196Y00803*
X01961Y00802*
X01961Y00802*
X01961Y00802*
X01961Y00801*
X01962Y00801*
X01962Y008*
X01962Y008*
X01962Y008*
X01962Y00799*
X01962Y00799*
X01962Y00799*
Y00799*
X01962Y00799*
Y00799*
X0196Y00798*
X0196Y00799*
X0196Y008*
X01959Y008*
X01959Y008*
X01959Y00801*
X01959Y00801*
X01959Y00801*
X01959Y00801*
X01958Y00801*
X01958Y00802*
X01957Y00802*
X01957Y00802*
X01957Y00802*
X01956Y00802*
X01956Y00802*
X01956*
X01955Y00802*
X01955Y00802*
X01954Y00802*
X01954Y00802*
X01954Y00802*
X01954Y00801*
X01953Y00801*
X01953Y00801*
X01953Y00801*
X01953Y008*
X01953Y008*
X01952Y008*
X01952Y00799*
X01952Y00799*
X01952Y00799*
Y00799*
Y00799*
X01952Y00798*
X01952Y00798*
X01953Y00797*
X01953Y00797*
X01953Y00797*
X01953Y00796*
X01953Y00796*
X01953Y00796*
X01953Y00796*
Y00796*
X01954Y00796*
X01954Y00795*
X01954Y00795*
X01955Y00795*
X01955Y00794*
X01956Y00793*
X01956Y00793*
X01957Y00793*
X01957Y00793*
X01957Y00792*
X01957Y00792*
X01958Y00792*
X01958Y00792*
X01958Y00792*
X01958Y00791*
X01959Y00791*
X0196Y0079*
X0196Y0079*
X0196Y0079*
X01961Y00789*
X01961Y00789*
X01961Y00789*
Y00789*
X01961Y00789*
X01961Y00788*
X01962Y00788*
X01962Y00787*
X01962Y00787*
X01962Y00787*
X01962Y00787*
X01962Y00787*
Y00787*
X01962Y00786*
X01962Y00786*
X01963Y00786*
X01963Y00785*
X01963Y00785*
Y00785*
Y00785*
Y00785*
X0195*
Y00787*
X01959*
X01959Y00788*
X01959Y00788*
X01959Y00788*
X01959Y00788*
X01958Y00788*
X01958Y00788*
X01958Y00788*
X01958Y00789*
X01958Y00789*
X01958Y00789*
X01957Y00789*
X01957Y0079*
X01956Y0079*
X01956Y0079*
X01956Y00791*
X01956Y00791*
X01956Y00791*
X01956Y00791*
X01956Y00791*
X01955Y00791*
X01955Y00792*
X01954Y00792*
X01954Y00792*
X01954Y00793*
X01953Y00793*
X01953Y00793*
X01953Y00793*
X01953Y00794*
X01952Y00794*
X01952Y00794*
X01952Y00794*
X01952Y00794*
X01952Y00794*
X01952Y00795*
X01951Y00795*
X01951Y00795*
X01951Y00796*
X01951Y00796*
X0195Y00796*
X0195Y00796*
X0195Y00797*
X0195Y00797*
X0195Y00797*
X0195Y00798*
X0195Y00798*
X0195Y00798*
X0195Y00799*
Y00799*
Y00799*
X0195Y00799*
X0195Y008*
X0195Y008*
X0195Y008*
X0195Y00801*
X01951Y00802*
X01951Y00802*
X01951Y00802*
X01951Y00802*
X01951Y00802*
X01951Y00802*
X01951Y00803*
X01951Y00803*
X01952Y00803*
X01952Y00803*
X01952Y00803*
X01953Y00803*
X01953Y00803*
X01954Y00804*
X01954Y00804*
X01955Y00804*
X01955Y00804*
X01955Y00804*
X01955Y00804*
X01956Y00804*
X01956*
X01956Y00804*
G37*
G36*
X01979Y00785D02*
X01977D01*
Y00793*
X01972*
X01971Y00793*
X0197Y00793*
X0197Y00793*
X01969Y00793*
X01969Y00793*
X01968Y00793*
X01968Y00793*
X01967Y00794*
X01967Y00794*
X01967Y00794*
X01967Y00794*
X01966Y00794*
X01966Y00794*
X01966Y00794*
X01966Y00794*
X01966Y00794*
X01966Y00795*
X01966Y00795*
X01965Y00795*
X01965Y00796*
X01965Y00796*
X01965Y00796*
X01965Y00797*
X01965Y00797*
X01965Y00798*
X01965Y00798*
X01965Y00798*
X01965Y00798*
Y00798*
Y00798*
Y00798*
X01965Y00799*
X01965Y008*
X01965Y008*
X01965Y008*
X01965Y00801*
X01965Y00801*
X01965Y00801*
X01965Y00801*
X01965Y00802*
X01966Y00802*
X01966Y00802*
X01966Y00802*
X01966Y00803*
X01966Y00803*
X01967Y00803*
X01967Y00803*
X01967Y00803*
X01967Y00803*
X01968Y00804*
X01968Y00804*
X01969Y00804*
X01969Y00804*
X01969Y00804*
X01969*
X01969Y00804*
X0197Y00804*
X0197Y00804*
X01971Y00804*
X01971Y00804*
X01979*
Y00785*
G37*
G36*
X01948Y01609D02*
X01949Y01608D01*
X01949Y01608*
X01949Y01607*
X0195Y01607*
X0195Y01607*
X0195Y01607*
X0195Y01607*
X0195Y01607*
X0195Y01607*
X01951Y01606*
X01951Y01606*
X01952Y01605*
X01953Y01605*
X01953Y01605*
X01953Y01605*
X01953Y01604*
X01953Y01604*
X01954Y01604*
X01954Y01604*
X01954*
Y01602*
X01953Y01602*
X01953Y01602*
X01952Y01603*
X01952Y01603*
X01952Y01603*
X01951Y01603*
X01951Y01603*
X01951Y01603*
X01951*
X01951Y01604*
X0195Y01604*
X0195Y01604*
X0195Y01604*
X01949Y01605*
X01949Y01605*
X01949Y01605*
X01949Y01605*
Y0159*
X01947*
Y01609*
X01948*
X01948Y01609*
G37*
G36*
X01972Y0159D02*
X0197D01*
Y01598*
X01965*
X01964Y01598*
X01964Y01598*
X01963Y01598*
X01962Y01598*
X01962Y01598*
X01961Y01598*
X01961Y01598*
X01961Y01599*
X0196Y01599*
X0196Y01599*
X0196Y01599*
X0196Y01599*
X0196Y01599*
X01959Y01599*
X01959Y01599*
X01959Y01599*
X01959Y016*
X01959Y016*
X01959Y016*
X01958Y01601*
X01958Y01601*
X01958Y01601*
X01958Y01602*
X01958Y01602*
X01958Y01603*
X01958Y01603*
X01958Y01603*
X01958Y01603*
Y01603*
Y01603*
Y01603*
X01958Y01604*
X01958Y01605*
X01958Y01605*
X01958Y01605*
X01958Y01606*
X01958Y01606*
X01958Y01606*
X01958Y01606*
X01959Y01607*
X01959Y01607*
X01959Y01607*
X01959Y01607*
X0196Y01608*
X0196Y01608*
X0196Y01608*
X0196Y01608*
X0196Y01608*
X01961Y01608*
X01961Y01609*
X01961Y01609*
X01962Y01609*
X01962Y01609*
X01962Y01609*
X01962*
X01963Y01609*
X01963Y01609*
X01964Y01609*
X01964Y01609*
X01965Y01609*
X01972*
Y0159*
G37*
%LNpcb-2*%
%LPC*%
G36*
X01977Y00802D02*
X01971D01*
X01971Y00802*
X0197Y00802*
X0197Y00802*
X0197Y00802*
X01969Y00802*
X01969Y00802*
X01969*
X01969Y00801*
X01969Y00801*
X01968Y00801*
X01968Y00801*
X01968Y00801*
X01968Y00801*
X01968Y008*
X01968Y008*
X01968Y008*
X01967Y008*
X01967Y00799*
X01967Y00799*
X01967Y00799*
X01967Y00799*
Y00798*
Y00798*
Y00798*
X01967Y00798*
X01967Y00797*
X01967Y00797*
X01968Y00797*
X01968Y00796*
X01968Y00796*
X01968Y00796*
X01968Y00796*
X01968Y00796*
X01969Y00796*
X01969Y00795*
X0197Y00795*
X0197Y00795*
X01971Y00795*
X01971Y00795*
X01971*
X01971Y00795*
X01977*
Y00802*
G37*
G36*
X0197Y01607D02*
X01964D01*
X01964Y01607*
X01963Y01607*
X01963Y01607*
X01963Y01607*
X01963Y01607*
X01963Y01607*
X01963*
X01962Y01606*
X01962Y01606*
X01962Y01606*
X01961Y01606*
X01961Y01606*
X01961Y01606*
X01961Y01605*
X01961Y01605*
X01961Y01605*
X01961Y01605*
X0196Y01604*
X0196Y01604*
X0196Y01604*
X0196Y01604*
Y01603*
Y01603*
Y01603*
X0196Y01603*
X01961Y01602*
X01961Y01602*
X01961Y01602*
X01961Y01601*
X01961Y01601*
X01961Y01601*
X01961Y01601*
X01962Y01601*
X01962Y01601*
X01962Y016*
X01963Y016*
X01964Y016*
X01964Y016*
X01964Y016*
X01964*
X01965Y016*
X0197*
Y01607*
G37*
%LNpcb-3*%
%LPD*%
G54D13*
X01569Y01226D02*
X01645D01*
X01662Y01242*
Y0129*
X01647Y01305D02*
X01662Y0129D01*
X01569Y01305D02*
X01647D01*
X01569Y01423D02*
X01645D01*
X01662Y0144*
Y01487*
X01647Y01503D02*
X01662Y01487D01*
X01569Y01503D02*
X01647D01*
X01646Y01146D02*
Y0117D01*
X01618Y01146D02*
X01646D01*
X01618D02*
Y0117D01*
X01569Y0117D02*
X01975D01*
Y01563*
X01569D02*
X01975D01*
X01569Y0117D02*
Y01563D01*
X01916Y01146D02*
Y0117D01*
X01888Y01146D02*
X01916D01*
X01888D02*
Y0117D01*
X0168D02*
Y01563D01*
X01852Y0117D02*
Y01563D01*
X01917Y0117D02*
Y01563D01*
X01936Y00366D02*
Y0076D01*
X01871Y00366D02*
Y0076D01*
X01698Y00366D02*
Y0076D01*
X01907Y00342D02*
Y00366D01*
Y00342D02*
X01935D01*
Y00366*
X01588Y00366D02*
Y0076D01*
X01993*
Y00366D02*
Y0076D01*
X01588Y00366D02*
X01993D01*
X01637Y00342D02*
Y00366D01*
Y00342D02*
X01665D01*
Y00366*
X01588Y00699D02*
X01665D01*
X01681Y00683*
Y00636D02*
Y00683D01*
X01664Y00619D02*
X01681Y00636D01*
X01588Y00619D02*
X01664D01*
X01588Y00502D02*
X01665D01*
X01681Y00486*
Y00439D02*
Y00486D01*
X01664Y00422D02*
X01681Y00439D01*
X01588Y00422D02*
X01664D01*
X01943Y00301D02*
X0195Y00308D01*
X01963*
X0197Y00301*
Y00294*
X01963Y00288*
X0195*
X01943Y00281*
Y00274*
X0195Y00268*
X01963*
X0197Y00274*
X0193Y00308D02*
Y00268D01*
X01903*
X0189D02*
Y00294D01*
X01876Y00308*
X01863Y00294*
Y00268*
Y00288*
X0189*
X0181Y00308D02*
Y00268D01*
X0179*
X01783Y00274*
Y00281*
X0179Y00288*
X0181*
X0179*
X01783Y00294*
Y00301*
X0179Y00308*
X0181*
X01763Y00294D02*
X0175D01*
X01743Y00288*
Y00268*
X01763*
X0177Y00274*
X01763Y00281*
X01743*
X01723Y00301D02*
Y00294D01*
X0173*
X01716*
X01723*
Y00274*
X01716Y00268*
X0169Y00301D02*
Y00294D01*
X01696*
X01683*
X0169*
Y00274*
X01683Y00268*
X01643D02*
X01656D01*
X01663Y00274*
Y00288*
X01656Y00294*
X01643*
X01636Y00288*
Y00281*
X01663*
X01623Y00294D02*
Y00268D01*
Y00281*
X01616Y00288*
X0161Y00294*
X01603*
X01583D02*
Y00274D01*
X01576Y00268*
X01556*
Y00261*
X01563Y00255*
X0157*
X01556Y00268D02*
Y00294D01*
X01938Y01106D02*
X01945Y01113D01*
X01958*
X01965Y01106*
Y01099*
X01958Y01093*
X01945*
X01938Y01086*
Y01079*
X01945Y01073*
X01958*
X01965Y01079*
X01918Y01073D02*
X01905D01*
X01898Y01079*
Y01093*
X01905Y01099*
X01918*
X01925Y01093*
Y01079*
X01918Y01073*
X01885D02*
X01871D01*
X01878*
Y01113*
X01885*
X01845Y01099D02*
X01831D01*
X01825Y01093*
Y01073*
X01845*
X01851Y01079*
X01845Y01086*
X01825*
X01811Y01099D02*
Y01073D01*
Y01086*
X01805Y01093*
X01798Y01099*
X01791*
X01731Y01113D02*
X01718D01*
X01725*
Y01073*
X01731*
X01718*
X01698D02*
Y01099D01*
X01678*
X01671Y01093*
Y01073*
X01658Y0106D02*
Y01099D01*
X01638*
X01631Y01093*
Y01079*
X01638Y01073*
X01658*
X01618Y01099D02*
Y01079D01*
X01611Y01073*
X01591*
Y01099*
X01571Y01106D02*
Y01099D01*
X01578*
X01565*
X01571*
Y01079*
X01565Y01073*
M02*