%FSTAX23Y23*%
%MOIN*%
%SFA1B1*%

%IPPOS*%
%ADD17R,0.046854X0.068031*%
%ADD18R,0.039370X0.055098*%
%ADD19R,0.086614X0.122051*%
%ADD20R,0.060000X0.059842*%
%ADD21R,0.169291X0.062992*%
%ADD22R,0.029527X0.039370*%
%ADD23R,0.066929X0.078740*%
%ADD24R,0.045275X0.037401*%
%ADD25R,0.010000X0.027598*%
%ADD26R,0.098425X0.066901*%
%LNpcb-1*%
%LPD*%
G36*
X01428Y01167D02*
Y01116D01*
X01424Y01112*
X01409*
X01406Y01116*
Y01128*
X01402Y01132*
X01386*
X01382Y01128*
Y01116*
X01378Y01112*
X01364*
X0136Y01116*
Y01167*
X01364Y01171*
X01424*
X01428Y01167*
G37*
G36*
X01292Y01148D02*
Y01102D01*
X0129Y011*
X01274Y011*
Y01118*
X01256*
Y01101*
X0124Y011*
X01238Y01102*
Y01148*
X0124Y0115*
X0129*
X01292Y01148*
G37*
G36*
Y01063D02*
Y01018D01*
X0129Y01016*
X0124*
X01238Y01018*
Y01063*
X0124Y01065*
X01256*
Y01048*
X01274*
Y01065*
X0129Y01065*
X01292Y01063*
G37*
G36*
X01428Y01041D02*
Y00991D01*
X01424Y00987*
X01364*
X0136Y00991*
Y01041*
X01364Y01045*
X01378*
X01382Y01041*
Y01029*
X01386Y01025*
X01402*
X01406Y01029*
Y01041*
X01409Y01045*
X01424*
X01428Y01041*
G37*
G36*
X00888Y0103D02*
Y00979D01*
X00886Y00977*
X00841*
X00839Y00979*
Y00996*
X00857*
Y01014*
X00839*
X00839Y0103*
X00841Y01032*
X00886*
X00888Y0103*
G37*
G36*
X00804D02*
X00804Y01014D01*
X00786*
Y00996*
X00804*
X00804Y00979*
X00802Y00977*
X00757*
X00755Y00979*
Y0103*
X00757Y01032*
X00802*
X00804Y0103*
G37*
G36*
X01393Y00935D02*
Y00885D01*
X01391Y00883*
X01346*
X01344Y00885*
Y00901*
X01361*
Y00919*
X01344*
X01344Y00935*
X01346Y00937*
X01391*
X01393Y00935*
G37*
G36*
X01308D02*
X01308Y00919D01*
X01291*
Y00901*
X01308*
X01308Y00885*
X01306Y00883*
X01261*
X01259Y00885*
Y00935*
X01261Y00937*
X01306*
X01308Y00935*
G37*
G36*
X00365Y00925D02*
Y00874D01*
X00363Y00872*
X00318*
X00316Y00874*
X00316Y0089*
X00334*
Y00908*
X00316*
X00316Y00925*
X00318Y00927*
X00363*
X00365Y00925*
G37*
G36*
X00281D02*
Y00908D01*
X00263*
Y0089*
X00281*
X00281Y00874*
X00279Y00872*
X00234*
X00232Y00874*
Y00925*
X00234Y00927*
X00279*
X00281Y00925*
G37*
G36*
X00891Y00874D02*
Y00823D01*
X00889Y00821*
X00844*
X00842Y00823*
Y0084*
X00859*
Y00858*
X00842*
X00842Y00874*
X00844Y00876*
X00889*
X00891Y00874*
G37*
G36*
X00806D02*
X00807Y00858D01*
X00789*
Y0084*
X00806*
X00806Y00823*
X00804Y00821*
X00759*
X00757Y00823*
Y00874*
X00759Y00876*
X00804*
X00806Y00874*
G37*
G36*
X00464Y00797D02*
Y00752D01*
X00462Y0075*
X00446Y0075*
Y00768*
X00428*
Y0075*
X00411Y0075*
X00409Y00752*
Y00797*
X00411Y00799*
X00462*
X00464Y00797*
G37*
G36*
X00427Y00697D02*
X00445D01*
Y00714*
X00462Y00714*
X00464Y00712*
Y00667*
X00462Y00665*
X00411*
X00409Y00667*
Y00712*
X00411Y00714*
X00427Y00714*
Y00697*
G37*
G36*
X01069Y00651D02*
Y00606D01*
X01067Y00604*
X0105*
Y00621*
X01032*
Y00604*
X01016Y00604*
X01014Y00606*
Y00651*
X01016Y00653*
X01067*
X01069Y00651*
G37*
G36*
X00959D02*
Y00606D01*
X00957Y00604*
X0094*
Y00621*
X00922*
Y00604*
X00906Y00604*
X00904Y00606*
Y00651*
X00906Y00653*
X00957*
X00959Y00651*
G37*
G36*
X01032Y00551D02*
X0105D01*
Y00568*
X01067Y00568*
X01069Y00566*
Y00521*
X01067Y00519*
X01016*
X01014Y00521*
Y00566*
X01016Y00568*
X01032Y00568*
Y00551*
G37*
G36*
X00922D02*
X0094D01*
Y00568*
X00957Y00568*
X00959Y00566*
Y00521*
X00957Y00519*
X00906*
X00904Y00521*
Y00566*
X00906Y00568*
X00922Y00568*
Y00551*
G37*
G36*
X01069Y00461D02*
Y00416D01*
X01067Y00414*
X0105*
Y00431*
X01032*
Y00414*
X01016Y00414*
X01014Y00416*
Y00461*
X01016Y00463*
X01067*
X01069Y00461*
G37*
G36*
X01032Y00361D02*
X0105D01*
Y00378*
X01067Y00378*
X01069Y00376*
Y00331*
X01067Y00329*
X01016*
X01014Y00331*
Y00376*
X01016Y00378*
X01032Y00378*
Y00361*
G37*
G36*
X01358Y00386D02*
Y00326D01*
X01354Y00322*
X01304*
X013Y00326*
Y0034*
X01304Y00344*
X01316*
X0132Y00348*
Y00364*
X01316Y00367*
X01304*
X013Y00371*
Y00386*
X01304Y0039*
X01354*
X01358Y00386*
G37*
G36*
X01233D02*
Y00371D01*
X01229Y00367*
X01217*
X01213Y00364*
Y00348*
X01217Y00344*
X01229*
X01233Y0034*
Y00326*
X01229Y00322*
X01178*
X01174Y00326*
Y00386*
X01178Y0039*
X01229*
X01233Y00386*
G37*
G36*
X01043Y00261D02*
Y00211D01*
X01041Y00209*
X00996*
X00994Y00211*
X00994Y00227*
X01012*
Y00245*
X00994*
X00994Y00261*
X00996Y00263*
X01041*
X01043Y00261*
G37*
G36*
X00959D02*
Y00245D01*
X00941*
Y00227*
X00958*
X00959Y00211*
X00957Y00209*
X00911*
X00909Y00211*
Y00261*
X00911Y00263*
X00957*
X00959Y00261*
G37*
G54D17*
X01553Y00356D03*
X01439D03*
G54D18*
X01083Y01005D03*
X01D03*
X01003Y00849D03*
X01086D03*
G54D19*
X01534Y01036D03*
X00437Y00568D03*
G54D20*
X01534Y01162D03*
X00437Y00443D03*
G54D21*
X01269Y00626D03*
X01534D03*
G54D22*
X00936Y0035D03*
Y00442D03*
X00349Y00683D03*
Y00776D03*
G54D23*
X00686Y00429D03*
Y00666D03*
G54D24*
X00264Y00801D03*
Y00668D03*
G54D25*
X0053Y00995D03*
X0051D03*
X0049D03*
X00471D03*
X00451D03*
X00431D03*
Y00881D03*
X00451D03*
X00471D03*
X0049D03*
X0051D03*
X0053D03*
G54D26*
X00481Y00938D03*
M02*