%FSTAX23Y23*%
%MOIN*%
%SFA1B1*%

%IPPOS*%
%ADD10C,0.006000*%
%ADD11C,0.003000*%
%ADD12C,0.009843*%
%ADD13C,0.010000*%
%ADD14C,0.005984*%
%ADD15C,0.007874*%
%ADD16C,0.005984*%
%LNpcb-1*%
%LPD*%
G36*
X00317Y0076D02*
X00331D01*
Y00772*
X00317*
Y0076*
G37*
G36*
X0038D02*
X00366D01*
Y00772*
X0038*
Y0076*
G37*
G36*
X00905Y00365D02*
X00919D01*
Y00353*
X00905*
Y00365*
G37*
G36*
X01553Y00546D02*
X01514D01*
Y00556*
X01553*
Y00546*
G37*
G36*
X01272Y00556D02*
X01287D01*
Y00546*
X01272*
Y00518*
X01262*
Y00546*
X01248*
Y00556*
X01262*
Y00583*
X01272*
Y00556*
G37*
G36*
X00968Y00353D02*
X00954D01*
Y00365*
X00968*
Y00353*
G37*
G36*
X01792Y00433D02*
X01768Y0041D01*
Y00423*
X01705*
Y00443*
X01768*
Y00457*
X01792Y00433*
G37*
G36*
Y0063D02*
X01768Y00607D01*
Y00621*
X01705*
Y0064*
X01768*
Y00654*
X01792Y0063*
G37*
G36*
Y00838D02*
X01768Y00814D01*
Y00828*
X01705*
Y00848*
X01768*
Y00861*
X01792Y00838*
G37*
G36*
Y01035D02*
X01768Y01011D01*
Y01025*
X01705*
Y01045*
X01768*
Y01059*
X01792Y01035*
G37*
G36*
X00424Y01066D02*
Y01066D01*
Y01065*
Y01065*
Y01065*
X00424Y01065*
Y01065*
X00424Y01064*
X00423Y01064*
X00423Y01063*
X00423Y01062*
X00423Y01062*
X00423Y01061*
X00423Y01061*
Y01061*
X00423Y01061*
X00423Y01061*
X00423Y01061*
X00423Y0106*
X00422Y0106*
X00422Y0106*
X00422Y01059*
X00421Y01059*
X00421Y01058*
X0042*
X0042Y01058*
X0042Y01058*
X0042Y01058*
X0042Y01058*
X0042Y01058*
X0042Y01058*
X00419Y01058*
X00419Y01058*
X00419Y01058*
X00418Y01057*
X00418Y01057*
X00418Y01057*
X00417Y01057*
X00416Y01057*
X00416*
X00416Y01057*
X00415*
X00415Y01057*
X00415Y01057*
X00415Y01057*
X00414Y01057*
X00413Y01058*
X00412Y01058*
X00412Y01058*
X00412*
X00412Y01058*
X00411Y01058*
X00411Y01058*
X00411Y01058*
X00411Y01059*
X0041Y01059*
X0041Y0106*
X0041Y0106*
X00409Y01061*
Y01061*
X00409Y01061*
X00409Y01061*
X00409Y01061*
X00409Y01061*
X00409Y01061*
X00409Y01062*
X00409Y01062*
X00409Y01062*
X00409Y01063*
X00409Y01063*
X00409Y01064*
X00409Y01064*
X00409Y01065*
X00409Y01065*
Y01066*
Y01077*
X00411*
Y01066*
Y01066*
Y01065*
Y01065*
Y01065*
X00411Y01065*
Y01065*
X00411Y01064*
X00411Y01064*
X00411Y01063*
X00411Y01062*
X00411Y01062*
X00411Y01062*
X00412Y01062*
X00412Y01062*
X00412Y01062*
X00412Y01061*
X00412Y01061*
X00412Y01061*
X00413Y0106*
X00413Y0106*
X00413Y0106*
X00413Y0106*
X00414Y0106*
X00414Y0106*
X00414Y0106*
X00415Y0106*
X00415Y01059*
X00416Y01059*
X00416*
X00416Y01059*
X00417*
X00417Y0106*
X00417Y0106*
X00418Y0106*
X00419Y0106*
X00419Y0106*
X0042Y0106*
X0042Y01061*
X0042Y01061*
X0042Y01061*
X0042Y01061*
X0042Y01061*
X0042Y01061*
X0042Y01061*
X0042Y01062*
X0042Y01062*
X00421Y01062*
X00421Y01062*
X00421Y01063*
X00421Y01063*
X00421Y01064*
X00421Y01064*
X00421Y01065*
Y01066*
Y01077*
X00424*
Y01066*
G37*
G36*
X00436Y01058D02*
X00433D01*
Y01072*
X00433Y01072*
X00433Y01072*
X00433Y01072*
X00433Y01072*
X00432Y01072*
X00432Y01071*
X00432Y01071*
X00431Y01071*
X00431*
X00431Y01071*
X00431Y01071*
X00431Y01071*
X0043Y0107*
X0043Y0107*
X00429Y0107*
X00429Y0107*
X00429Y0107*
Y01072*
X00429*
X00429Y01072*
X00429Y01072*
X00429Y01072*
X00429Y01072*
X00429Y01072*
X0043Y01073*
X0043Y01073*
X00431Y01073*
X00431Y01074*
X00432Y01074*
X00432Y01074*
X00432Y01074*
X00432Y01074*
X00432Y01074*
X00433Y01075*
X00433Y01075*
X00433Y01075*
X00434Y01076*
X00434Y01076*
X00434Y01077*
X00436*
Y01058*
G37*
G36*
X00896Y00231D02*
X00896Y00231D01*
X00896Y00231*
X00896Y00231*
X00897Y00231*
X00897Y00231*
X00898Y00231*
X00898Y00231*
X00898Y0023*
X00899Y0023*
X00899Y0023*
X00899Y0023*
X009Y0023*
X009Y0023*
X009Y00229*
X009Y00229*
X009Y00229*
X009Y00229*
X009Y00229*
X009Y00228*
X009Y00228*
X00901Y00228*
X00901Y00227*
X00901Y00227*
X00901Y00227*
X00901Y00226*
X00901Y00226*
X00901Y00225*
Y00225*
X00901Y00225*
X00901Y00224*
X00901Y00224*
X00901Y00224*
X00901Y00223*
X00901Y00223*
X00901Y00222*
X009Y00222*
X009Y00222*
X009Y00221*
X009Y00221*
X00899Y0022*
X00899Y0022*
X00899Y0022*
X00899Y0022*
X00899Y0022*
X00899Y0022*
X00899Y0022*
X00899Y0022*
X00898Y0022*
X00898Y00219*
X00898Y00219*
X00897Y00219*
X00897Y00219*
X00896Y00219*
X00896Y00219*
X00895Y00219*
X00895*
X00895*
X00895*
X00895Y00219*
X00895*
X00895Y00219*
X00894Y00219*
X00894Y00219*
X00893Y00219*
X00893Y00219*
X00892Y0022*
X00892*
X00892Y0022*
X00892Y0022*
X00892Y0022*
X00891Y0022*
X00891Y00221*
X00891Y00221*
X00891Y00222*
X0089Y00222*
Y00222*
X0089Y00222*
X0089Y00222*
X0089Y00222*
X0089Y00222*
X0089Y00222*
X0089Y00221*
X0089Y00221*
X00889Y00221*
X00889Y0022*
X00889Y0022*
X00889Y0022*
X00889Y0022*
X00888Y0022*
X00888Y0022*
X00887Y0022*
X00887Y0022*
X00887Y0022*
X00886*
X00886*
X00886*
X00886Y0022*
X00886Y0022*
X00886Y0022*
X00885Y0022*
X00885Y0022*
X00884Y0022*
X00884Y0022*
X00884Y00221*
X00883Y00221*
X00883Y00221*
X00883Y00221*
X00883Y00221*
X00883Y00221*
X00883Y00221*
X00883Y00221*
X00883Y00222*
X00882Y00222*
X00882Y00222*
X00882Y00222*
X00882Y00223*
X00882Y00223*
X00882Y00223*
X00882Y00224*
X00882Y00225*
X00882Y00225*
Y00225*
X00882Y00225*
X00882Y00226*
X00882Y00226*
X00882Y00226*
X00882Y00226*
X00882Y00227*
X00882Y00228*
X00882Y00228*
X00883Y00228*
X00883Y00229*
X00883Y00229*
X00883Y00229*
X00883Y00229*
X00883Y00229*
X00883Y00229*
X00883Y00229*
X00884Y0023*
X00884Y0023*
X00885Y0023*
X00885Y0023*
X00886Y00231*
X00886Y00231*
X00887Y00231*
X00887*
X00887*
X00887*
X00887Y00231*
X00887Y00231*
X00888Y0023*
X00888Y0023*
X00889Y0023*
X00889Y0023*
X00889Y0023*
X00889Y0023*
X00889Y0023*
X00889Y00229*
X0089Y00229*
X0089Y00229*
X0089Y00228*
X0089Y00228*
Y00228*
X0089Y00228*
X0089Y00228*
X00891Y00228*
X00891Y00228*
X00891Y00229*
X00891Y00229*
X00891Y0023*
X00892Y0023*
X00892Y0023*
X00892*
X00892Y0023*
X00893Y00231*
X00893Y00231*
X00893Y00231*
X00894Y00231*
X00894Y00231*
X00895Y00231*
X00895Y00231*
X00895*
X00895*
X00896*
X00896Y00231*
G37*
G36*
X00901Y00214D02*
X00897Y00212D01*
X00897*
X00897Y00212*
X00897Y00212*
X00897Y00211*
X00896Y00211*
X00896Y00211*
X00895Y00211*
X00895Y0021*
X00895Y0021*
X00894Y0021*
X00894Y0021*
X00894Y0021*
X00894Y0021*
X00894Y00209*
X00893Y00209*
X00893Y00209*
X00893Y00208*
X00893Y00208*
X00893Y00208*
X00893Y00208*
X00893Y00208*
X00893Y00208*
X00893Y00208*
X00892Y00207*
Y00207*
X00892Y00207*
Y00207*
X00892Y00207*
X00892Y00207*
Y00207*
X00892Y00206*
Y00203*
X00901*
Y002*
X00882*
Y00209*
X00882Y0021*
Y0021*
X00882Y0021*
X00882Y00211*
X00882Y00212*
X00882Y00212*
X00882Y00213*
X00882Y00213*
Y00213*
X00882Y00213*
X00882Y00213*
X00882Y00213*
X00883Y00214*
X00883Y00214*
X00883Y00214*
X00884Y00215*
X00884Y00215*
X00884*
X00884Y00215*
X00884Y00215*
X00884Y00215*
X00885Y00215*
X00885Y00216*
X00886Y00216*
X00886Y00216*
X00887Y00216*
X00887*
X00887*
X00887*
X00887Y00216*
X00887*
X00888Y00216*
X00888Y00216*
X00889Y00215*
X00889Y00215*
X0089Y00215*
X0089Y00215*
X0089Y00214*
X0089Y00214*
X0089Y00214*
X0089Y00214*
X00891Y00214*
X00891Y00214*
X00891Y00214*
X00891Y00214*
X00891Y00213*
X00891Y00213*
X00891Y00213*
X00892Y00213*
X00892Y00212*
X00892Y00212*
X00892Y00211*
X00892Y00211*
X00892Y0021*
X00892Y0021*
X00892Y00211*
X00892Y00211*
X00892Y00211*
X00893Y00211*
X00893Y00212*
X00893Y00212*
X00893Y00212*
X00893Y00212*
X00893Y00212*
X00894Y00213*
X00894Y00213*
X00895Y00213*
X00895Y00214*
X00896Y00214*
X00901Y00217*
Y00214*
G37*
G36*
X01089Y00356D02*
X01089Y00356D01*
X01089Y00356*
X01089Y00356*
X01089Y00356*
X0109Y00356*
X0109Y00355*
X0109Y00355*
X01091Y00355*
X01091Y00355*
X01091Y00354*
X01092Y00354*
X01092Y00354*
X01093Y00353*
X01093Y00353*
X01094Y00353*
X01094Y00353*
X01094Y00353*
X01094Y00353*
X01095Y00352*
X01095Y00352*
X01095Y00352*
X01096Y00352*
X01096Y00352*
X01097Y00352*
X01097Y00351*
X01098Y00351*
X01098Y00351*
X01099Y0035*
X01101Y0035*
X01101*
X01101Y0035*
X01101Y0035*
X01101Y0035*
X01101Y0035*
X01102Y0035*
X01102Y0035*
X01102Y0035*
X01103Y0035*
X01103Y00349*
X01104Y00349*
X01105Y00349*
X01106Y00349*
Y00347*
X01106*
X01106*
X01106*
X01106Y00347*
X01105*
X01105Y00347*
X01105Y00347*
X01104Y00347*
X01104Y00347*
X01104Y00347*
X01103Y00347*
X01103Y00347*
X01102Y00347*
X01102Y00347*
X011Y00348*
X011*
X011Y00348*
X011Y00348*
X011Y00348*
X011Y00348*
X01099Y00348*
X01099Y00348*
X01099Y00348*
X01098Y00348*
X01098Y00348*
X01097Y00349*
X01095Y00349*
X01094Y0035*
X01094Y0035*
X01094Y0035*
X01094Y0035*
X01094Y0035*
X01094Y0035*
X01093Y00351*
X01093Y00351*
X01093Y00351*
X01092Y00352*
X01091Y00352*
X0109Y00353*
X01089Y00353*
Y00344*
X01087*
Y00356*
X01089*
X01089Y00356*
G37*
G36*
X01106Y00339D02*
X01102Y00337D01*
X01102*
X01102Y00337*
X01102Y00337*
X01102Y00336*
X01101Y00336*
X01101Y00336*
X01101Y00336*
X011Y00335*
X011Y00335*
X01099Y00335*
X01099Y00335*
X01099Y00335*
X01099Y00335*
X01099Y00334*
X01098Y00334*
X01098Y00334*
X01098Y00334*
X01098Y00333*
X01098Y00333*
X01098Y00333*
X01098Y00333*
X01098Y00333*
X01098Y00333*
X01098Y00332*
Y00332*
X01098Y00332*
Y00332*
X01097Y00332*
X01097Y00332*
Y00332*
X01097Y00331*
Y00328*
X01106*
Y00325*
X01087*
Y00334*
X01087Y00335*
Y00335*
X01087Y00335*
X01087Y00336*
X01087Y00337*
X01087Y00337*
X01087Y00338*
X01087Y00338*
Y00338*
X01087Y00338*
X01087Y00338*
X01088Y00338*
X01088Y00339*
X01088Y00339*
X01088Y00339*
X01089Y0034*
X01089Y0034*
X01089*
X01089Y0034*
X01089Y0034*
X0109Y0034*
X0109Y0034*
X0109Y00341*
X01091Y00341*
X01091Y00341*
X01092Y00341*
X01092*
X01092*
X01092*
X01092Y00341*
X01093*
X01093Y00341*
X01093Y00341*
X01094Y0034*
X01094Y0034*
X01095Y0034*
X01095Y0034*
X01095Y00339*
X01095Y00339*
X01096Y00339*
X01096Y00339*
X01096Y00339*
X01096Y00339*
X01096Y00339*
X01096Y00339*
X01096Y00338*
X01096Y00338*
X01096Y00338*
X01097Y00338*
X01097Y00337*
X01097Y00337*
X01097Y00336*
X01097Y00336*
X01097Y00335*
X01097Y00335*
X01097Y00336*
X01097Y00336*
X01098Y00336*
X01098Y00336*
X01098Y00337*
X01098Y00337*
X01098Y00337*
X01098Y00337*
X01099Y00337*
X01099Y00338*
X01099Y00338*
X011Y00338*
X011Y00339*
X01101Y00339*
X01106Y00342*
Y00339*
G37*
G36*
X01254Y01178D02*
X01254D01*
X01254Y01177*
X01255Y01177*
X01256Y01177*
X01256Y01177*
X01257Y01177*
X01257Y01176*
X01257Y01176*
X01257Y01176*
X01257Y01176*
X01258Y01176*
X01258Y01176*
X01258Y01176*
X01258Y01176*
X01258Y01175*
X01258Y01175*
X01259Y01174*
X01259Y01174*
X01259Y01173*
X01257Y01173*
Y01173*
X01257Y01173*
X01257Y01173*
X01257Y01173*
X01257Y01173*
X01256Y01174*
X01256Y01174*
X01256Y01174*
X01256Y01175*
X01256Y01175*
X01256Y01175*
X01256Y01175*
X01255Y01175*
X01255Y01175*
X01254Y01175*
X01254Y01176*
X01254Y01176*
X01253*
X01253Y01176*
X01253Y01176*
X01253Y01175*
X01252Y01175*
X01252Y01175*
X01252Y01175*
X01251Y01175*
X01251Y01175*
X01251Y01175*
X01251Y01174*
X01251Y01174*
X0125Y01174*
X0125Y01173*
X0125Y01173*
Y01173*
X0125Y01172*
X0125Y01172*
X0125Y01172*
X0125Y01172*
X0125Y01172*
X0125Y01172*
X01249Y01171*
X01249Y01171*
X01249Y01171*
X01249Y0117*
X01249Y0117*
X01249Y0117*
X01249Y01169*
X01249Y01169*
Y01168*
X01249Y01168*
X01249Y01168*
X01249Y01169*
X0125Y01169*
X0125Y01169*
X0125Y0117*
X01251Y0117*
X01251Y0117*
X01251*
X01251Y0117*
X01251Y0117*
X01252Y0117*
X01252Y0117*
X01252Y01171*
X01253Y01171*
X01253Y01171*
X01254Y01171*
X01254*
X01254Y01171*
X01254Y01171*
X01255Y01171*
X01255Y01171*
X01255Y01171*
X01256Y0117*
X01256Y0117*
X01256Y0117*
X01257Y0117*
X01257Y0117*
X01257Y01169*
X01258Y01169*
X01258Y01169*
X01258Y01169*
X01258Y01169*
X01258Y01169*
X01258Y01168*
X01258Y01168*
X01258Y01168*
X01259Y01168*
X01259Y01167*
X01259Y01167*
X01259Y01167*
X01259Y01166*
X01259Y01166*
X01259Y01165*
X01259Y01165*
X01259Y01164*
Y01164*
Y01164*
Y01164*
Y01164*
X01259Y01164*
Y01164*
X01259Y01163*
X01259Y01163*
X01259Y01162*
X01259Y01162*
X01259Y01161*
Y01161*
X01259Y01161*
X01259Y01161*
X01259Y01161*
X01258Y01161*
X01258Y0116*
X01258Y0116*
X01257Y01159*
X01257Y01159*
X01257Y01159*
X01256*
X01256Y01159*
X01256Y01159*
X01256Y01159*
X01256Y01159*
X01256Y01158*
X01255Y01158*
X01255Y01158*
X01254Y01158*
X01253Y01158*
X01253*
X01253Y01158*
X01253*
X01253Y01158*
X01252Y01158*
X01252Y01158*
X01252Y01158*
X01251Y01158*
X01251Y01158*
X01251Y01159*
X0125Y01159*
X0125Y01159*
X01249Y01159*
X01249Y0116*
X01249Y0116*
X01249Y0116*
X01249Y0116*
X01248Y0116*
X01248Y01161*
X01248Y01161*
X01248Y01161*
X01248Y01161*
X01248Y01162*
X01248Y01162*
X01247Y01163*
X01247Y01163*
X01247Y01164*
X01247Y01165*
X01247Y01166*
X01247Y01166*
X01247Y01167*
Y01167*
Y01167*
Y01167*
Y01167*
X01247Y01168*
Y01168*
X01247Y01169*
X01247Y01169*
X01247Y0117*
X01247Y0117*
X01247Y01171*
X01247Y01172*
X01247Y01172*
X01248Y01173*
X01248Y01174*
X01248Y01174*
X01248Y01175*
X01249Y01175*
X01249Y01175*
X01249Y01175*
X01249Y01176*
X01249Y01176*
X01249Y01176*
X0125Y01176*
X0125Y01176*
X0125Y01176*
X0125Y01177*
X01251Y01177*
X01251Y01177*
X01252Y01177*
X01252Y01177*
X01253Y01177*
X01253Y01178*
X01254Y01178*
X01254*
X01254Y01178*
G37*
G36*
X01238Y01177D02*
X01238D01*
X01238Y01177*
X01239Y01177*
X0124Y01177*
X0124Y01177*
X01241Y01177*
X01241Y01177*
X01241*
X01241Y01177*
X01241Y01177*
X01241Y01177*
X01242Y01177*
X01242Y01176*
X01242Y01176*
X01243Y01176*
X01243Y01175*
Y01175*
X01243Y01175*
X01243Y01175*
X01243Y01175*
X01243Y01174*
X01244Y01174*
X01244Y01173*
X01244Y01173*
X01244Y01172*
Y01172*
Y01172*
Y01172*
X01244Y01172*
Y01172*
X01244Y01171*
X01244Y01171*
X01244Y0117*
X01243Y0117*
X01243Y01169*
X01243Y01169*
X01243Y01169*
X01243Y01169*
X01242Y01169*
X01242Y01169*
X01242Y01169*
X01242Y01168*
X01242Y01168*
X01242Y01168*
X01242Y01168*
X01241Y01168*
X01241Y01168*
X01241Y01168*
X0124Y01167*
X0124Y01167*
X01239Y01167*
X01239Y01167*
X01238Y01167*
X01239Y01167*
X01239Y01167*
X01239Y01167*
X01239Y01167*
X0124Y01166*
X0124Y01166*
X0124Y01166*
X0124Y01166*
X0124Y01166*
X0124Y01166*
X01241Y01165*
X01241Y01165*
X01241Y01165*
X01242Y01164*
X01242Y01163*
X01245Y01158*
X01242*
X0124Y01162*
Y01162*
X0124Y01162*
X0124Y01162*
X0124Y01163*
X01239Y01163*
X01239Y01163*
X01239Y01164*
X01238Y01164*
X01238Y01165*
X01238Y01165*
X01238Y01165*
X01238Y01165*
X01238Y01165*
X01237Y01165*
X01237Y01166*
X01237Y01166*
X01237Y01166*
X01237Y01166*
X01236Y01166*
X01236Y01166*
X01236Y01166*
X01236Y01166*
X01236Y01167*
X01235Y01167*
X01235*
X01235Y01167*
X01235*
X01235Y01167*
X01235Y01167*
X01235*
X01234Y01167*
X01231*
Y01158*
X01229*
Y01177*
X01237*
X01238Y01177*
G37*
G36*
X00781Y01062D02*
X00773D01*
X00772Y01057*
X00772Y01057*
X00772Y01057*
X00773Y01057*
X00773Y01057*
X00773Y01057*
X00773Y01057*
X00774Y01057*
X00774Y01057*
X00775Y01058*
X00775Y01058*
X00776Y01058*
X00776*
X00776Y01058*
X00777Y01058*
X00777Y01058*
X00777Y01058*
X00778Y01058*
X00778Y01057*
X00779Y01057*
X00779Y01057*
X00779Y01057*
X0078Y01057*
X0078Y01056*
X0078Y01056*
X0078Y01056*
X0078Y01056*
X0078Y01056*
X00781Y01056*
X00781Y01056*
X00781Y01055*
X00781Y01055*
X00781Y01055*
X00781Y01055*
X00781Y01054*
X00782Y01054*
X00782Y01053*
X00782Y01053*
X00782Y01053*
X00782Y01052*
X00782Y01052*
Y01052*
Y01051*
Y01051*
X00782Y01051*
X00782Y01051*
X00782Y01051*
X00782Y0105*
X00782Y0105*
X00782Y01049*
X00781Y01049*
X00781Y01048*
X00781Y01048*
X00781Y01047*
X00781Y01047*
X0078Y01047*
X0078Y01047*
X0078Y01047*
X0078Y01047*
X0078Y01047*
X0078Y01046*
X00779Y01046*
X00779Y01046*
X00779Y01046*
X00778Y01045*
X00778Y01045*
X00778Y01045*
X00777Y01045*
X00777Y01045*
X00776Y01045*
X00775Y01045*
X00775*
X00775Y01045*
X00775Y01045*
X00775Y01045*
X00774Y01045*
X00774Y01045*
X00773Y01045*
X00773Y01045*
X00772Y01046*
X00772Y01046*
X00772Y01046*
X00771Y01046*
X00771Y01046*
X00771Y01046*
X00771Y01046*
X00771Y01046*
X00771Y01047*
X00771Y01047*
X0077Y01047*
X0077Y01047*
X0077Y01047*
X0077Y01048*
X0077Y01048*
X00769Y01049*
X00769Y0105*
X00769Y0105*
X00772Y0105*
Y0105*
Y0105*
X00772Y0105*
X00772Y0105*
X00772Y0105*
X00772Y01049*
X00772Y01049*
X00772Y01048*
X00773Y01048*
X00773Y01048*
X00773Y01048*
X00773Y01047*
X00773Y01047*
X00774Y01047*
X00774Y01047*
X00774Y01047*
X00775Y01047*
X00775Y01047*
X00776*
X00776Y01047*
X00776Y01047*
X00776Y01047*
X00777Y01047*
X00777Y01047*
X00778Y01048*
X00778Y01048*
X00778Y01048*
X00778Y01048*
X00778Y01048*
X00778Y01048*
X00779Y01048*
X00779Y01048*
X00779Y01049*
X00779Y01049*
X00779Y0105*
X00779Y01051*
X0078Y01051*
Y01051*
Y01051*
Y01051*
Y01052*
X0078Y01052*
Y01052*
X00779Y01052*
X00779Y01053*
X00779Y01053*
X00779Y01054*
X00779Y01054*
X00778Y01055*
Y01055*
X00778Y01055*
X00778Y01055*
X00778Y01055*
X00778Y01055*
X00777Y01055*
X00777Y01056*
X00776Y01056*
X00776Y01056*
X00775*
X00775Y01056*
X00775Y01056*
X00774Y01056*
X00774Y01055*
X00774Y01055*
X00773Y01055*
X00773Y01055*
X00773Y01055*
X00773Y01055*
X00773Y01055*
X00773Y01055*
X00772Y01054*
X00772Y01054*
X00772Y01054*
X0077Y01054*
X00772Y01064*
X00781*
Y01062*
G37*
G36*
X0076Y01064D02*
X0076D01*
X00761Y01064*
X00762Y01064*
X00762Y01064*
X00763Y01064*
X00763Y01064*
X00763Y01064*
X00763*
X00763Y01064*
X00764Y01064*
X00764Y01064*
X00764Y01063*
X00764Y01063*
X00765Y01063*
X00765Y01062*
X00765Y01062*
Y01062*
X00766Y01062*
X00766Y01062*
X00766Y01061*
X00766Y01061*
X00766Y01061*
X00766Y0106*
X00766Y0106*
X00766Y01059*
Y01059*
Y01059*
Y01059*
X00766Y01059*
Y01058*
X00766Y01058*
X00766Y01058*
X00766Y01057*
X00766Y01057*
X00765Y01056*
X00765Y01056*
X00765Y01056*
X00765Y01056*
X00765Y01055*
X00765Y01055*
X00765Y01055*
X00765Y01055*
X00764Y01055*
X00764Y01055*
X00764Y01055*
X00764Y01055*
X00763Y01055*
X00763Y01054*
X00763Y01054*
X00762Y01054*
X00762Y01054*
X00761Y01054*
X00761Y01054*
X00761Y01054*
X00761Y01054*
X00761Y01054*
X00761Y01054*
X00762Y01053*
X00762Y01053*
X00762Y01053*
X00762Y01053*
X00763Y01053*
X00763Y01052*
X00763Y01052*
X00763Y01052*
X00764Y01051*
X00764Y01051*
X00765Y0105*
X00768Y01045*
X00765*
X00762Y01049*
Y01049*
X00762Y01049*
X00762Y01049*
X00762Y01049*
X00762Y0105*
X00762Y0105*
X00761Y0105*
X00761Y01051*
X00761Y01051*
X0076Y01052*
X0076Y01052*
X0076Y01052*
X0076Y01052*
X0076Y01052*
X00759Y01053*
X00759Y01053*
X00759Y01053*
X00759Y01053*
X00759Y01053*
X00759Y01053*
X00759Y01053*
X00758Y01053*
X00758Y01053*
X00758Y01053*
X00758*
X00758Y01054*
X00758*
X00758Y01054*
X00757Y01054*
X00757*
X00757Y01054*
X00754*
Y01045*
X00751*
Y01064*
X0076*
X0076Y01064*
G37*
G36*
X00782Y00901D02*
X00785D01*
Y00899*
X00782*
Y00894*
X0078*
Y00899*
X00771*
Y00901*
X0078Y00913*
X00782*
Y00901*
G37*
G36*
X00763Y00913D02*
X00763D01*
X00764Y00913*
X00764Y00913*
X00765Y00913*
X00766Y00913*
X00766Y00913*
X00766Y00913*
X00766*
X00766Y00913*
X00766Y00912*
X00767Y00912*
X00767Y00912*
X00767Y00912*
X00768Y00912*
X00768Y00911*
X00768Y00911*
Y00911*
X00768Y00911*
X00768Y00911*
X00769Y0091*
X00769Y0091*
X00769Y00909*
X00769Y00909*
X00769Y00908*
X00769Y00908*
Y00908*
Y00908*
Y00908*
X00769Y00908*
Y00907*
X00769Y00907*
X00769Y00907*
X00769Y00906*
X00769Y00906*
X00768Y00905*
X00768Y00905*
X00768Y00904*
X00768Y00904*
X00768Y00904*
X00768Y00904*
X00767Y00904*
X00767Y00904*
X00767Y00904*
X00767Y00904*
X00767Y00904*
X00766Y00904*
X00766Y00903*
X00766Y00903*
X00765Y00903*
X00765Y00903*
X00765Y00903*
X00764Y00903*
X00764Y00903*
X00764Y00903*
X00764Y00903*
X00764Y00902*
X00764Y00902*
X00765Y00902*
X00765Y00902*
X00765Y00902*
X00765Y00902*
X00765Y00901*
X00766Y00901*
X00766Y00901*
X00766Y00901*
X00767Y009*
X00767Y009*
X00767Y00899*
X00771Y00894*
X00767*
X00765Y00898*
Y00898*
X00765Y00898*
X00765Y00898*
X00765Y00898*
X00765Y00898*
X00764Y00899*
X00764Y00899*
X00764Y009*
X00763Y009*
X00763Y00901*
X00763Y00901*
X00763Y00901*
X00763Y00901*
X00763Y00901*
X00762Y00901*
X00762Y00902*
X00762Y00902*
X00762Y00902*
X00762Y00902*
X00762Y00902*
X00761Y00902*
X00761Y00902*
X00761Y00902*
X00761Y00902*
X00761*
X00761Y00902*
X0076*
X0076Y00902*
X0076Y00902*
X0076*
X0076Y00902*
X00756*
Y00894*
X00754*
Y00913*
X00763*
X00763Y00913*
G37*
G36*
X01031Y00681D02*
X01031Y00681D01*
X01032Y00681*
X01032Y0068*
X01033Y0068*
X01033Y0068*
X01033*
X01033Y0068*
X01033Y0068*
X01034Y0068*
X01034Y0068*
X01034Y00679*
X01035Y00679*
X01035Y00679*
X01035Y00678*
X01035Y00678*
X01035Y00678*
X01035Y00678*
X01035Y00677*
X01036Y00677*
X01036Y00677*
X01036Y00676*
X01036Y00676*
Y00676*
Y00676*
X01036Y00675*
X01036Y00675*
X01036Y00675*
X01036Y00674*
X01035Y00674*
X01035Y00673*
X01035Y00673*
X01035Y00673*
X01035Y00673*
X01035Y00673*
X01034Y00673*
X01034Y00672*
X01034Y00672*
X01033Y00672*
X01033*
X01033Y00672*
X01033Y00672*
X01033Y00672*
X01034Y00672*
X01034Y00672*
X01035Y00671*
X01035Y00671*
X01035Y00671*
X01036Y0067*
X01036Y0067*
X01036Y0067*
X01036Y0067*
X01036Y00669*
X01036Y00669*
X01037Y00668*
X01037Y00668*
X01037Y00667*
Y00667*
Y00667*
Y00667*
X01037Y00667*
X01037Y00666*
X01037Y00666*
X01037Y00666*
X01037Y00666*
X01036Y00665*
X01036Y00665*
X01036Y00664*
X01036Y00664*
X01036Y00664*
X01035Y00663*
X01035Y00663*
X01035Y00663*
X01035Y00663*
X01035Y00663*
X01035Y00663*
X01034Y00662*
X01034Y00662*
X01034Y00662*
X01034Y00662*
X01033Y00662*
X01033Y00662*
X01033Y00662*
X01032Y00661*
X01032Y00661*
X01031Y00661*
X01031Y00661*
X0103Y00661*
X0103*
X0103Y00661*
X0103Y00661*
X01029Y00661*
X01029Y00661*
X01029Y00661*
X01028Y00662*
X01027Y00662*
X01027Y00662*
X01027Y00662*
X01026Y00662*
X01026Y00663*
X01026Y00663*
X01026Y00663*
X01026Y00663*
X01026Y00663*
X01026Y00663*
X01026Y00663*
X01025Y00663*
X01025Y00664*
X01025Y00664*
X01025Y00664*
X01025Y00665*
X01024Y00666*
X01024Y00666*
X01024Y00667*
X01027Y00667*
Y00667*
X01027Y00667*
X01027Y00667*
X01027Y00667*
X01027Y00666*
X01027Y00666*
X01027Y00666*
X01027Y00665*
X01027Y00665*
X01028Y00664*
X01028Y00664*
X01028Y00664*
X01028Y00664*
X01028Y00664*
X01029Y00664*
X01029Y00663*
X01029Y00663*
X0103Y00663*
X0103Y00663*
X01031*
X01031Y00663*
X01031Y00663*
X01031Y00663*
X01032Y00663*
X01032Y00664*
X01033Y00664*
X01033Y00664*
X01033Y00664*
X01033Y00664*
X01034Y00665*
X01034Y00665*
X01034Y00665*
X01034Y00666*
X01034Y00666*
X01034Y00667*
Y00667*
Y00667*
Y00667*
X01034Y00667*
X01034Y00668*
X01034Y00668*
X01034Y00668*
X01034Y00669*
X01034Y00669*
X01033Y0067*
X01033Y0067*
X01033Y0067*
X01033Y0067*
X01033Y0067*
X01032Y0067*
X01032Y00671*
X01031Y00671*
X01031Y00671*
X0103*
X0103Y00671*
X0103Y00671*
X0103Y00671*
X01029Y00671*
X01029Y00671*
X01029Y00673*
X01029*
X01029Y00673*
X0103*
X0103Y00673*
X0103Y00673*
X01031Y00673*
X01031Y00673*
X01032Y00673*
X01032Y00673*
X01032*
X01032Y00673*
X01032Y00674*
X01033Y00674*
X01033Y00674*
X01033Y00674*
X01033Y00675*
X01033Y00675*
X01033Y00675*
Y00676*
Y00676*
Y00676*
Y00676*
X01033Y00676*
X01033Y00677*
X01033Y00677*
X01033Y00677*
X01033Y00678*
X01033Y00678*
X01033Y00678*
X01032Y00678*
X01032Y00678*
X01032Y00678*
X01032Y00679*
X01031Y00679*
X01031Y00679*
X0103Y00679*
X0103*
X0103Y00679*
X01029Y00679*
X01029Y00679*
X01029Y00678*
X01028Y00678*
X01028Y00678*
X01028Y00678*
X01028Y00678*
X01028Y00678*
X01028Y00677*
X01027Y00677*
X01027Y00676*
X01027Y00676*
X01027Y00675*
X01025Y00676*
Y00676*
X01025Y00676*
X01025Y00676*
X01025Y00676*
X01025Y00676*
X01025Y00677*
X01025Y00677*
X01025Y00678*
X01025Y00678*
X01026Y00679*
X01026Y00679*
X01026Y00679*
X01027Y00679*
X01027Y0068*
X01027Y0068*
X01027Y0068*
X01027Y0068*
X01027Y0068*
X01027Y0068*
X01028Y0068*
X01029Y00681*
X01029Y00681*
X0103Y00681*
X01031*
X01031Y00681*
G37*
G36*
X01015Y00681D02*
X01015D01*
X01016Y00681*
X01016Y00681*
X01017Y0068*
X01018Y0068*
X01018Y0068*
X01018Y0068*
X01018*
X01018Y0068*
X01018Y0068*
X01019Y0068*
X01019Y0068*
X01019Y00679*
X0102Y00679*
X0102Y00679*
X0102Y00678*
Y00678*
X0102Y00678*
X01021Y00678*
X01021Y00678*
X01021Y00677*
X01021Y00677*
X01021Y00677*
X01021Y00676*
X01021Y00675*
Y00675*
Y00675*
Y00675*
X01021Y00675*
Y00675*
X01021Y00675*
X01021Y00674*
X01021Y00674*
X01021Y00673*
X0102Y00672*
X0102Y00672*
X0102Y00672*
X0102Y00672*
X0102Y00672*
X0102Y00672*
X0102Y00672*
X01019Y00672*
X01019Y00672*
X01019Y00671*
X01019Y00671*
X01019Y00671*
X01018Y00671*
X01018Y00671*
X01018Y00671*
X01017Y00671*
X01017Y0067*
X01016Y0067*
X01016Y0067*
X01016Y0067*
X01016Y0067*
X01016Y0067*
X01016Y0067*
X01017Y0067*
X01017Y00669*
X01017Y00669*
X01017Y00669*
X01018Y00669*
X01018Y00669*
X01018Y00669*
X01018Y00668*
X01019Y00668*
X01019Y00667*
X01019Y00667*
X01023Y00661*
X0102*
X01017Y00665*
Y00665*
X01017Y00666*
X01017Y00666*
X01017Y00666*
X01017Y00666*
X01016Y00666*
X01016Y00667*
X01016Y00667*
X01015Y00668*
X01015Y00668*
X01015Y00668*
X01015Y00668*
X01015Y00668*
X01015Y00669*
X01014Y00669*
X01014Y00669*
X01014Y00669*
X01014Y00669*
X01014Y00669*
X01014Y00669*
X01014Y0067*
X01013Y0067*
X01013Y0067*
X01013Y0067*
X01013*
X01013Y0067*
X01013*
X01012Y0067*
X01012Y0067*
X01012*
X01012Y0067*
X01008*
Y00661*
X01006*
Y00681*
X01015*
X01015Y00681*
G37*
G36*
X00921Y00681D02*
X00921Y00681D01*
X00922Y0068*
X00922Y0068*
X00922Y0068*
X00923Y0068*
X00924Y0068*
X00924Y0068*
X00924Y0068*
X00925Y00679*
X00925Y00679*
X00925Y00679*
X00925Y00679*
X00925Y00679*
X00925Y00679*
X00925Y00679*
X00926Y00678*
X00926Y00678*
X00926Y00678*
X00926Y00677*
X00926Y00677*
X00927Y00676*
X00927Y00676*
X00927Y00676*
X00927Y00675*
Y00675*
Y00675*
X00927Y00675*
X00927Y00675*
X00927Y00674*
X00926Y00674*
X00926Y00673*
X00926Y00673*
X00926Y00673*
X00926Y00673*
X00926Y00673*
X00926Y00672*
X00926Y00672*
X00925Y00672*
X00925Y00671*
X00925Y00671*
X00925Y00671*
X00924Y0067*
X00924Y0067*
X00924Y0067*
X00924Y0067*
X00924Y0067*
X00924Y0067*
X00923Y00669*
X00923Y00669*
X00923Y00669*
X00922Y00668*
X00922Y00668*
X00921Y00668*
X00921Y00667*
X00921Y00667*
X00921Y00667*
X00921Y00667*
X00921Y00667*
X0092Y00667*
X0092Y00667*
X0092Y00666*
X00919Y00666*
X00919Y00665*
X00919Y00665*
X00918Y00665*
X00918Y00665*
X00918Y00665*
X00918Y00665*
X00918Y00665*
X00918Y00664*
X00918Y00664*
X00918Y00664*
X00917Y00664*
X00927*
Y00661*
X00914*
Y00661*
Y00661*
Y00662*
X00914Y00662*
X00914Y00662*
X00914Y00662*
X00914Y00663*
X00914Y00663*
Y00663*
X00914Y00663*
X00914Y00663*
X00914Y00663*
X00915Y00664*
X00915Y00664*
X00915Y00665*
X00915Y00665*
X00916Y00665*
Y00666*
X00916Y00666*
X00916Y00666*
X00916Y00666*
X00917Y00666*
X00917Y00667*
X00918Y00667*
X00918Y00668*
X00919Y00668*
X00919Y00668*
X00919Y00668*
X00919Y00669*
X00919Y00669*
X0092Y00669*
X0092Y00669*
X0092Y0067*
X00921Y0067*
X00921Y00671*
X00922Y00671*
X00922Y00672*
X00923Y00672*
X00923Y00672*
X00923Y00672*
Y00672*
X00923Y00672*
X00923Y00673*
X00923Y00673*
X00923Y00673*
X00924Y00673*
X00924Y00674*
X00924Y00674*
X00924Y00675*
X00924Y00675*
Y00675*
Y00675*
X00924Y00676*
X00924Y00676*
X00924Y00676*
X00924Y00676*
X00924Y00677*
X00924Y00677*
X00923Y00678*
X00923Y00678*
X00923Y00678*
X00923Y00678*
X00923Y00678*
X00922Y00678*
X00922Y00678*
X00921Y00679*
X00921Y00679*
X0092*
X0092Y00679*
X0092Y00679*
X0092Y00678*
X00919Y00678*
X00919Y00678*
X00918Y00678*
X00918Y00678*
X00918Y00678*
X00918Y00677*
X00918Y00677*
X00917Y00677*
X00917Y00676*
X00917Y00676*
X00917Y00675*
X00917Y00675*
X00914Y00675*
Y00675*
X00914Y00675*
Y00675*
X00914Y00675*
X00915Y00676*
X00915Y00676*
X00915Y00676*
X00915Y00677*
X00915Y00677*
X00915Y00678*
X00916Y00678*
X00916Y00679*
X00916Y00679*
X00916Y00679*
X00916Y00679*
X00916Y00679*
X00916Y00679*
X00917Y00679*
X00917Y00679*
X00917Y0068*
X00917Y0068*
X00917Y0068*
X00918Y0068*
X00918Y0068*
X00918Y0068*
X00919Y0068*
X00919Y0068*
X0092Y00681*
X0092Y00681*
X00921Y00681*
X00921*
X00921Y00681*
G37*
G36*
X00905Y0068D02*
X00905D01*
X00906Y0068*
X00907Y0068*
X00907Y0068*
X00908Y0068*
X00908Y0068*
X00908Y0068*
X00908*
X00908Y0068*
X00909Y0068*
X00909Y0068*
X00909Y0068*
X00909Y00679*
X0091Y00679*
X0091Y00679*
X0091Y00678*
Y00678*
X00911Y00678*
X00911Y00678*
X00911Y00678*
X00911Y00677*
X00911Y00677*
X00911Y00676*
X00911Y00676*
X00911Y00675*
Y00675*
Y00675*
Y00675*
X00911Y00675*
Y00675*
X00911Y00675*
X00911Y00674*
X00911Y00673*
X00911Y00673*
X0091Y00672*
X0091Y00672*
X0091Y00672*
X0091Y00672*
X0091Y00672*
X0091Y00672*
X0091Y00672*
X0091Y00671*
X00909Y00671*
X00909Y00671*
X00909Y00671*
X00909Y00671*
X00908Y00671*
X00908Y00671*
X00908Y0067*
X00907Y0067*
X00907Y0067*
X00906Y0067*
X00906Y0067*
X00906Y0067*
X00906Y0067*
X00906Y0067*
X00906Y0067*
X00907Y00669*
X00907Y00669*
X00907Y00669*
X00907Y00669*
X00908Y00669*
X00908Y00669*
X00908Y00668*
X00908Y00668*
X00909Y00668*
X00909Y00667*
X0091Y00667*
X00913Y00661*
X0091*
X00907Y00665*
Y00665*
X00907Y00665*
X00907Y00665*
X00907Y00666*
X00907Y00666*
X00907Y00666*
X00906Y00667*
X00906Y00667*
X00906Y00668*
X00905Y00668*
X00905Y00668*
X00905Y00668*
X00905Y00668*
X00905Y00668*
X00904Y00669*
X00904Y00669*
X00904Y00669*
X00904Y00669*
X00904Y00669*
X00904Y00669*
X00904Y00669*
X00903Y00669*
X00903Y0067*
X00903Y0067*
X00903*
X00903Y0067*
X00903*
X00903Y0067*
X00902Y0067*
X00902*
X00902Y0067*
X00899*
Y00661*
X00896*
Y0068*
X00905*
X00905Y0068*
G37*
G36*
X0128Y0095D02*
X01277D01*
Y00965*
X01277Y00965*
X01277Y00965*
X01277Y00965*
X01277Y00965*
X01276Y00964*
X01276Y00964*
X01275Y00964*
X01275Y00963*
X01275*
X01275Y00963*
X01275Y00963*
X01275Y00963*
X01274Y00963*
X01274Y00963*
X01273Y00963*
X01273Y00962*
X01273Y00962*
Y00965*
X01273*
X01273Y00965*
X01273Y00965*
X01273Y00965*
X01273Y00965*
X01273Y00965*
X01274Y00965*
X01274Y00965*
X01275Y00966*
X01275Y00966*
X01276Y00967*
X01276Y00967*
X01276Y00967*
X01276Y00967*
X01276Y00967*
X01276Y00967*
X01277Y00968*
X01277Y00968*
X01277Y00968*
X01278Y00969*
X01278Y00969*
X0128*
Y0095*
G37*
G36*
X01262Y00969D02*
X01262D01*
X01262Y00969*
X01263Y00969*
X01264Y00969*
X01264Y00969*
X01265Y00969*
X01265Y00969*
X01265*
X01265Y00969*
X01265Y00969*
X01265Y00969*
X01266Y00968*
X01266Y00968*
X01266Y00968*
X01267Y00967*
X01267Y00967*
Y00967*
X01267Y00967*
X01267Y00967*
X01267Y00966*
X01267Y00966*
X01267Y00966*
X01268Y00965*
X01268Y00965*
X01268Y00964*
Y00964*
Y00964*
Y00964*
X01268Y00964*
Y00964*
X01268Y00963*
X01268Y00963*
X01267Y00962*
X01267Y00962*
X01267Y00961*
X01267Y00961*
X01266Y00961*
X01266Y00961*
X01266Y00961*
X01266Y0096*
X01266Y0096*
X01266Y0096*
X01266Y0096*
X01266Y0096*
X01265Y0096*
X01265Y0096*
X01265Y0096*
X01264Y00959*
X01264Y00959*
X01264Y00959*
X01263Y00959*
X01263Y00959*
X01262Y00959*
X01262Y00959*
X01262Y00959*
X01263Y00959*
X01263Y00959*
X01263Y00958*
X01264Y00958*
X01264Y00958*
X01264Y00958*
X01264Y00958*
X01264Y00957*
X01265Y00957*
X01265Y00957*
X01265Y00956*
X01266Y00956*
X01266Y00955*
X01269Y0095*
X01266*
X01264Y00954*
Y00954*
X01264Y00954*
X01263Y00954*
X01263Y00954*
X01263Y00955*
X01263Y00955*
X01263Y00955*
X01262Y00956*
X01262Y00956*
X01262Y00957*
X01262Y00957*
X01262Y00957*
X01261Y00957*
X01261Y00957*
X01261Y00958*
X01261Y00958*
X0126Y00958*
X0126Y00958*
X0126Y00958*
X0126Y00958*
X0126Y00958*
X0126Y00958*
X0126Y00958*
X01259Y00959*
X01259*
X01259Y00959*
X01259*
X01259Y00959*
X01259Y00959*
X01259*
X01258Y00959*
X01255*
Y0095*
X01252*
Y00969*
X01261*
X01262Y00969*
G37*
G36*
X00215Y00893D02*
X00215D01*
X00216Y00893*
X00216Y00893*
X00217Y00893*
X00218Y00893*
X00219Y00892*
X00219Y00892*
X0022Y00892*
X0022*
X0022Y00892*
X0022Y00892*
X0022Y00892*
X0022Y00892*
X00221Y00892*
X00221Y00892*
X00222Y00891*
X00222Y00891*
X00223Y0089*
X00223Y0089*
Y0089*
X00223Y0089*
X00223Y0089*
X00223Y0089*
X00223Y00889*
X00224Y00889*
X00224Y00889*
X00224Y00889*
X00224Y00888*
X00224Y00888*
X00224Y00887*
X00224Y00886*
Y00886*
X00224Y00886*
Y00886*
X00224Y00885*
X00224Y00885*
X00224Y00884*
X00224Y00884*
X00223Y00883*
X00223Y00883*
X00223Y00882*
X00223Y00882*
X00223Y00882*
X00223Y00882*
X00223Y00882*
X00223Y00882*
X00223Y00882*
X00222Y00882*
X00222Y00881*
X00221Y00881*
X0022Y00881*
X0022Y00881*
X00219Y00883*
X00219*
X00219Y00883*
X00219*
X0022Y00883*
X0022Y00883*
X0022Y00883*
X00221Y00883*
X00221Y00884*
X00221Y00884*
X00222Y00884*
X00222Y00884*
X00222Y00884*
X00222Y00884*
X00222Y00885*
X00222Y00885*
X00222Y00885*
X00222Y00886*
X00222Y00886*
Y00886*
X00222Y00887*
X00222Y00887*
X00222Y00887*
X00222Y00887*
X00222Y00888*
X00222Y00888*
X00222Y00888*
X00222Y00888*
X00222Y00888*
X00222Y00889*
X00221Y00889*
X00221Y00889*
X00221Y00889*
X00221Y00889*
X00221Y00889*
X0022Y00889*
X0022Y0089*
X0022Y0089*
X0022Y0089*
X00219Y0089*
X00219Y0089*
X00218Y0089*
X00218*
X00218Y0089*
X00218*
X00218Y0089*
X00218Y0089*
X00217Y0089*
X00217Y00891*
X00216Y00891*
X00216Y00891*
X00215Y00891*
X00215*
X00215*
X00215*
X00215*
X00215Y00891*
X00215Y0089*
X00215Y0089*
X00216Y0089*
X00216Y0089*
X00216Y0089*
X00216Y00889*
X00217Y00889*
X00217Y00889*
X00217Y00888*
X00217Y00888*
X00217Y00888*
X00217Y00887*
X00217Y00887*
X00217Y00887*
X00217Y00886*
Y00886*
X00217Y00886*
X00217Y00885*
X00217Y00885*
X00217Y00885*
X00217Y00885*
X00217Y00884*
X00217Y00884*
X00217Y00883*
X00217Y00883*
X00216Y00883*
X00216Y00882*
X00216Y00882*
X00216Y00882*
X00216Y00882*
X00216Y00882*
X00215Y00882*
X00215Y00882*
X00215Y00881*
X00215Y00881*
X00215Y00881*
X00214Y00881*
X00214Y00881*
X00213Y00881*
X00213Y00881*
X00213Y00881*
X00212Y0088*
X00212Y0088*
X00211Y0088*
X00211*
X00211*
X00211*
X00211Y0088*
X0021Y0088*
X0021Y0088*
X0021Y00881*
X0021Y00881*
X00209Y00881*
X00208Y00881*
X00208Y00881*
X00208Y00881*
X00207Y00882*
X00207Y00882*
X00207Y00882*
X00206Y00882*
X00206Y00882*
X00206Y00882*
X00206Y00882*
X00206Y00883*
X00206Y00883*
X00206Y00883*
X00206Y00883*
X00205Y00884*
X00205Y00884*
X00205Y00885*
X00205Y00885*
X00205Y00885*
X00205Y00886*
X00205Y00886*
Y00887*
X00205Y00887*
Y00887*
X00205Y00887*
X00205Y00888*
X00205Y00888*
X00205Y00889*
X00205Y00889*
X00206Y0089*
Y0089*
X00206Y0089*
X00206Y0089*
X00206Y0089*
X00206Y0089*
X00206Y00891*
X00207Y00891*
X00207Y00891*
X00208Y00892*
X00209Y00892*
X00209*
X00209Y00892*
X00209Y00892*
X00209Y00892*
X00209Y00892*
X00209Y00892*
X0021Y00892*
X0021Y00893*
X0021Y00893*
X00211Y00893*
X00211Y00893*
X00212Y00893*
X00212Y00893*
X00213Y00893*
X00213Y00893*
X00214*
X00214*
X00214*
X00214*
X00215*
X00215Y00893*
G37*
G36*
X00224Y00876D02*
X0022Y00873D01*
X0022*
X0022Y00873*
X0022Y00873*
X0022Y00873*
X00219Y00873*
X00219Y00873*
X00219Y00872*
X00218Y00872*
X00218Y00872*
X00217Y00871*
X00217Y00871*
X00217Y00871*
X00217Y00871*
X00217Y00871*
X00216Y00871*
X00216Y0087*
X00216Y0087*
X00216Y0087*
X00216Y0087*
X00216Y0087*
X00216Y0087*
X00216Y0087*
X00216Y00869*
X00216Y00869*
Y00869*
X00216Y00869*
Y00869*
X00216Y00869*
X00215Y00868*
Y00868*
X00215Y00868*
Y00865*
X00224*
Y00862*
X00205*
Y00871*
X00205Y00871*
Y00871*
X00205Y00872*
X00205Y00873*
X00205Y00873*
X00205Y00874*
X00205Y00874*
X00205Y00874*
Y00874*
X00205Y00874*
X00205Y00875*
X00206Y00875*
X00206Y00875*
X00206Y00876*
X00206Y00876*
X00207Y00876*
X00207Y00877*
X00207*
X00207Y00877*
X00207Y00877*
X00208Y00877*
X00208Y00877*
X00208Y00877*
X00209Y00877*
X00209Y00877*
X0021Y00877*
X0021*
X0021*
X0021*
X0021Y00877*
X00211*
X00211Y00877*
X00211Y00877*
X00212Y00877*
X00212Y00877*
X00213Y00876*
X00213Y00876*
X00213Y00876*
X00214Y00876*
X00214Y00876*
X00214Y00876*
X00214Y00876*
X00214Y00876*
X00214Y00875*
X00214Y00875*
X00214Y00875*
X00214Y00875*
X00215Y00874*
X00215Y00874*
X00215Y00874*
X00215Y00873*
X00215Y00873*
X00215Y00872*
X00215Y00872*
X00215Y00872*
X00215Y00872*
X00215Y00872*
X00216Y00873*
X00216Y00873*
X00216Y00873*
X00216Y00873*
X00216Y00874*
X00216Y00874*
X00217Y00874*
X00217Y00874*
X00217Y00874*
X00218Y00875*
X00218Y00875*
X00219Y00876*
X00224Y00879*
Y00876*
G37*
G36*
X00842Y00718D02*
X0084D01*
Y00733*
X0084Y00733*
X00839Y00733*
X00839Y00733*
X00839Y00732*
X00839Y00732*
X00838Y00732*
X00838Y00732*
X00837Y00731*
X00837*
X00837Y00731*
X00837Y00731*
X00837Y00731*
X00837Y00731*
X00836Y00731*
X00836Y0073*
X00835Y0073*
X00835Y0073*
Y00732*
X00835*
X00835Y00732*
X00835Y00732*
X00835Y00732*
X00835Y00733*
X00836Y00733*
X00836Y00733*
X00837Y00733*
X00837Y00734*
X00838Y00734*
X00838Y00735*
X00838Y00735*
X00838Y00735*
X00838Y00735*
X00839Y00735*
X00839Y00735*
X00839Y00735*
X00839Y00736*
X0084Y00736*
X0084Y00737*
X0084Y00737*
X00842*
Y00718*
G37*
G36*
X00822Y0072D02*
X00831D01*
Y00718*
X00819*
Y00737*
X00822*
Y0072*
G37*
G36*
X01433Y00406D02*
X01431D01*
Y00421*
X01431Y00421*
X01431Y00421*
X01431Y00421*
X0143Y00421*
X0143Y00421*
X0143Y0042*
X01429Y0042*
X01429Y0042*
X01429*
X01429Y0042*
X01429Y0042*
X01428Y00419*
X01428Y00419*
X01428Y00419*
X01427Y00419*
X01427Y00419*
X01426Y00418*
Y00421*
X01426*
X01426Y00421*
X01427Y00421*
X01427Y00421*
X01427Y00421*
X01427Y00421*
X01428Y00421*
X01428Y00422*
X01429Y00422*
X01429Y00423*
X0143Y00423*
X0143Y00423*
X0143Y00423*
X0143Y00423*
X0143Y00423*
X0143Y00423*
X01431Y00424*
X01431Y00424*
X01431Y00425*
X01432Y00425*
X01432Y00426*
X01433*
Y00406*
G37*
G36*
X01422Y00423D02*
X01412D01*
Y00417*
X01421*
Y00415*
X01412*
Y00406*
X01409*
Y00425*
X01422*
Y00423*
G37*
G36*
X00895Y00431D02*
X00895Y00431D01*
X00895Y00431*
X00895Y00431*
X00896Y00431*
X00897Y00431*
X00897Y00431*
X00898Y00431*
X00898Y0043*
X00898Y0043*
X00899Y0043*
X00899Y0043*
X00899Y0043*
X00899Y0043*
X00899Y0043*
X00899Y00429*
X009Y00429*
X009Y00429*
X009Y00429*
X009Y00428*
X009Y00428*
X00901Y00427*
X00901Y00427*
X00901Y00427*
X00901Y00426*
X00901Y00425*
X00901Y00425*
Y00425*
X00901Y00424*
X00901Y00424*
X00901Y00424*
X00901Y00424*
X00901Y00423*
X00901Y00423*
X009Y00422*
X009Y00422*
X009Y00421*
X009Y00421*
X009Y00421*
X009Y00421*
X009Y00421*
X00899Y0042*
X00899Y0042*
X00899Y0042*
X00899Y0042*
X00899Y0042*
X00899Y0042*
X00898Y0042*
X00898Y00419*
X00897Y00419*
X00897Y00419*
X00896Y00419*
X00896Y00419*
X00896Y00421*
X00896*
X00896*
X00896Y00421*
X00896Y00421*
X00896Y00421*
X00897Y00421*
X00897Y00422*
X00897Y00422*
X00898Y00422*
X00898Y00422*
X00898Y00423*
X00898Y00423*
X00899Y00423*
X00899Y00423*
X00899Y00423*
X00899Y00424*
X00899Y00424*
X00899Y00425*
Y00425*
X00899Y00425*
X00899Y00426*
X00899Y00426*
X00899Y00426*
X00899Y00427*
X00898Y00427*
X00898Y00428*
X00898Y00428*
X00898Y00428*
X00898Y00428*
X00898Y00428*
X00898Y00428*
X00897Y00428*
X00897Y00428*
X00896Y00429*
X00896Y00429*
X00895Y00429*
X00895Y00429*
X00894*
X00894*
X00894*
X00894*
X00894Y00429*
X00894*
X00894Y00429*
X00893Y00429*
X00893Y00429*
X00892Y00429*
X00892Y00428*
X00891Y00428*
X00891*
X00891Y00428*
X00891Y00428*
X00891Y00427*
X00891Y00427*
X00891Y00427*
X0089Y00426*
X0089Y00426*
X0089Y00425*
Y00425*
X0089Y00424*
X0089Y00424*
X0089Y00424*
X0089Y00424*
X0089Y00423*
X00891Y00423*
X00891Y00423*
X00891Y00423*
X00891Y00422*
X00891Y00422*
X00891Y00422*
X00891Y00422*
X00892Y00422*
X00892Y00421*
X00892Y00419*
X00882Y00421*
Y00431*
X00884*
Y00423*
X00889Y00422*
X00889Y00422*
X00889Y00422*
X00889Y00422*
X00889Y00422*
X00889Y00422*
X00889Y00423*
X00889Y00423*
X00888Y00424*
X00888Y00424*
X00888Y00425*
X00888Y00425*
Y00426*
X00888Y00426*
X00888Y00426*
X00888Y00426*
X00888Y00427*
X00888Y00427*
X00888Y00428*
X00889Y00428*
X00889Y00428*
X00889Y00429*
X00889Y00429*
X00889Y00429*
X0089Y0043*
X0089Y0043*
X0089Y0043*
X0089Y0043*
X0089Y0043*
X0089Y0043*
X0089Y0043*
X00891Y0043*
X00891Y00431*
X00891Y00431*
X00892Y00431*
X00892Y00431*
X00892Y00431*
X00893Y00431*
X00893Y00431*
X00894Y00431*
X00894Y00431*
X00894*
X00894*
X00895*
X00895Y00431*
G37*
G36*
X00892Y00416D02*
X00892D01*
X00892Y00416*
X00893Y00416*
X00894Y00416*
X00894Y00416*
X00895Y00416*
X00895*
X00895Y00416*
X00895Y00416*
X00895Y00416*
X00896Y00416*
X00896Y00415*
X00896Y00415*
X00897Y00415*
X00897Y00415*
X00898Y00414*
X00898Y00414*
X00898Y00414*
X00898Y00414*
X00898Y00414*
X00899Y00414*
X00899Y00413*
X00899Y00413*
X00899Y00413*
X009Y00413*
X009Y00412*
X009Y00412*
X009Y00412*
X009Y00412*
X009Y00411*
X009Y00411*
X009Y0041*
Y0041*
X009Y0041*
X00901Y0041*
X00901Y0041*
X00901Y00409*
X00901Y00409*
X00901Y00409*
X00901Y00408*
X00901Y00407*
Y004*
X00882*
Y00408*
X00882Y00408*
X00882Y00409*
X00882Y00409*
X00882Y0041*
X00882Y0041*
Y0041*
X00882Y0041*
Y00411*
X00882Y00411*
X00882Y00411*
X00882Y00411*
X00882Y00412*
X00883Y00412*
X00883Y00413*
X00883Y00413*
X00883Y00413*
X00883Y00413*
X00883Y00413*
X00883Y00413*
X00884Y00414*
X00884Y00414*
X00885Y00414*
X00885Y00415*
X00886Y00415*
X00887Y00415*
X00887*
X00887Y00415*
X00887Y00416*
X00887Y00416*
X00887Y00416*
X00887Y00416*
X00888Y00416*
X00888Y00416*
X00888Y00416*
X00889Y00416*
X00889Y00416*
X0089Y00416*
X00891Y00416*
X00891*
X00891*
X00891*
X00891*
X00892Y00416*
G37*
G36*
X00516Y00449D02*
X00516Y00448D01*
X00516Y00448*
X00516Y00447*
X00516Y00446*
X00516Y00446*
Y00446*
X00516Y00446*
Y00446*
X00516Y00446*
X00516Y00445*
X00516Y00445*
X00515Y00445*
X00515Y00444*
X00515Y00444*
X00514Y00443*
X00514Y00443*
X00514Y00443*
X00514Y00443*
X00514Y00443*
X00514Y00443*
X00514Y00442*
X00513Y00442*
X00513Y00442*
X00512Y00441*
X00511Y00441*
X00511*
X00511Y00441*
X00511Y00441*
X00511Y00441*
X00511Y00441*
X0051Y00441*
X0051Y00441*
X0051Y0044*
X0051Y0044*
X00509Y0044*
X00508Y0044*
X00508Y0044*
X00507Y0044*
X00507*
X00507*
X00506*
X00506*
X00506Y0044*
X00506*
X00505Y0044*
X00505Y0044*
X00504Y0044*
X00503Y0044*
X00503Y00441*
X00503*
X00503Y00441*
X00503Y00441*
X00502Y00441*
X00502Y00441*
X00502Y00441*
X00501Y00441*
X00501Y00441*
X005Y00442*
X005Y00442*
X005Y00442*
X005Y00442*
X005Y00442*
X00499Y00442*
X00499Y00443*
X00499Y00443*
X00498Y00443*
X00498Y00444*
X00498Y00444*
X00498Y00444*
X00498Y00444*
X00498Y00444*
X00498Y00445*
X00498Y00445*
X00497Y00445*
X00497Y00446*
Y00446*
X00497Y00446*
X00497Y00446*
X00497Y00446*
X00497Y00447*
X00497Y00447*
X00497Y00448*
X00497Y00448*
X00497Y00449*
Y00456*
X00516*
Y00449*
G37*
G36*
Y0043D02*
Y00428D01*
X00504*
Y00425*
X00502*
Y00428*
X00497*
Y0043*
X00502*
Y00438*
X00504*
X00516Y0043*
G37*
G36*
X01468Y01179D02*
X01468Y01179D01*
X01469Y01179*
X01469Y01179*
X01469Y01179*
X0147Y01179*
X0147Y01179*
X01471Y01178*
X01471Y01178*
X01471Y01178*
X01472Y01178*
X01472Y01177*
X01472Y01177*
X01472Y01177*
X01472Y01177*
X01472Y01177*
X01472Y01177*
X01473Y01177*
X01473Y01176*
X01473Y01176*
X01473Y01176*
X01473Y01175*
X01473Y01175*
X01474Y01175*
X01474Y01174*
X01474Y01174*
X01474Y01173*
X01474Y01173*
Y01172*
X01474Y01172*
X01474Y01172*
X01474Y01172*
X01474Y01172*
X01474Y01171*
X01473Y01171*
X01473Y0117*
X01473Y0117*
X01473Y01169*
X01473Y01169*
X01472Y01169*
X01472Y01169*
X01472Y01168*
X01472Y01168*
X01472Y01168*
X01472Y01168*
X01472Y01168*
X01471Y01168*
X01471Y01168*
X01471Y01168*
X01471Y01167*
X0147Y01167*
X01469Y01167*
X01469Y01167*
X01468Y01167*
X01468Y01169*
X01468*
X01468Y01169*
X01468Y01169*
X01468Y01169*
X01469Y01169*
X01469Y01169*
X01469Y01169*
X0147Y0117*
X0147Y0117*
X01471Y0117*
X01471Y0117*
X01471Y0117*
X01471Y01171*
X01471Y01171*
X01471Y01171*
X01472Y01171*
X01472Y01172*
X01472Y01172*
X01472Y01173*
Y01173*
X01472Y01173*
X01472Y01173*
X01472Y01174*
X01472Y01174*
X01471Y01175*
X01471Y01175*
X01471Y01176*
X01471Y01176*
X0147Y01176*
X0147Y01176*
X0147Y01176*
X01469Y01176*
X01469Y01177*
X01468Y01177*
X01468Y01177*
X01468*
X01468*
X01468*
X01468Y01177*
X01467Y01177*
X01467Y01177*
X01466Y01176*
X01466Y01176*
X01466Y01176*
X01465Y01176*
X01465Y01176*
X01465Y01175*
X01465Y01175*
X01465Y01175*
X01464Y01175*
X01464Y01174*
X01464Y01174*
X01464Y01173*
Y01173*
X01464Y01173*
X01464Y01172*
X01464Y01172*
X01464Y01172*
X01464Y01171*
X01462Y01172*
Y01172*
X01462Y01172*
Y01172*
X01462Y01172*
X01462Y01173*
X01462Y01173*
X01462Y01174*
X01462Y01174*
X01462Y01175*
Y01175*
X01462Y01175*
X01461Y01175*
X01461Y01175*
X01461Y01175*
X01461Y01175*
X0146Y01176*
X0146Y01176*
X01459Y01176*
X01459*
X01459*
X01459*
X01459*
X01459Y01176*
X01458Y01176*
X01458Y01176*
X01458Y01176*
X01457Y01175*
X01457Y01175*
X01457Y01175*
X01457Y01175*
X01457Y01175*
X01457Y01174*
X01456Y01174*
X01456Y01174*
X01456Y01173*
X01456Y01173*
Y01172*
X01456Y01172*
X01456Y01172*
X01456Y01172*
X01457Y01171*
X01457Y01171*
X01457Y0117*
X01457Y0117*
X01457Y0117*
X01457Y0117*
X01458Y0117*
X01458Y0117*
X01458Y0117*
X01459Y01169*
X0146Y01169*
X01459Y01167*
X01459*
X01459Y01167*
X01459Y01167*
X01459Y01167*
X01459Y01167*
X01458Y01167*
X01458Y01167*
X01457Y01168*
X01457Y01168*
X01456Y01168*
X01456Y01169*
X01455Y01169*
X01455Y01169*
X01455Y01169*
X01455Y01169*
X01455Y01169*
X01455Y01169*
X01455Y0117*
X01455Y0117*
X01455Y0117*
X01454Y01171*
X01454Y01172*
X01454Y01172*
Y01173*
X01454Y01173*
X01454Y01174*
X01454Y01174*
X01455Y01175*
X01455Y01175*
X01455Y01176*
Y01176*
X01455Y01176*
X01455Y01176*
X01455Y01176*
X01455Y01176*
X01456Y01177*
X01456Y01177*
X01456Y01177*
X01457Y01178*
X01457Y01178*
X01457Y01178*
X01457Y01178*
X01457Y01178*
X01458Y01178*
X01458Y01178*
X01459Y01178*
X01459Y01178*
X01459*
X01459*
X0146Y01178*
X0146Y01178*
X0146Y01178*
X01461Y01178*
X01461Y01178*
X01461Y01178*
X01462Y01178*
X01462Y01177*
X01462Y01177*
X01462Y01177*
X01462Y01177*
X01463Y01176*
X01463Y01176*
X01463Y01176*
Y01176*
X01463Y01176*
X01463Y01176*
X01463Y01176*
X01463Y01176*
X01463Y01177*
X01464Y01177*
X01464Y01177*
X01464Y01178*
X01465Y01178*
X01465Y01178*
X01465Y01178*
X01465Y01179*
X01466Y01179*
X01466Y01179*
X01467Y01179*
X01467Y01179*
X01468Y01179*
X01468*
X01468*
X01468*
X01468Y01179*
G37*
G36*
X01464Y01164D02*
X01465D01*
X01465Y01164*
X01466Y01164*
X01466Y01164*
X01467Y01164*
X01468Y01164*
X01468*
X01468Y01164*
X01468Y01164*
X01468Y01164*
X01468Y01163*
X01469Y01163*
X01469Y01163*
X0147Y01163*
X0147Y01163*
X0147Y01162*
X0147Y01162*
X01471Y01162*
X01471Y01162*
X01471Y01162*
X01471Y01162*
X01472Y01161*
X01472Y01161*
X01472Y01161*
X01472Y0116*
X01472Y0116*
X01472Y0116*
X01473Y0116*
X01473Y0116*
X01473Y01159*
X01473Y01159*
X01473Y01158*
Y01158*
X01473Y01158*
X01473Y01158*
X01473Y01158*
X01473Y01157*
X01473Y01157*
X01473Y01156*
X01473Y01156*
X01473Y01155*
Y01148*
X01454*
Y01156*
X01454Y01156*
X01454Y01157*
X01454Y01157*
X01454Y01158*
X01455Y01158*
Y01158*
X01455Y01158*
Y01158*
X01455Y01159*
X01455Y01159*
X01455Y01159*
X01455Y0116*
X01455Y0116*
X01456Y01161*
X01456Y01161*
X01456Y01161*
X01456Y01161*
X01456Y01161*
X01456Y01161*
X01456Y01162*
X01457Y01162*
X01457Y01162*
X01458Y01163*
X01458Y01163*
X01459Y01163*
X01459*
X01459Y01163*
X01459Y01163*
X0146Y01163*
X0146Y01164*
X0146Y01164*
X0146Y01164*
X01461Y01164*
X01461Y01164*
X01461Y01164*
X01462Y01164*
X01463Y01164*
X01464Y01164*
X01464*
X01464*
X01464*
X01464*
X01464Y01164*
G37*
G36*
X00222Y00695D02*
X00222D01*
X00222*
X00222*
X00222Y00695*
X00221Y00695*
X00221Y00695*
X00221Y00695*
X0022Y00695*
X0022*
X0022Y00695*
X0022Y00696*
X0022Y00696*
X0022Y00696*
X00219Y00696*
X00219Y00696*
X00218Y00697*
X00218Y00697*
X00218*
X00218Y00697*
X00218Y00697*
X00217Y00697*
X00217Y00698*
X00217Y00698*
X00216Y00699*
X00216Y00699*
X00215Y007*
X00215Y007*
X00215Y007*
X00215Y007*
X00215Y00701*
X00214Y00701*
X00214Y00701*
X00214Y00701*
X00214Y00702*
X00213Y00702*
X00212Y00703*
X00212Y00703*
X00212Y00704*
X00211Y00704*
X00211Y00704*
X00211*
X00211Y00704*
X00211Y00704*
X00211Y00704*
X0021Y00705*
X0021Y00705*
X0021Y00705*
X00209Y00705*
X00209Y00705*
X00208Y00705*
X00208*
X00208*
X00208Y00705*
X00208Y00705*
X00207Y00705*
X00207Y00705*
X00207Y00705*
X00206Y00705*
X00206Y00704*
X00206Y00704*
X00206Y00704*
X00205Y00704*
X00205Y00704*
X00205Y00703*
X00205Y00703*
X00205Y00702*
X00205Y00702*
Y00702*
X00205Y00702*
X00205Y00701*
X00205Y00701*
X00205Y007*
X00205Y007*
X00206Y00699*
X00206Y00699*
X00206Y00699*
X00206Y00699*
X00206Y00699*
X00207Y00699*
X00207Y00698*
X00207Y00698*
X00208Y00698*
X00209Y00698*
X00208Y00696*
X00208*
X00208Y00696*
X00208*
X00208Y00696*
X00208Y00696*
X00208Y00696*
X00207Y00696*
X00207Y00696*
X00206Y00696*
X00206Y00696*
X00205Y00697*
X00205Y00697*
X00205Y00697*
X00204Y00697*
X00204Y00697*
X00204Y00698*
X00204Y00698*
X00204Y00698*
X00204Y00698*
X00204Y00698*
X00204Y00698*
X00204Y00699*
X00203Y00699*
X00203Y00699*
X00203Y007*
X00203Y007*
X00203Y007*
X00203Y00701*
X00203Y00701*
X00203Y00702*
Y00702*
X00203Y00702*
X00203Y00703*
X00203Y00703*
X00203Y00703*
X00203Y00703*
X00203Y00704*
X00204Y00705*
X00204Y00705*
X00204Y00706*
X00204Y00706*
X00204Y00706*
X00204Y00706*
X00204Y00706*
X00205Y00706*
X00205Y00706*
X00205Y00707*
X00205Y00707*
X00205Y00707*
X00205Y00707*
X00206Y00707*
X00207Y00708*
X00207Y00708*
X00207Y00708*
X00208Y00708*
X00208Y00708*
X00208*
X00208*
X00209Y00708*
X00209Y00708*
X00209Y00708*
X0021Y00708*
X0021Y00708*
X0021Y00707*
X00211Y00707*
X00211Y00707*
X00211Y00707*
X00211Y00707*
X00212Y00707*
X00212Y00706*
X00212Y00706*
X00213Y00706*
X00213Y00706*
X00213Y00706*
X00213Y00705*
X00213Y00705*
X00213Y00705*
X00214Y00705*
X00214Y00705*
X00214Y00704*
X00214Y00704*
X00215Y00704*
X00215Y00703*
X00215Y00703*
X00216Y00703*
X00216Y00702*
X00216Y00702*
X00216Y00702*
X00216Y00702*
X00216Y00702*
X00217Y00702*
X00217Y00701*
X00217Y00701*
X00218Y00701*
X00218Y007*
X00218Y007*
X00218Y007*
X00219Y00699*
X00219Y00699*
X00219Y00699*
X00219Y00699*
X00219Y00699*
X00219Y00699*
X00219Y00699*
X0022Y00698*
Y00708*
X00222*
Y00695*
G37*
G36*
X00213Y00693D02*
X00213D01*
X00214Y00693*
X00214Y00693*
X00215Y00693*
X00216Y00693*
X00216Y00692*
X00216*
X00216Y00692*
X00217Y00692*
X00217Y00692*
X00217Y00692*
X00217Y00692*
X00218Y00692*
X00218Y00692*
X00219Y00691*
X00219Y00691*
X00219Y00691*
X00219Y00691*
X00219Y00691*
X0022Y00691*
X0022Y0069*
X0022Y0069*
X00221Y0069*
X00221Y00689*
X00221Y00689*
X00221Y00689*
X00221Y00689*
X00221Y00689*
X00221Y00688*
X00222Y00688*
X00222Y00688*
X00222Y00687*
Y00687*
X00222Y00687*
X00222Y00687*
X00222Y00687*
X00222Y00686*
X00222Y00686*
X00222Y00685*
X00222Y00685*
X00222Y00684*
Y00677*
X00203*
Y00684*
X00203Y00685*
X00203Y00686*
X00203Y00686*
X00203Y00687*
X00203Y00687*
Y00687*
X00203Y00687*
Y00687*
X00203Y00687*
X00203Y00688*
X00204Y00688*
X00204Y00689*
X00204Y00689*
X00204Y00689*
X00205Y0069*
X00205Y0069*
X00205Y0069*
X00205Y0069*
X00205Y0069*
X00205Y0069*
X00206Y00691*
X00206Y00691*
X00207Y00692*
X00207Y00692*
X00208Y00692*
X00208*
X00208Y00692*
X00208Y00692*
X00208Y00692*
X00208Y00692*
X00209Y00692*
X00209Y00693*
X00209Y00693*
X0021Y00693*
X0021Y00693*
X00211Y00693*
X00212Y00693*
X00212Y00693*
X00212*
X00213*
X00213*
X00213*
X00213Y00693*
G37*
G36*
X0036Y0064D02*
X00358D01*
Y00655*
X00358Y00655*
X00358Y00655*
X00357Y00655*
X00357Y00654*
X00357Y00654*
X00356Y00654*
X00356Y00654*
X00356Y00653*
X00355*
X00355Y00653*
X00355Y00653*
X00355Y00653*
X00355Y00653*
X00354Y00653*
X00354Y00652*
X00353Y00652*
X00353Y00652*
Y00654*
X00353*
X00353Y00654*
X00353Y00654*
X00353Y00654*
X00354Y00655*
X00354Y00655*
X00354Y00655*
X00355Y00655*
X00355Y00656*
X00356Y00656*
X00356Y00657*
X00357Y00657*
X00357Y00657*
X00357Y00657*
X00357Y00657*
X00357Y00657*
X00357Y00657*
X00358Y00658*
X00358Y00658*
X00358Y00659*
X00359Y00659*
X0036*
Y0064*
G37*
G36*
X00341Y00659D02*
X00341Y00659D01*
X00342Y00659*
X00342Y00659*
X00343Y00659*
X00343*
X00343Y00659*
X00343*
X00343Y00659*
X00343Y00659*
X00344Y00658*
X00344Y00658*
X00345Y00658*
X00345Y00658*
X00346Y00657*
X00346Y00657*
X00346Y00657*
X00346Y00657*
X00346Y00657*
X00346Y00657*
X00347Y00656*
X00347Y00656*
X00347Y00655*
X00348Y00655*
X00348Y00654*
Y00654*
X00348Y00654*
X00348Y00654*
X00348Y00654*
X00348Y00654*
X00348Y00653*
X00348Y00653*
X00348Y00653*
X00348Y00652*
X00348Y00652*
X00349Y00651*
X00349Y0065*
X00349Y0065*
Y0065*
Y00649*
Y00649*
Y00649*
X00349Y00649*
Y00649*
X00349Y00648*
X00349Y00648*
X00349Y00647*
X00348Y00646*
X00348Y00646*
Y00646*
X00348Y00646*
X00348Y00645*
X00348Y00645*
X00348Y00645*
X00348Y00645*
X00348Y00644*
X00347Y00644*
X00347Y00643*
X00347Y00643*
X00347Y00643*
X00347Y00643*
X00347Y00643*
X00346Y00642*
X00346Y00642*
X00346Y00642*
X00346Y00641*
X00345Y00641*
X00345Y00641*
X00345Y00641*
X00345Y00641*
X00345Y00641*
X00344Y00641*
X00344Y0064*
X00343Y0064*
X00343Y0064*
X00343*
X00343Y0064*
X00343Y0064*
X00342Y0064*
X00342Y0064*
X00342Y0064*
X00341Y0064*
X0034Y0064*
X0034Y0064*
X00333*
Y00659*
X0034*
X00341Y00659*
G37*
G36*
X01218Y0082D02*
X01218Y0082D01*
X01219Y0082*
X01219Y0082*
X01219Y0082*
X0122Y0082*
X01221Y0082*
X01221Y0082*
X01222Y00819*
X01222Y00819*
X01223Y00819*
X01223Y00819*
X01223Y00819*
X01223Y00819*
X01223Y00819*
X01223Y00819*
X01223Y00818*
X01223Y00818*
X01224Y00818*
X01224Y00818*
X01224Y00817*
X01224Y00817*
X01225Y00817*
X01225Y00816*
X01225Y00816*
X01225Y00815*
X01225Y00815*
X01223Y00814*
Y00814*
X01223Y00814*
X01223Y00814*
X01223Y00815*
X01223Y00815*
X01223Y00815*
X01222Y00815*
X01222Y00816*
X01222Y00816*
X01221Y00817*
X01221Y00817*
X01221Y00817*
X01221Y00817*
X0122Y00818*
X0122Y00818*
X0122Y00818*
X01219Y00818*
X01218Y00818*
X01218Y00818*
X01217*
X01217Y00818*
X01217*
X01217Y00818*
X01216Y00818*
X01216Y00818*
X01215Y00818*
X01215Y00818*
X01214Y00817*
X01214*
X01214Y00817*
X01214Y00817*
X01213Y00817*
X01213Y00816*
X01213Y00816*
X01212Y00816*
X01212Y00815*
X01212Y00814*
Y00814*
X01212Y00814*
X01212Y00814*
X01212Y00814*
X01212Y00814*
X01212Y00814*
X01212Y00813*
X01211Y00813*
X01211Y00812*
X01211Y00811*
X01211Y00811*
Y00811*
Y00811*
Y0081*
Y0081*
X01211Y0081*
Y0081*
X01211Y0081*
X01211Y00809*
X01211Y00809*
X01212Y00808*
X01212Y00807*
X01212Y00806*
Y00806*
X01212Y00806*
X01212Y00806*
X01212Y00806*
X01212Y00806*
X01213Y00805*
X01213Y00805*
X01213Y00804*
X01214Y00804*
X01214Y00804*
X01214*
X01214Y00804*
X01214Y00804*
X01214Y00803*
X01215Y00803*
X01215Y00803*
X01215Y00803*
X01216Y00803*
X01216Y00803*
X01217Y00803*
X01217Y00803*
X01218*
X01218Y00803*
X01218*
X01218Y00803*
X01219Y00803*
X01219Y00803*
X0122Y00803*
X0122Y00804*
X01221Y00804*
X01221Y00804*
X01221Y00804*
X01221Y00804*
X01221Y00804*
X01221Y00804*
X01221Y00804*
X01222Y00804*
X01222Y00805*
X01222Y00805*
X01222Y00805*
X01222Y00805*
X01222Y00806*
X01223Y00806*
X01223Y00806*
X01223Y00807*
X01223Y00807*
X01223Y00808*
X01226Y00807*
Y00807*
X01226Y00807*
X01226Y00807*
X01225Y00806*
X01225Y00806*
X01225Y00806*
X01225Y00806*
X01225Y00805*
X01225Y00804*
X01224Y00804*
X01224Y00803*
X01223Y00803*
X01223Y00803*
X01223Y00802*
X01223Y00802*
X01223Y00802*
X01223Y00802*
X01222Y00802*
X01222Y00802*
X01222Y00802*
X01222Y00802*
X01221Y00801*
X01221Y00801*
X01221Y00801*
X0122Y00801*
X0122Y00801*
X01219Y00801*
X01219Y00801*
X01218Y00801*
X01218Y00801*
X01217*
X01217Y00801*
X01217*
X01217Y00801*
X01216Y00801*
X01216Y00801*
X01215Y00801*
X01214Y00801*
X01213Y00801*
X01213Y00802*
X01213Y00802*
X01213Y00802*
X01213Y00802*
X01212Y00802*
X01212Y00802*
X01212Y00802*
X01212Y00802*
X01212Y00803*
X01212Y00803*
X01211Y00803*
X01211Y00803*
X01211Y00804*
X0121Y00805*
X0121Y00805*
Y00806*
X0121Y00806*
X0121Y00806*
X0121Y00806*
X01209Y00806*
X01209Y00806*
X01209Y00807*
X01209Y00807*
X01209Y00807*
X01209Y00808*
X01209Y00809*
X01209Y0081*
X01209Y00811*
Y00811*
Y00811*
Y00811*
X01209Y00811*
Y00811*
X01209Y00812*
X01209Y00812*
X01209Y00812*
X01209Y00813*
X01209Y00814*
X01209Y00815*
X0121Y00816*
X0121Y00816*
X0121Y00816*
X0121Y00816*
X0121Y00816*
X0121Y00816*
X0121Y00817*
X01211Y00817*
X01211Y00818*
X01212Y00818*
X01212Y00819*
X01213Y00819*
X01213Y00819*
X01213Y00819*
X01213Y00819*
X01213Y00819*
X01214Y0082*
X01214Y0082*
X01214Y0082*
X01214Y0082*
X01215Y0082*
X01215Y0082*
X01216Y0082*
X01217Y0082*
X01218Y0082*
X01218*
X01218Y0082*
G37*
G36*
X01238Y00808D02*
X0124D01*
Y00806*
X01238*
Y00801*
X01235*
Y00806*
X01227*
Y00808*
X01236Y0082*
X01238*
Y00808*
G37*
G36*
X01175Y00426D02*
X01175Y00426D01*
X01176Y00426*
X01176Y00426*
X01176Y00426*
X01177Y00425*
X01178Y00425*
X01178Y00425*
X01179Y00425*
X01179Y00425*
X01179Y00424*
X01179Y00424*
X01179Y00424*
X0118Y00424*
X0118Y00424*
X0118Y00424*
X0118Y00424*
X0118Y00424*
X0118Y00423*
X01181Y00423*
X01181Y00423*
X01181Y00422*
X01181Y00422*
X01182Y00422*
X01182Y00421*
X01182Y00421*
X01182Y0042*
X0118Y0042*
Y0042*
X0118Y0042*
X0118Y0042*
X01179Y0042*
X01179Y0042*
X01179Y0042*
X01179Y00421*
X01179Y00421*
X01179Y00422*
X01178Y00422*
X01178Y00423*
X01178Y00423*
X01177Y00423*
X01177Y00423*
X01177Y00423*
X01176Y00423*
X01176Y00424*
X01175Y00424*
X01174Y00424*
X01174*
X01174Y00424*
X01174*
X01174Y00424*
X01173Y00424*
X01173Y00423*
X01172Y00423*
X01171Y00423*
X01171Y00423*
X01171*
X01171Y00423*
X01171Y00422*
X0117Y00422*
X0117Y00422*
X0117Y00421*
X01169Y00421*
X01169Y0042*
X01169Y0042*
Y0042*
X01169Y0042*
X01169Y0042*
X01169Y00419*
X01169Y00419*
X01168Y00419*
X01168Y00419*
X01168Y00418*
X01168Y00417*
X01168Y00417*
X01168Y00416*
Y00416*
Y00416*
Y00416*
Y00416*
X01168Y00415*
Y00415*
X01168Y00415*
X01168Y00415*
X01168Y00414*
X01168Y00413*
X01169Y00413*
X01169Y00412*
Y00412*
X01169Y00412*
X01169Y00412*
X01169Y00412*
X01169Y00411*
X01169Y00411*
X0117Y0041*
X0117Y0041*
X0117Y00409*
X01171Y00409*
X01171*
X01171Y00409*
X01171Y00409*
X01171Y00409*
X01171Y00409*
X01172Y00409*
X01172Y00409*
X01172Y00408*
X01173Y00408*
X01174Y00408*
X01174Y00408*
X01174*
X01175Y00408*
X01175*
X01175Y00408*
X01176Y00408*
X01176Y00408*
X01177Y00409*
X01177Y00409*
X01178Y00409*
X01178Y00409*
X01178Y00409*
X01178Y00409*
X01178Y0041*
X01178Y0041*
X01178Y0041*
X01178Y0041*
X01179Y0041*
X01179Y0041*
X01179Y00411*
X01179Y00411*
X01179Y00411*
X01179Y00411*
X0118Y00412*
X0118Y00412*
X0118Y00413*
X0118Y00413*
X01182Y00412*
Y00412*
X01182Y00412*
X01182Y00412*
X01182Y00412*
X01182Y00412*
X01182Y00411*
X01182Y00411*
X01182Y00411*
X01181Y0041*
X01181Y00409*
X01181Y00409*
X0118Y00408*
X0118Y00408*
X0118Y00408*
X0118Y00408*
X01179Y00408*
X01179Y00408*
X01179Y00407*
X01179Y00407*
X01179Y00407*
X01178Y00407*
X01178Y00407*
X01178Y00407*
X01177Y00407*
X01177Y00406*
X01177Y00406*
X01176Y00406*
X01176Y00406*
X01175Y00406*
X01175Y00406*
X01174*
X01174Y00406*
X01174*
X01173Y00406*
X01173Y00406*
X01173Y00406*
X01172Y00406*
X01171Y00407*
X0117Y00407*
X0117Y00407*
X01169Y00407*
X01169Y00407*
X01169Y00407*
X01169Y00407*
X01169Y00408*
X01169Y00408*
X01169Y00408*
X01169Y00408*
X01168Y00408*
X01168Y00408*
X01168Y00409*
X01167Y00409*
X01167Y0041*
X01166Y00411*
Y00411*
X01166Y00411*
X01166Y00411*
X01166Y00411*
X01166Y00412*
X01166Y00412*
X01166Y00412*
X01166Y00412*
X01166Y00413*
X01166Y00413*
X01166Y00414*
X01166Y00415*
X01165Y00416*
Y00416*
Y00416*
Y00416*
X01166Y00417*
Y00417*
X01166Y00417*
X01166Y00417*
X01166Y00418*
X01166Y00419*
X01166Y0042*
X01166Y0042*
X01167Y00421*
X01167Y00421*
X01167Y00421*
X01167Y00421*
X01167Y00422*
X01167Y00422*
X01167Y00422*
X01167Y00423*
X01168Y00423*
X01168Y00424*
X01169Y00424*
X0117Y00425*
X0117Y00425*
X0117Y00425*
X0117Y00425*
X0117Y00425*
X0117Y00425*
X01171Y00425*
X01171Y00425*
X01171Y00425*
X01172Y00425*
X01172Y00425*
X01173Y00426*
X01174Y00426*
X01175Y00426*
X01175*
X01175Y00426*
G37*
G36*
X01191Y00426D02*
X01192Y00426D01*
X01192Y00425*
X01193Y00425*
X01193Y00425*
X01194Y00425*
X01194*
X01194Y00425*
X01194Y00425*
X01194Y00425*
X01194Y00424*
X01195Y00424*
X01195Y00424*
X01195Y00423*
X01196Y00423*
X01196Y00423*
X01196Y00423*
X01196Y00423*
X01196Y00422*
X01196Y00422*
X01196Y00422*
X01196Y00421*
X01196Y00421*
Y00421*
Y0042*
X01196Y0042*
X01196Y0042*
X01196Y0042*
X01196Y00419*
X01196Y00419*
X01196Y00418*
X01196Y00418*
X01195Y00418*
X01195Y00418*
X01195Y00418*
X01195Y00418*
X01194Y00417*
X01194Y00417*
X01194Y00417*
X01194*
X01194Y00417*
X01194Y00417*
X01194Y00417*
X01194Y00417*
X01195Y00416*
X01195Y00416*
X01195Y00416*
X01196Y00416*
X01196Y00415*
X01196Y00415*
X01196Y00415*
X01197Y00415*
X01197Y00414*
X01197Y00414*
X01197Y00413*
X01197Y00413*
X01197Y00412*
Y00412*
Y00412*
Y00412*
X01197Y00412*
X01197Y00411*
X01197Y00411*
X01197Y00411*
X01197Y00411*
X01197Y0041*
X01197Y0041*
X01196Y00409*
X01196Y00409*
X01196Y00408*
X01196Y00408*
X01195Y00408*
X01195Y00408*
X01195Y00408*
X01195Y00408*
X01195Y00407*
X01195Y00407*
X01195Y00407*
X01194Y00407*
X01194Y00407*
X01194Y00407*
X01193Y00407*
X01193Y00406*
X01193Y00406*
X01192Y00406*
X01192Y00406*
X01191Y00406*
X01191Y00406*
X0119*
X0119Y00406*
X0119Y00406*
X0119Y00406*
X0119Y00406*
X01189Y00406*
X01189Y00406*
X01188Y00407*
X01188Y00407*
X01187Y00407*
X01187Y00407*
X01187Y00408*
X01186Y00408*
X01186Y00408*
X01186Y00408*
X01186Y00408*
X01186Y00408*
X01186Y00408*
X01186Y00408*
X01186Y00409*
X01185Y00409*
X01185Y00409*
X01185Y0041*
X01185Y00411*
X01185Y00411*
X01185Y00411*
X01187Y00412*
Y00412*
X01187Y00412*
X01187Y00412*
X01187Y00411*
X01187Y00411*
X01187Y00411*
X01187Y00411*
X01187Y0041*
X01188Y0041*
X01188Y00409*
X01188Y00409*
X01188Y00409*
X01189Y00409*
X01189Y00409*
X01189Y00408*
X01189Y00408*
X0119Y00408*
X0119Y00408*
X01191Y00408*
X01191*
X01191Y00408*
X01191Y00408*
X01192Y00408*
X01192Y00408*
X01193Y00408*
X01193Y00409*
X01194Y00409*
X01194Y00409*
X01194Y00409*
X01194Y0041*
X01194Y0041*
X01194Y0041*
X01195Y00411*
X01195Y00411*
X01195Y00412*
Y00412*
Y00412*
Y00412*
X01195Y00412*
X01195Y00413*
X01195Y00413*
X01194Y00413*
X01194Y00414*
X01194Y00414*
X01194Y00415*
X01194Y00415*
X01193Y00415*
X01193Y00415*
X01193Y00415*
X01193Y00415*
X01192Y00416*
X01192Y00416*
X01191Y00416*
X01191*
X0119Y00416*
X0119Y00416*
X0119Y00416*
X0119Y00416*
X01189Y00415*
X0119Y00418*
X0119*
X0119Y00417*
X0119*
X0119Y00418*
X01191Y00418*
X01191Y00418*
X01192Y00418*
X01192Y00418*
X01193Y00418*
X01193*
X01193Y00418*
X01193Y00418*
X01193Y00419*
X01193Y00419*
X01193Y00419*
X01194Y0042*
X01194Y0042*
X01194Y0042*
Y00421*
Y00421*
Y00421*
Y00421*
X01194Y00421*
X01194Y00421*
X01194Y00422*
X01193Y00422*
X01193Y00422*
X01193Y00423*
X01193Y00423*
X01193Y00423*
X01193Y00423*
X01192Y00423*
X01192Y00423*
X01192Y00424*
X01191Y00424*
X01191Y00424*
X0119*
X0119Y00424*
X0119Y00424*
X0119Y00423*
X01189Y00423*
X01189Y00423*
X01188Y00423*
X01188Y00423*
X01188Y00423*
X01188Y00422*
X01188Y00422*
X01188Y00422*
X01188Y00421*
X01187Y00421*
X01187Y0042*
X01185Y00421*
Y00421*
X01185Y00421*
X01185Y00421*
X01185Y00421*
X01185Y00421*
X01185Y00421*
X01185Y00422*
X01186Y00423*
X01186Y00423*
X01186Y00424*
X01187Y00424*
X01187Y00424*
X01187Y00424*
X01187Y00424*
X01187Y00424*
X01187Y00425*
X01187Y00425*
X01188Y00425*
X01188Y00425*
X01188Y00425*
X01189Y00425*
X0119Y00426*
X0119Y00426*
X01191*
X01191Y00426*
G37*
G36*
X0136Y01205D02*
X0136Y01205D01*
X0136Y01205*
X01361Y01205*
X01361Y01204*
X01362Y01204*
X01363Y01204*
X01363Y01204*
X01363Y01204*
X01364Y01203*
X01364Y01203*
X01364Y01203*
X01364Y01203*
X01364Y01203*
X01364Y01203*
X01365Y01203*
X01365Y01203*
X01365Y01202*
X01365Y01202*
X01365Y01202*
X01366Y01202*
X01366Y01201*
X01366Y01201*
X01366Y012*
X01367Y012*
X01367Y012*
X01367Y01199*
X01364Y01198*
Y01199*
X01364Y01199*
X01364Y01199*
X01364Y01199*
X01364Y01199*
X01364Y01199*
X01364Y012*
X01364Y012*
X01363Y01201*
X01363Y01201*
X01362Y01202*
X01362Y01202*
X01362Y01202*
X01362Y01202*
X01362Y01202*
X01361Y01202*
X01361Y01202*
X0136Y01202*
X01359Y01203*
X01359*
X01359Y01202*
X01359*
X01358Y01202*
X01358Y01202*
X01357Y01202*
X01357Y01202*
X01356Y01202*
X01356Y01201*
X01355*
X01355Y01201*
X01355Y01201*
X01355Y01201*
X01355Y01201*
X01354Y012*
X01354Y012*
X01354Y01199*
X01353Y01199*
Y01199*
X01353Y01198*
X01353Y01198*
X01353Y01198*
X01353Y01198*
X01353Y01198*
X01353Y01197*
X01353Y01197*
X01353Y01196*
X01353Y01196*
X01353Y01195*
Y01195*
Y01195*
Y01195*
Y01194*
X01353Y01194*
Y01194*
X01353Y01194*
X01353Y01193*
X01353Y01193*
X01353Y01192*
X01353Y01191*
X01354Y01191*
Y01191*
X01354Y01191*
X01354Y0119*
X01354Y0119*
X01354Y0119*
X01354Y0119*
X01354Y01189*
X01355Y01189*
X01355Y01188*
X01356Y01188*
X01356*
X01356Y01188*
X01356Y01188*
X01356Y01188*
X01356Y01188*
X01356Y01188*
X01357Y01187*
X01357Y01187*
X01358Y01187*
X01358Y01187*
X01359Y01187*
X01359*
X01359Y01187*
X0136*
X0136Y01187*
X0136Y01187*
X01361Y01187*
X01361Y01188*
X01362Y01188*
X01362Y01188*
X01363Y01188*
X01363Y01188*
X01363Y01188*
X01363Y01188*
X01363Y01188*
X01363Y01189*
X01363Y01189*
X01363Y01189*
X01363Y01189*
X01364Y01189*
X01364Y0119*
X01364Y0119*
X01364Y0119*
X01364Y01191*
X01364Y01191*
X01365Y01191*
X01365Y01192*
X01367Y01191*
Y01191*
X01367Y01191*
X01367Y01191*
X01367Y01191*
X01367Y0119*
X01367Y0119*
X01367Y0119*
X01367Y01189*
X01366Y01189*
X01366Y01188*
X01365Y01188*
X01365Y01187*
X01365Y01187*
X01364Y01186*
X01364Y01186*
X01364Y01186*
X01364Y01186*
X01364Y01186*
X01364Y01186*
X01364Y01186*
X01363Y01186*
X01363Y01186*
X01363Y01185*
X01362Y01185*
X01362Y01185*
X01361Y01185*
X01361Y01185*
X0136Y01185*
X0136Y01185*
X01359Y01185*
X01359*
X01359Y01185*
X01358*
X01358Y01185*
X01358Y01185*
X01357Y01185*
X01357Y01185*
X01356Y01185*
X01355Y01186*
X01355Y01186*
X01354Y01186*
X01354Y01186*
X01354Y01186*
X01354Y01186*
X01354Y01186*
X01354Y01186*
X01354Y01187*
X01353Y01187*
X01353Y01187*
X01353Y01187*
X01353Y01188*
X01352Y01188*
X01352Y01189*
X01351Y0119*
Y0119*
X01351Y0119*
X01351Y0119*
X01351Y0119*
X01351Y0119*
X01351Y01191*
X01351Y01191*
X01351Y01191*
X01351Y01192*
X01351Y01192*
X0135Y01193*
X0135Y01194*
X0135Y01195*
Y01195*
Y01195*
Y01195*
X0135Y01195*
Y01196*
X0135Y01196*
X0135Y01196*
X0135Y01197*
X01351Y01197*
X01351Y01198*
X01351Y01199*
X01351Y012*
X01351Y012*
X01351Y012*
X01351Y012*
X01352Y012*
X01352Y01201*
X01352Y01201*
X01352Y01201*
X01353Y01202*
X01353Y01202*
X01354Y01203*
X01355Y01203*
X01355Y01204*
X01355Y01204*
X01355Y01204*
X01355Y01204*
X01355Y01204*
X01355Y01204*
X01356Y01204*
X01356Y01204*
X01356Y01204*
X01357Y01204*
X01357Y01204*
X01358Y01205*
X01359Y01205*
X0136*
X0136Y01205*
G37*
G36*
X01376Y01204D02*
X01376Y01204D01*
X01377Y01204*
X01377Y01204*
X01377Y01204*
X01378Y01204*
X01379Y01204*
X01379Y01204*
X01379Y01203*
X0138Y01203*
X0138Y01203*
X0138Y01203*
X0138Y01203*
X0138Y01203*
X0138Y01203*
X0138Y01202*
X01381Y01202*
X01381Y01202*
X01381Y01202*
X01381Y01201*
X01381Y01201*
X01382Y012*
X01382Y012*
X01382Y012*
X01382Y01199*
Y01199*
Y01199*
X01382Y01199*
X01382Y01198*
X01382Y01198*
X01381Y01198*
X01381Y01197*
X01381Y01197*
X01381Y01197*
X01381Y01197*
X01381Y01196*
X01381Y01196*
X01381Y01196*
X0138Y01195*
X0138Y01195*
X0138Y01194*
X0138Y01194*
X01379Y01194*
X01379Y01194*
X01379Y01194*
X01379Y01194*
X01379Y01194*
X01379Y01193*
X01378Y01193*
X01378Y01193*
X01378Y01193*
X01377Y01192*
X01377Y01192*
X01376Y01192*
X01376Y01191*
X01376Y01191*
X01376Y01191*
X01376Y01191*
X01376Y01191*
X01376Y01191*
X01375Y01191*
X01375Y0119*
X01374Y0119*
X01374Y01189*
X01374Y01189*
X01373Y01189*
X01373Y01189*
X01373Y01189*
X01373Y01189*
X01373Y01188*
X01373Y01188*
X01373Y01188*
X01373Y01188*
X01372Y01187*
X01382*
Y01185*
X01369*
Y01185*
Y01185*
Y01185*
X01369Y01186*
X01369Y01186*
X01369Y01186*
X01369Y01186*
X01369Y01187*
Y01187*
X01369Y01187*
X01369Y01187*
X0137Y01187*
X0137Y01188*
X0137Y01188*
X0137Y01188*
X0137Y01189*
X01371Y01189*
Y01189*
X01371Y01189*
X01371Y0119*
X01371Y0119*
X01372Y0119*
X01372Y01191*
X01373Y01191*
X01373Y01192*
X01374Y01192*
X01374Y01192*
X01374Y01192*
X01374Y01192*
X01374Y01193*
X01375Y01193*
X01375Y01193*
X01375Y01193*
X01376Y01194*
X01376Y01194*
X01377Y01195*
X01377Y01195*
X01378Y01196*
X01378Y01196*
X01378Y01196*
Y01196*
X01378Y01196*
X01378Y01196*
X01378Y01197*
X01379Y01197*
X01379Y01197*
X01379Y01198*
X01379Y01198*
X01379Y01199*
X01379Y01199*
Y01199*
Y01199*
X01379Y01199*
X01379Y012*
X01379Y012*
X01379Y012*
X01379Y01201*
X01379Y01201*
X01378Y01202*
X01378Y01202*
X01378Y01202*
X01378Y01202*
X01378Y01202*
X01377Y01202*
X01377Y01202*
X01376Y01202*
X01376Y01202*
X01375*
X01375Y01202*
X01375Y01202*
X01375Y01202*
X01374Y01202*
X01374Y01202*
X01373Y01202*
X01373Y01201*
X01373Y01201*
X01373Y01201*
X01373Y01201*
X01372Y01201*
X01372Y012*
X01372Y012*
X01372Y01199*
X01372Y01199*
X01369Y01199*
Y01199*
X0137Y01199*
Y01199*
X0137Y01199*
X0137Y012*
X0137Y012*
X0137Y012*
X0137Y012*
X0137Y01201*
X0137Y01202*
X01371Y01202*
X01371Y01202*
X01371Y01203*
X01371Y01203*
X01371Y01203*
X01371Y01203*
X01371Y01203*
X01372Y01203*
X01372Y01203*
X01372Y01203*
X01372Y01204*
X01372Y01204*
X01373Y01204*
X01373Y01204*
X01373Y01204*
X01374Y01204*
X01374Y01204*
X01375Y01204*
X01375Y01204*
X01376Y01204*
X01376*
X01376Y01204*
G37*
G36*
X00486Y00692D02*
X00486D01*
X00487Y00692*
X00487Y00692*
X00487Y00692*
X00488Y00692*
X00489Y00692*
X0049Y00692*
X00491Y00691*
X00491Y00691*
X00491Y00691*
X00491Y00691*
X00491Y00691*
X00491Y00691*
X00492Y00691*
X00492Y00691*
X00493Y0069*
X00493Y00689*
X00494Y00689*
X00494Y00688*
X00494Y00688*
X00494Y00688*
X00494Y00688*
X00494Y00688*
X00495Y00688*
X00495Y00687*
X00495Y00687*
X00495Y00687*
X00495Y00686*
X00495Y00686*
X00495Y00685*
X00495Y00684*
X00495Y00683*
Y00683*
X00495Y00683*
X00495Y00683*
X00495Y00682*
X00495Y00682*
X00495Y00682*
X00495Y00681*
X00495Y0068*
X00495Y0068*
X00494Y00679*
X00494Y00679*
X00494Y00679*
X00494Y00679*
X00494Y00679*
X00494Y00678*
X00494Y00678*
X00494Y00678*
X00493Y00678*
X00493Y00678*
X00493Y00678*
X00493Y00677*
X00492Y00677*
X00492Y00677*
X00492Y00677*
X00491Y00676*
X00491Y00676*
X0049Y00676*
X0049Y00676*
X00489Y00678*
X00489*
X00489Y00678*
X00489Y00678*
X0049Y00679*
X0049Y00679*
X0049Y00679*
X0049Y00679*
X00491Y00679*
X00491Y00679*
X00492Y0068*
X00492Y0068*
X00492Y0068*
X00492Y00681*
X00493Y00681*
X00493Y00681*
X00493Y00682*
X00493Y00682*
X00493Y00683*
X00493Y00684*
Y00684*
X00493Y00684*
Y00684*
X00493Y00684*
X00493Y00685*
X00493Y00685*
X00493Y00686*
X00493Y00687*
X00492Y00687*
Y00687*
X00492Y00687*
X00492Y00687*
X00492Y00688*
X00491Y00688*
X00491Y00688*
X00491Y00689*
X0049Y00689*
X00489Y00689*
X00489*
X00489Y00689*
X00489Y00689*
X00489Y00689*
X00489Y00689*
X00489Y00689*
X00488Y0069*
X00488Y0069*
X00487Y0069*
X00486Y0069*
X00486Y0069*
X00486*
X00486*
X00485*
X00485*
X00485Y0069*
X00485*
X00485Y0069*
X00484Y0069*
X00484Y0069*
X00483Y0069*
X00482Y00689*
X00481Y00689*
X00481*
X00481Y00689*
X00481Y00689*
X00481Y00689*
X00481Y00689*
X0048Y00689*
X0048Y00688*
X00479Y00688*
X00479Y00688*
X00479Y00687*
Y00687*
X00479Y00687*
X00479Y00687*
X00478Y00687*
X00478Y00687*
X00478Y00686*
X00478Y00686*
X00478Y00686*
X00478Y00685*
X00478Y00684*
X00478Y00684*
Y00684*
X00478Y00683*
Y00683*
X00478Y00683*
X00478Y00682*
X00478Y00682*
X00478Y00681*
X00479Y00681*
X00479Y0068*
X00479Y0068*
X00479Y0068*
X00479Y0068*
X00479Y0068*
X00479Y0068*
X00479Y0068*
X00479Y0068*
X0048Y00679*
X0048Y00679*
X0048Y00679*
X0048Y00679*
X00481Y00679*
X00481Y00679*
X00481Y00678*
X00482Y00678*
X00482Y00678*
X00483Y00678*
X00482Y00676*
X00482*
X00482Y00676*
X00482Y00676*
X00481Y00676*
X00481Y00676*
X00481Y00676*
X00481Y00676*
X0048Y00676*
X00479Y00677*
X00479Y00677*
X00478Y00677*
X00478Y00678*
X00478Y00678*
X00477Y00678*
X00477Y00678*
X00477Y00679*
X00477Y00679*
X00477Y00679*
X00477Y00679*
X00477Y00679*
X00477Y0068*
X00476Y0068*
X00476Y0068*
X00476Y00681*
X00476Y00681*
X00476Y00681*
X00476Y00682*
X00476Y00682*
X00476Y00683*
X00476Y00683*
Y00684*
X00476Y00684*
Y00684*
X00476Y00685*
X00476Y00685*
X00476Y00685*
X00476Y00686*
X00476Y00687*
X00476Y00688*
X00477Y00688*
X00477Y00689*
X00477Y00689*
X00477Y00689*
X00477Y00689*
X00477Y00689*
X00477Y00689*
X00477Y00689*
X00478Y00689*
X00478Y0069*
X00478Y0069*
X00478Y0069*
X00479Y00691*
X0048Y00691*
X0048Y00691*
X00481*
X00481Y00692*
X00481Y00692*
X00481Y00692*
X00481Y00692*
X00481Y00692*
X00482Y00692*
X00482Y00692*
X00482Y00692*
X00483Y00692*
X00484Y00692*
X00485Y00692*
X00486Y00692*
X00486*
X00486*
X00486*
X00486Y00692*
G37*
G36*
X0049Y00672D02*
X0049Y00671D01*
X0049Y00671*
X00491Y00671*
X00491Y00671*
X00491Y00671*
X00491Y0067*
X00491Y0067*
X00492Y00669*
X00492Y00669*
X00493Y00668*
X00493Y00668*
X00493Y00668*
X00493Y00668*
X00493Y00668*
X00493Y00668*
X00493Y00667*
X00494Y00667*
X00494Y00667*
X00495Y00666*
X00495Y00666*
Y00665*
X00476*
Y00667*
X00491*
X00491Y00667*
X00491Y00667*
X00491Y00667*
X0049Y00667*
X0049Y00668*
X0049Y00668*
X0049Y00669*
X00489Y00669*
Y00669*
X00489Y00669*
X00489Y00669*
X00489Y0067*
X00489Y0067*
X00489Y0067*
X00488Y00671*
X00488Y00671*
X00488Y00672*
X0049*
Y00672*
G37*
%LNpcb-2*%
%LPC*%
G36*
X00887Y00228D02*
X00887D01*
X00887*
X00886*
X00886Y00228*
X00886Y00228*
X00885Y00228*
X00885Y00228*
X00885Y00228*
X00884Y00227*
X00884Y00227*
X00884Y00227*
X00884Y00227*
X00884Y00227*
X00884Y00226*
X00884Y00226*
X00884Y00226*
X00883Y00225*
Y00225*
X00884Y00225*
X00884Y00224*
X00884Y00224*
X00884Y00224*
X00884Y00223*
X00884Y00223*
X00884Y00223*
X00885Y00223*
X00885Y00223*
X00885Y00222*
X00885Y00222*
X00886Y00222*
X00886Y00222*
X00886Y00222*
X00886*
X00887*
X00887Y00222*
X00887Y00222*
X00887Y00222*
X00888Y00222*
X00888Y00222*
X00888Y00223*
X00889Y00223*
X00889Y00223*
X00889Y00223*
X00889Y00223*
X00889Y00223*
X00889Y00224*
X00889Y00224*
X0089Y00225*
X0089Y00225*
Y00225*
X0089Y00225*
X00889Y00226*
X00889Y00226*
X00889Y00226*
X00889Y00227*
X00889Y00227*
X00889Y00227*
X00889Y00227*
X00889Y00227*
X00888Y00228*
X00888Y00228*
X00888Y00228*
X00887Y00228*
X00887Y00228*
X00887Y00228*
G37*
G36*
X00895Y00229D02*
X00895D01*
X00895*
X00895*
X00895Y00229*
X00895Y00229*
X00894Y00229*
X00894Y00229*
X00893Y00229*
X00893Y00228*
X00893Y00228*
X00893Y00228*
X00892Y00228*
X00892Y00227*
X00892Y00227*
X00892Y00227*
X00892Y00226*
X00891Y00226*
X00891Y00225*
Y00225*
X00891Y00225*
X00891Y00224*
X00892Y00224*
X00892Y00224*
X00892Y00223*
X00892Y00223*
X00893Y00222*
X00893Y00222*
X00893Y00222*
X00893Y00222*
X00893Y00222*
X00894Y00222*
X00894Y00221*
X00895Y00221*
X00895Y00221*
X00895*
X00895*
X00896Y00221*
X00896Y00221*
X00896Y00221*
X00897Y00221*
X00897Y00221*
X00897Y00222*
X00897Y00222*
X00897Y00222*
X00898Y00222*
X00898Y00222*
X00898Y00222*
X00898Y00222*
X00898Y00223*
X00899Y00223*
X00899Y00223*
X00899Y00223*
X00899Y00223*
X00899Y00224*
X00899Y00224*
X00899Y00224*
X00899Y00225*
X00899Y00225*
Y00225*
X00899Y00225*
X00899Y00226*
X00899Y00226*
X00899Y00227*
X00899Y00227*
X00898Y00227*
X00898Y00228*
X00898Y00228*
X00898Y00228*
X00898Y00228*
X00897Y00228*
X00897Y00229*
X00897Y00229*
X00896Y00229*
X00895Y00229*
G37*
G36*
X00887Y00213D02*
X00887D01*
X00887*
X00887Y00213*
X00886Y00213*
X00886Y00213*
X00886Y00213*
X00885Y00213*
X00885Y00213*
X00885Y00212*
X00885Y00212*
X00885Y00212*
X00884Y00212*
X00884Y00211*
X00884Y00211*
X00884Y0021*
X00884Y0021*
X00884Y00209*
Y00203*
X0089*
Y00209*
X0089Y00209*
X0089Y00209*
X0089Y0021*
X0089Y0021*
X0089Y00211*
X0089Y00211*
X0089Y00211*
X0089Y00211*
X0089Y00211*
X0089Y00212*
X00889Y00212*
X00889Y00212*
X00889Y00212*
X00889Y00213*
X00889Y00213*
X00888Y00213*
X00888Y00213*
X00888Y00213*
X00888Y00213*
X00888Y00213*
X00887Y00213*
X00887Y00213*
G37*
G36*
X01092Y00338D02*
X01092D01*
X01092*
X01092Y00338*
X01092Y00338*
X01091Y00338*
X01091Y00338*
X0109Y00338*
X0109Y00338*
X0109Y00337*
X0109Y00337*
X0109Y00337*
X0109Y00337*
X01089Y00336*
X01089Y00336*
X01089Y00335*
X01089Y00335*
X01089Y00334*
Y00328*
X01095*
Y00334*
X01095Y00334*
X01095Y00334*
X01095Y00335*
X01095Y00335*
X01095Y00336*
X01095Y00336*
X01095Y00336*
X01095Y00336*
X01095Y00336*
X01095Y00337*
X01094Y00337*
X01094Y00337*
X01094Y00337*
X01094Y00338*
X01094Y00338*
X01094Y00338*
X01093Y00338*
X01093Y00338*
X01093Y00338*
X01093Y00338*
X01092Y00338*
X01092Y00338*
G37*
G36*
X01253Y01169D02*
X01253D01*
X01253Y01169*
X01253Y01169*
X01252Y01169*
X01252Y01168*
X01251Y01168*
X01251Y01168*
X01251Y01167*
X01251Y01167*
X0125Y01167*
X0125Y01167*
X0125Y01167*
X0125Y01166*
X0125Y01166*
X0125Y01165*
X01249Y01164*
Y01164*
Y01164*
X0125Y01164*
X0125Y01164*
X0125Y01163*
X0125Y01163*
X0125Y01163*
X0125Y01162*
X0125Y01162*
X0125Y01162*
X0125Y01162*
X0125Y01162*
X01251Y01161*
X01251Y01161*
X01251Y01161*
X01251Y0116*
X01251Y0116*
X01252Y0116*
X01252Y0116*
X01252Y0116*
X01252Y0116*
X01253Y0116*
X01253Y0116*
X01253Y0116*
X01254*
X01254Y0116*
X01254Y0116*
X01254Y0116*
X01255Y0116*
X01255Y0116*
X01256Y01161*
X01256Y01161*
X01256Y01161*
Y01161*
X01256Y01161*
X01256Y01161*
X01256Y01162*
X01257Y01162*
X01257Y01162*
X01257Y01163*
X01257Y01164*
X01257Y01164*
Y01164*
Y01164*
Y01165*
X01257Y01165*
Y01165*
X01257Y01165*
X01257Y01165*
X01257Y01166*
X01257Y01167*
X01256Y01167*
X01256Y01167*
X01256Y01168*
X01256Y01168*
X01256Y01168*
X01255Y01168*
X01255Y01168*
X01254Y01168*
X01254Y01169*
X01253Y01169*
G37*
G36*
X01237Y01175D02*
X01231D01*
Y01169*
X01237*
X01237Y01169*
X01238Y01169*
X01238Y01169*
X01238Y01169*
X01239Y01169*
X01239Y01169*
X01239Y01169*
X01239Y01169*
X0124Y01169*
X0124Y0117*
X0124Y0117*
X0124Y0117*
X01241Y0117*
X01241Y0117*
X01241Y01171*
X01241Y01171*
X01241Y01171*
X01241Y01171*
X01241Y01171*
X01241Y01172*
X01241Y01172*
X01241Y01172*
Y01172*
Y01172*
X01241Y01172*
X01241Y01173*
X01241Y01173*
X01241Y01173*
X01241Y01174*
X01241Y01174*
X0124Y01174*
X0124Y01174*
X0124Y01175*
X0124Y01175*
X01239Y01175*
X01239Y01175*
X01239Y01175*
X01238Y01175*
X01237Y01175*
G37*
G36*
X0076Y01062D02*
X00754D01*
Y01056*
X00759*
X0076Y01056*
X0076Y01056*
X0076Y01056*
X00761Y01056*
X00761Y01056*
X00762Y01056*
X00762Y01056*
X00762Y01056*
X00762Y01056*
X00762Y01056*
X00762Y01057*
X00763Y01057*
X00763Y01057*
X00763Y01057*
X00763Y01057*
X00763Y01057*
X00763Y01058*
X00763Y01058*
X00764Y01058*
X00764Y01058*
X00764Y01059*
X00764Y01059*
Y01059*
Y01059*
X00764Y01059*
X00764Y01059*
X00764Y0106*
X00763Y0106*
X00763Y01061*
X00763Y01061*
X00763Y01061*
X00763Y01061*
X00762Y01061*
X00762Y01062*
X00762Y01062*
X00762Y01062*
X00761Y01062*
X0076Y01062*
X0076Y01062*
G37*
G36*
X0078Y00909D02*
X00774Y00901D01*
X0078*
Y00909*
G37*
G36*
X00762Y00911D02*
X00756D01*
Y00905*
X00762*
X00762Y00905*
X00763Y00905*
X00763Y00905*
X00764Y00905*
X00764Y00905*
X00764Y00905*
X00764Y00905*
X00765Y00905*
X00765Y00905*
X00765Y00905*
X00765Y00905*
X00765Y00906*
X00766Y00906*
X00766Y00906*
X00766Y00906*
X00766Y00906*
X00766Y00906*
X00766Y00907*
X00766Y00907*
X00766Y00907*
X00766Y00907*
X00766Y00908*
Y00908*
Y00908*
X00766Y00908*
X00766Y00908*
X00766Y00909*
X00766Y00909*
X00766Y00909*
X00766Y0091*
X00765Y0091*
X00765Y0091*
X00765Y0091*
X00765Y0091*
X00765Y00911*
X00764Y00911*
X00764Y00911*
X00763Y00911*
X00762Y00911*
G37*
G36*
X01014Y00679D02*
X01008D01*
Y00672*
X01014*
X01014Y00672*
X01015Y00672*
X01015Y00672*
X01016Y00672*
X01016Y00672*
X01017Y00672*
X01017Y00673*
X01017Y00673*
X01017Y00673*
X01017Y00673*
X01017Y00673*
X01018Y00673*
X01018Y00673*
X01018Y00674*
X01018Y00674*
X01018Y00674*
X01018Y00674*
X01018Y00674*
X01018Y00674*
X01019Y00675*
X01019Y00675*
X01019Y00675*
Y00675*
Y00675*
X01019Y00676*
X01019Y00676*
X01018Y00676*
X01018Y00677*
X01018Y00677*
X01018Y00677*
X01018Y00678*
X01018Y00678*
X01017Y00678*
X01017Y00678*
X01017Y00678*
X01016Y00678*
X01016Y00678*
X01015Y00678*
X01014Y00679*
G37*
G36*
X00905Y00678D02*
X00899D01*
Y00672*
X00904*
X00905Y00672*
X00905Y00672*
X00905Y00672*
X00906Y00672*
X00906Y00672*
X00907Y00672*
X00907Y00672*
X00907Y00672*
X00907Y00672*
X00907Y00673*
X00907Y00673*
X00908Y00673*
X00908Y00673*
X00908Y00673*
X00908Y00674*
X00908Y00674*
X00908Y00674*
X00908Y00674*
X00909Y00674*
X00909Y00675*
X00909Y00675*
X00909Y00675*
Y00675*
Y00675*
X00909Y00675*
X00909Y00676*
X00909Y00676*
X00908Y00676*
X00908Y00677*
X00908Y00677*
X00908Y00677*
X00908Y00677*
X00908Y00678*
X00907Y00678*
X00907Y00678*
X00907Y00678*
X00906Y00678*
X00905Y00678*
X00905Y00678*
G37*
G36*
X01261Y00967D02*
X01255D01*
Y00961*
X01261*
X01261Y00961*
X01261Y00961*
X01262Y00961*
X01262Y00961*
X01263Y00961*
X01263Y00961*
X01263Y00961*
X01263Y00961*
X01263Y00961*
X01264Y00961*
X01264Y00962*
X01264Y00962*
X01264Y00962*
X01265Y00962*
X01265Y00962*
X01265Y00962*
X01265Y00963*
X01265Y00963*
X01265Y00963*
X01265Y00963*
X01265Y00964*
X01265Y00964*
Y00964*
Y00964*
X01265Y00964*
X01265Y00964*
X01265Y00965*
X01265Y00965*
X01265Y00966*
X01264Y00966*
X01264Y00966*
X01264Y00966*
X01264Y00966*
X01264Y00967*
X01263Y00967*
X01263Y00967*
X01262Y00967*
X01262Y00967*
X01261Y00967*
G37*
G36*
X00211Y0089D02*
X00211D01*
X00211*
X00211*
X00211Y0089*
X00211*
X0021Y0089*
X0021Y0089*
X00209Y0089*
X00209Y0089*
X00208Y0089*
X00208Y00889*
X00208*
X00208Y00889*
X00208Y00889*
X00207Y00889*
X00207Y00889*
X00207Y00888*
X00207Y00888*
X00207Y00887*
X00207Y00887*
Y00887*
X00207Y00886*
X00207Y00886*
X00207Y00886*
X00207Y00885*
X00207Y00885*
X00208Y00884*
X00208Y00884*
X00208Y00884*
X00208*
X00208Y00884*
X00208Y00884*
X00208Y00884*
X00208Y00884*
X00209Y00883*
X00209Y00883*
X0021Y00883*
X00211Y00883*
X00211Y00883*
X00211*
X00211*
X00211*
X00212Y00883*
X00212*
X00212Y00883*
X00212Y00883*
X00213Y00883*
X00213Y00883*
X00214Y00883*
X00214Y00884*
X00214Y00884*
X00214Y00884*
X00215Y00884*
X00215Y00885*
X00215Y00885*
X00215Y00885*
X00215Y00886*
X00215Y00887*
Y00887*
X00215Y00887*
X00215Y00887*
X00215Y00888*
X00215Y00888*
X00215Y00888*
X00215Y00889*
X00214Y00889*
X00214Y00889*
X00214Y00889*
X00214Y0089*
X00213Y0089*
X00213Y0089*
X00212Y0089*
X00212Y0089*
X00211Y0089*
G37*
G36*
X0021Y00875D02*
X0021D01*
X0021*
X0021Y00875*
X0021Y00875*
X00209Y00875*
X00209Y00874*
X00209Y00874*
X00208Y00874*
X00208Y00874*
X00208Y00874*
X00208Y00874*
X00208Y00873*
X00207Y00873*
X00207Y00873*
X00207Y00872*
X00207Y00871*
X00207Y00871*
Y00865*
X00213*
Y0087*
X00213Y00871*
X00213Y00871*
X00213Y00871*
X00213Y00872*
X00213Y00872*
X00213Y00873*
X00213Y00873*
X00213Y00873*
X00213Y00873*
X00213Y00873*
X00212Y00874*
X00212Y00874*
X00212Y00874*
X00212Y00874*
X00212Y00874*
X00212Y00874*
X00211Y00874*
X00211Y00874*
X00211Y00875*
X00211Y00875*
X0021Y00875*
X0021Y00875*
G37*
G36*
X00891Y00414D02*
X00891D01*
X00891*
X00891*
X00891Y00414*
X0089*
X0089Y00414*
X0089Y00414*
X00889Y00414*
X00889Y00413*
X00888Y00413*
X00887Y00413*
X00887Y00413*
X00886Y00413*
X00886*
X00886Y00413*
X00886Y00413*
X00886Y00412*
X00886Y00412*
X00886Y00412*
X00885Y00412*
X00885Y00411*
X00885Y00411*
X00884Y0041*
X00884Y0041*
X00884Y0041*
X00884Y0041*
X00884Y00409*
X00884Y00409*
X00884Y00408*
X00884Y00408*
Y00408*
X00884Y00407*
Y00403*
X00898*
Y00407*
X00898Y00408*
X00898Y00408*
X00898Y00409*
X00898Y00409*
X00898Y0041*
X00898Y0041*
X00898Y0041*
X00898Y0041*
X00898Y0041*
X00898Y00411*
X00898Y00411*
X00898Y00411*
X00897Y00411*
X00897Y00412*
X00897Y00412*
X00897Y00412*
X00897Y00412*
X00897Y00412*
X00896Y00412*
X00896Y00413*
X00895Y00413*
X00895Y00413*
X00895*
X00895Y00413*
X00895Y00413*
X00894Y00413*
X00894Y00413*
X00894Y00413*
X00894Y00413*
X00894Y00413*
X00893Y00413*
X00893Y00414*
X00892Y00414*
X00891Y00414*
G37*
G36*
X00514Y00453D02*
X00499D01*
Y00449*
X00499Y00449*
X00499Y00448*
X00499Y00448*
X00499Y00447*
X00499Y00447*
X005Y00446*
X005Y00446*
X005Y00446*
X005Y00446*
X005Y00446*
X005Y00445*
X005Y00445*
X005Y00445*
X00501Y00445*
X00501Y00445*
X00501Y00444*
X00501Y00444*
X00501Y00444*
X00502Y00444*
X00502Y00444*
X00502Y00443*
X00503Y00443*
X00503*
X00503Y00443*
X00503Y00443*
X00503Y00443*
X00503Y00443*
X00504Y00443*
X00504Y00443*
X00504Y00443*
X00505Y00443*
X00505Y00443*
X00506Y00443*
X00507Y00443*
X00507*
X00507*
X00507*
X00507Y00443*
X00507*
X00508Y00443*
X00508Y00443*
X00508Y00443*
X00509Y00443*
X0051Y00443*
X00511Y00443*
X00511Y00444*
X00511Y00444*
X00511*
X00511Y00444*
X00511Y00444*
X00512Y00444*
X00512Y00444*
X00512Y00444*
X00512Y00445*
X00513Y00445*
X00513Y00446*
X00513Y00446*
X00513Y00446*
X00513Y00446*
X00514Y00447*
X00514Y00447*
X00514Y00447*
X00514Y00448*
X00514Y00448*
Y00449*
X00514Y00449*
Y00453*
G37*
G36*
X00504Y00436D02*
Y0043D01*
X00512*
X00504Y00436*
G37*
G36*
X01464Y01162D02*
X01464D01*
X01464*
X01463*
X01463Y01161*
X01463*
X01463Y01161*
X01462Y01161*
X01462Y01161*
X01461Y01161*
X01461Y01161*
X0146Y01161*
X01459Y01161*
X01459Y01161*
X01459*
X01459Y0116*
X01459Y0116*
X01459Y0116*
X01459Y0116*
X01458Y0116*
X01458Y01159*
X01458Y01159*
X01457Y01159*
X01457Y01158*
X01457Y01158*
X01457Y01158*
X01457Y01158*
X01457Y01157*
X01457Y01157*
X01457Y01156*
X01457Y01156*
Y01156*
X01457Y01155*
Y01151*
X01471*
Y01155*
X01471Y01156*
X01471Y01156*
X01471Y01156*
X01471Y01157*
X01471Y01157*
X01471Y01158*
X01471Y01158*
X01471Y01158*
X01471Y01158*
X01471Y01158*
X0147Y01159*
X0147Y01159*
X0147Y01159*
X0147Y0116*
X0147Y0116*
X0147Y0116*
X01469Y0116*
X01469Y0116*
X01469Y0116*
X01468Y01161*
X01468Y01161*
X01467Y01161*
X01467*
X01467Y01161*
X01467Y01161*
X01467Y01161*
X01467Y01161*
X01467Y01161*
X01467Y01161*
X01466Y01161*
X01466Y01161*
X01465Y01161*
X01465Y01161*
X01464Y01162*
G37*
G36*
X00212Y0069D02*
X00212D01*
X00212*
X00212*
X00212Y0069*
X00212*
X00211Y0069*
X00211Y0069*
X00211Y0069*
X0021Y0069*
X00209Y0069*
X00208Y0069*
X00208Y0069*
X00208Y00689*
X00208*
X00208Y00689*
X00208Y00689*
X00208Y00689*
X00207Y00689*
X00207Y00689*
X00207Y00688*
X00206Y00688*
X00206Y00687*
X00206Y00687*
X00206Y00687*
X00206Y00687*
X00206Y00687*
X00205Y00686*
X00205Y00686*
X00205Y00685*
X00205Y00685*
Y00684*
X00205Y00684*
Y0068*
X0022*
Y00684*
X0022Y00684*
X0022Y00685*
X0022Y00685*
X0022Y00686*
X0022Y00686*
X0022Y00687*
X00219Y00687*
X00219Y00687*
X00219Y00687*
X00219Y00687*
X00219Y00688*
X00219Y00688*
X00219Y00688*
X00219Y00688*
X00218Y00688*
X00218Y00689*
X00218Y00689*
X00218Y00689*
X00218Y00689*
X00217Y00689*
X00217Y0069*
X00216Y0069*
X00216*
X00216Y0069*
X00216Y0069*
X00216Y0069*
X00216Y0069*
X00216Y0069*
X00215Y0069*
X00215Y0069*
X00215Y0069*
X00214Y0069*
X00213Y0069*
X00212Y0069*
G37*
G36*
X0034Y00657D02*
X00335D01*
Y00642*
X0034*
X0034Y00642*
X00341Y00642*
X00341Y00642*
X00342Y00642*
X00342Y00642*
X00342Y00642*
X00343Y00643*
X00343Y00643*
X00343Y00643*
X00343Y00643*
X00343Y00643*
X00344Y00643*
X00344Y00643*
X00344Y00643*
X00344Y00644*
X00344Y00644*
X00345Y00644*
X00345Y00644*
X00345Y00644*
X00345Y00645*
X00345Y00645*
X00346Y00646*
Y00646*
X00346Y00646*
X00346Y00646*
X00346Y00646*
X00346Y00646*
X00346Y00646*
X00346Y00647*
X00346Y00647*
X00346Y00647*
X00346Y00648*
X00346Y00649*
X00346Y0065*
Y0065*
Y0065*
Y0065*
X00346Y0065*
Y0065*
X00346Y00651*
X00346Y00651*
X00346Y00651*
X00346Y00652*
X00346Y00653*
X00345Y00654*
X00345Y00654*
X00345Y00654*
Y00654*
X00345Y00654*
X00345Y00654*
X00345Y00654*
X00345Y00655*
X00344Y00655*
X00344Y00655*
X00344Y00656*
X00343Y00656*
X00343Y00656*
X00343Y00656*
X00343Y00656*
X00342Y00656*
X00342Y00657*
X00341Y00657*
X00341Y00657*
X00341Y00657*
X0034*
X0034Y00657*
G37*
G36*
X01235Y00816D02*
X01229Y00808D01*
X01235*
Y00816*
G37*
%LNpcb-3*%
%LPD*%
G54D10*
X01351Y00984D02*
D01*
X01351Y00983*
X01351Y00983*
X01351Y00983*
X01351Y00982*
X01351Y00982*
X01351Y00981*
X01352Y00981*
X01352Y00981*
X01352Y0098*
X01352Y0098*
X01353Y0098*
X01353Y00979*
X01353Y00979*
X01354Y00979*
X01354Y00979*
X01354Y00978*
X01355Y00978*
X01355Y00978*
X01356Y00978*
X01356Y00978*
X01356Y00978*
X01357Y00978*
X01357Y00978*
X01431D02*
D01*
X01431Y00978*
X01432Y00978*
X01432Y00978*
X01433Y00978*
X01433Y00978*
X01433Y00978*
X01434Y00979*
X01434Y00979*
X01435Y00979*
X01435Y00979*
X01435Y00979*
X01435Y0098*
X01436Y0098*
X01436Y0098*
X01436Y00981*
X01436Y00981*
X01437Y00982*
X01437Y00982*
X01437Y00982*
X01437Y00983*
X01437Y00983*
X01437Y00984*
X01437Y00984*
X01357Y0118D02*
D01*
X01357Y0118*
X01356Y0118*
X01356Y0118*
X01355Y01179*
X01355Y01179*
X01355Y01179*
X01354Y01179*
X01354Y01179*
X01353Y01179*
X01353Y01178*
X01353Y01178*
X01353Y01178*
X01352Y01177*
X01352Y01177*
X01352Y01177*
X01352Y01176*
X01351Y01176*
X01351Y01176*
X01351Y01175*
X01351Y01175*
X01351Y01174*
X01351Y01174*
X01351Y01174*
X01437D02*
D01*
X01437Y01174*
X01437Y01175*
X01437Y01175*
X01437Y01175*
X01437Y01176*
X01436Y01176*
X01436Y01176*
X01436Y01177*
X01436Y01177*
X01436Y01178*
X01435Y01178*
X01435Y01178*
X01435Y01178*
X01434Y01179*
X01434Y01179*
X01434Y01179*
X01433Y01179*
X01433Y01179*
X01432Y01179*
X01432Y0118*
X01432Y0118*
X01431Y0118*
X01431Y0118*
X01361Y00313D02*
D01*
X01362Y00313*
X01362Y00313*
X01363Y00313*
X01363Y00313*
X01363Y00313*
X01364Y00313*
X01364Y00314*
X01364Y00314*
X01365Y00314*
X01365Y00314*
X01365Y00315*
X01366Y00315*
X01366Y00315*
X01366Y00316*
X01366Y00316*
X01367Y00316*
X01367Y00317*
X01367Y00317*
X01367Y00317*
X01367Y00318*
X01367Y00318*
X01367Y00319*
X01367Y00319*
Y00393D02*
D01*
X01367Y00393*
X01367Y00394*
X01367Y00394*
X01367Y00395*
X01367Y00395*
X01367Y00395*
X01367Y00396*
X01366Y00396*
X01366Y00396*
X01366Y00397*
X01366Y00397*
X01365Y00397*
X01365Y00398*
X01365Y00398*
X01364Y00398*
X01364Y00398*
X01364Y00399*
X01363Y00399*
X01363Y00399*
X01362Y00399*
X01362Y00399*
X01361Y00399*
X01361Y00399*
X01165Y00319D02*
D01*
X01165Y00318*
X01165Y00318*
X01166Y00318*
X01166Y00317*
X01166Y00317*
X01166Y00316*
X01166Y00316*
X01166Y00316*
X01167Y00315*
X01167Y00315*
X01167Y00315*
X01167Y00314*
X01168Y00314*
X01168Y00314*
X01168Y00314*
X01169Y00314*
X01169Y00313*
X0117Y00313*
X0117Y00313*
X0117Y00313*
X01171Y00313*
X01171Y00313*
X01171Y00313*
Y00399D02*
D01*
X01171Y00399*
X01171Y00399*
X0117Y00399*
X0117Y00399*
X01169Y00399*
X01169Y00398*
X01169Y00398*
X01168Y00398*
X01168Y00398*
X01168Y00398*
X01167Y00397*
X01167Y00397*
X01167Y00397*
X01166Y00396*
X01166Y00396*
X01166Y00396*
X01166Y00395*
X01166Y00395*
X01166Y00394*
X01166Y00394*
X01165Y00394*
X01165Y00393*
X01165Y00393*
X00472Y00803D02*
D01*
X00472Y00804*
X00472Y00804*
X00472Y00805*
X00472Y00805*
X00472Y00805*
X00472Y00806*
X00471Y00806*
X00471Y00807*
X00471Y00807*
X00471Y00807*
X0047Y00808*
X0047Y00808*
X0047Y00808*
X00469Y00808*
X00469Y00809*
X00469Y00809*
X00468Y00809*
X00468Y00809*
X00468Y00809*
X00467Y00809*
X00467Y00809*
X00466Y00809*
X00466Y00809*
X00407D02*
D01*
X00407Y00809*
X00406Y00809*
X00406Y00809*
X00405Y00809*
X00405Y00809*
X00404Y00809*
X00404Y00809*
X00404Y00809*
X00403Y00808*
X00403Y00808*
X00403Y00808*
X00402Y00807*
X00402Y00807*
X00402Y00807*
X00402Y00806*
X00402Y00806*
X00401Y00806*
X00401Y00805*
X00401Y00805*
X00401Y00804*
X00401Y00804*
X00401Y00804*
X00401Y00803*
X00466Y00655D02*
D01*
X00466Y00655*
X00467Y00655*
X00467Y00655*
X00468Y00655*
X00468Y00655*
X00469Y00655*
X00469Y00656*
X00469Y00656*
X0047Y00656*
X0047Y00656*
X0047Y00657*
X00471Y00657*
X00471Y00657*
X00471Y00657*
X00471Y00658*
X00471Y00658*
X00472Y00659*
X00472Y00659*
X00472Y00659*
X00472Y0066*
X00472Y0066*
X00472Y00661*
X00472Y00661*
X00401D02*
D01*
X00401Y0066*
X00401Y0066*
X00401Y0066*
X00401Y00659*
X00401Y00659*
X00401Y00658*
X00402Y00658*
X00402Y00658*
X00402Y00657*
X00402Y00657*
X00403Y00657*
X00403Y00656*
X00403Y00656*
X00404Y00656*
X00404Y00656*
X00404Y00655*
X00405Y00655*
X00405Y00655*
X00405Y00655*
X00406Y00655*
X00406Y00655*
X00407Y00655*
X00407Y00655*
X01357Y00978D02*
X01431D01*
X01437Y00984D02*
Y01042D01*
X01351Y00984D02*
Y01042D01*
X01357Y0118D02*
X01431D01*
X01437Y01115D02*
Y01174D01*
X01351Y01115D02*
Y01174D01*
X01303Y00399D02*
X01361D01*
X01303Y00313D02*
X01361D01*
X01367Y00319D02*
Y00393D01*
X01171Y00399D02*
X0123D01*
X01171Y00313D02*
X0123D01*
X01165Y00319D02*
Y00393D01*
X01533Y00313D02*
X0158D01*
X01413D02*
X0146D01*
X01586Y00319D02*
Y00393D01*
X01407Y00319D02*
Y00393D01*
X01533Y00399D02*
X0158D01*
X01413D02*
X0146D01*
X01345Y00874D02*
X01395D01*
Y00946*
X01345D02*
X01395D01*
X01257Y00874D02*
X01307D01*
X01257D02*
Y00946D01*
X01307*
X01301Y01101D02*
Y01152D01*
X01229D02*
X01301D01*
X01229Y01101D02*
Y01152D01*
X01301Y01013D02*
Y01064D01*
X01229Y01013D02*
X01301D01*
X01229D02*
Y01064D01*
X0084Y00968D02*
X00891D01*
Y01041*
X0084D02*
X00891D01*
X00752Y00968D02*
X00803D01*
X00752D02*
Y01041D01*
X00803*
X00755Y00885D02*
X00805D01*
X00755Y00812D02*
Y00885D01*
Y00812D02*
X00805D01*
X00843Y00885D02*
X00893D01*
Y00812D02*
Y00885D01*
X00843Y00812D02*
X00893D01*
X01235Y00528D02*
X01303Y0046D01*
X01566*
X01235Y00724D02*
X01303Y00792D01*
X01566*
X00995Y002D02*
X01046D01*
Y00272*
X00995D02*
X01046D01*
X00907Y002D02*
X00958D01*
X00907D02*
Y00272D01*
X00958*
X01077Y00415D02*
Y00465D01*
X01005D02*
X01077D01*
X01005Y00415D02*
Y00465D01*
X01077Y00327D02*
Y00377D01*
X01005Y00327D02*
X01077D01*
X01005D02*
Y00377D01*
X00908Y00378D02*
X00965D01*
Y00362D02*
Y00431D01*
X00908Y00362D02*
Y00431D01*
X01077Y00605D02*
Y00655D01*
X01005D02*
X01077D01*
X01005Y00605D02*
Y00655D01*
X01077Y00517D02*
Y00567D01*
X01005Y00517D02*
X01077D01*
X01005D02*
Y00567D01*
X00895Y00517D02*
Y00567D01*
Y00517D02*
X00967D01*
Y00567*
X00895Y00605D02*
Y00655D01*
X00967*
Y00605D02*
Y00655D01*
X00407Y00809D02*
X00466D01*
X00401Y00748D02*
Y00803D01*
X00472Y00748D02*
Y00803D01*
X00407Y00655D02*
X00466D01*
X00401Y00661D02*
Y00716D01*
X00472Y00661D02*
Y00716D01*
X00377Y00694D02*
Y00763D01*
X0032Y00694D02*
Y00763D01*
Y00747D02*
X00377D01*
X00229Y00679D02*
X00236D01*
X00229D02*
Y0079D01*
X00291Y00679D02*
X00298D01*
Y0079*
X00229Y00773D02*
X00298D01*
X00317Y00863D02*
X00368D01*
Y00936*
X00317D02*
X00368D01*
X00229Y00863D02*
X0028D01*
X00229D02*
Y00936D01*
X0028*
X00991Y01093D02*
Y01064D01*
X01011*
X01041Y01093D02*
X01021D01*
Y01064*
X01041*
X01021Y01079D02*
X01031D01*
X01051Y01093D02*
Y01064D01*
X01065*
X0107Y01069*
Y01088*
X01065Y01093*
X01051*
X011Y01064D02*
X0108D01*
X011Y01084*
Y01088*
X01095Y01093*
X01085*
X0108Y01088*
X01017Y00932D02*
Y00903D01*
X01037*
X01067Y00932D02*
X01047D01*
Y00903*
X01067*
X01047Y00918D02*
X01057D01*
X01076Y00932D02*
Y00903D01*
X01091*
X01096Y00908*
Y00927*
X01091Y00932*
X01076*
X01106Y00903D02*
X01116D01*
X01111*
Y00932*
X01106Y00927*
G54D11*
X01496Y00323D02*
D01*
X01497Y00325*
X01498Y00327*
X01499Y00329*
X015Y00331*
X015Y00334*
X01501Y00336*
X01501Y00338*
Y0034*
X01501Y00343*
X015Y00345*
X015Y00347*
X01499Y0035*
X01498Y00352*
X01497Y00354*
X01496Y00356*
Y00389D02*
D01*
X01495Y00387*
X01494Y00385*
X01494Y00383*
X01493Y00381*
X01492Y00378*
X01492Y00376*
X01492Y00374*
Y00371*
X01492Y00369*
X01492Y00367*
X01493Y00365*
X01494Y00362*
X01494Y0036*
X01495Y00358*
X01496Y00356*
G54D12*
X0069Y0037D02*
D01*
X0069Y00371*
X0069Y00371*
X0069Y00371*
X0069Y00372*
X0069Y00372*
X0069Y00372*
X0069Y00373*
X0069Y00373*
X00689Y00373*
X00689Y00373*
X00689Y00374*
X00689Y00374*
X00689Y00374*
X00688Y00374*
X00688Y00375*
X00688Y00375*
X00687Y00375*
X00687Y00375*
X00687Y00375*
X00686Y00375*
X00686Y00375*
X00686Y00375*
X00685*
X00685Y00375*
X00685Y00375*
X00684Y00375*
X00684Y00375*
X00684Y00375*
X00683Y00375*
X00683Y00375*
X00683Y00374*
X00682Y00374*
X00682Y00374*
X00682Y00374*
X00682Y00373*
X00682Y00373*
X00681Y00373*
X00681Y00373*
X00681Y00372*
X00681Y00372*
X00681Y00372*
X00681Y00371*
X00681Y00371*
X00681Y00371*
X00681Y0037*
X00681Y0037*
X00681Y0037*
X00681Y00369*
X00681Y00369*
X00681Y00369*
X00681Y00368*
X00681Y00368*
X00681Y00368*
X00682Y00367*
X00682Y00367*
X00682Y00367*
X00682Y00367*
X00682Y00366*
X00683Y00366*
X00683Y00366*
X00683Y00366*
X00684Y00366*
X00684Y00366*
X00684Y00366*
X00685Y00365*
X00685Y00365*
X00685Y00365*
X00686*
X00686Y00365*
X00686Y00365*
X00687Y00366*
X00687Y00366*
X00687Y00366*
X00688Y00366*
X00688Y00366*
X00688Y00366*
X00689Y00366*
X00689Y00367*
X00689Y00367*
X00689Y00367*
X00689Y00367*
X0069Y00368*
X0069Y00368*
X0069Y00368*
X0069Y00369*
X0069Y00369*
X0069Y00369*
X0069Y0037*
X0069Y0037*
X0069Y0037*
G54D13*
X00556Y01028D02*
D01*
X00555Y01028*
X00555Y01028*
X00555Y01029*
X00555Y01029*
X00555Y01029*
X00555Y0103*
X00555Y0103*
X00555Y0103*
X00555Y0103*
X00554Y01031*
X00554Y01031*
X00554Y01031*
X00554Y01031*
X00553Y01032*
X00553Y01032*
X00553Y01032*
X00552Y01032*
X00552Y01032*
X00552Y01032*
X00551Y01032*
X00551Y01032*
X00551Y01032*
X0055*
X0055Y01032*
X0055Y01032*
X00549Y01032*
X00549Y01032*
X00549Y01032*
X00548Y01032*
X00548Y01032*
X00548Y01032*
X00547Y01031*
X00547Y01031*
X00547Y01031*
X00547Y01031*
X00546Y0103*
X00546Y0103*
X00546Y0103*
X00546Y0103*
X00546Y01029*
X00546Y01029*
X00546Y01029*
X00546Y01028*
X00546Y01028*
X00546Y01028*
X00546Y01027*
X00546Y01027*
X00546Y01026*
X00546Y01026*
X00546Y01026*
X00546Y01025*
X00546Y01025*
X00546Y01025*
X00546Y01025*
X00547Y01024*
X00547Y01024*
X00547Y01024*
X00547Y01024*
X00548Y01023*
X00548Y01023*
X00548Y01023*
X00549Y01023*
X00549Y01023*
X00549Y01023*
X0055Y01023*
X0055Y01023*
X0055Y01023*
X00551*
X00551Y01023*
X00551Y01023*
X00552Y01023*
X00552Y01023*
X00552Y01023*
X00553Y01023*
X00553Y01023*
X00553Y01023*
X00554Y01024*
X00554Y01024*
X00554Y01024*
X00554Y01024*
X00555Y01025*
X00555Y01025*
X00555Y01025*
X00555Y01025*
X00555Y01026*
X00555Y01026*
X00555Y01026*
X00555Y01027*
X00555Y01027*
X00556Y01028*
X01709Y00673D02*
X01785D01*
X01802Y00656*
Y00609D02*
Y00656D01*
X01786Y00593D02*
X01802Y00609D01*
X01709Y00593D02*
X01786D01*
X01709Y00476D02*
X01785D01*
X01802Y00459*
Y00412D02*
Y00459D01*
X01786Y00396D02*
X01802Y00412D01*
X01709Y00396D02*
X01786D01*
X01786Y00729D02*
Y00752D01*
X01758D02*
X01786D01*
X01758Y00729D02*
Y00752D01*
X01709Y00729D02*
X02114D01*
Y00335D02*
Y00729D01*
X01709Y00335D02*
X02114D01*
X01709D02*
Y00728D01*
X02056Y00729D02*
Y00752D01*
X02028D02*
X02056D01*
X02028Y00729D02*
Y00752D01*
X01819Y00335D02*
Y00729D01*
X01992Y00335D02*
Y00729D01*
X02057Y00335D02*
Y00729D01*
Y0074D02*
Y01133D01*
X01992Y0074D02*
Y01133D01*
X01819Y0074D02*
Y01133D01*
X02028D02*
Y01157D01*
X02056*
Y01133D02*
Y01157D01*
X01709Y0074D02*
Y01133D01*
Y0074D02*
X02114D01*
Y01133*
X01709D02*
X02114D01*
X01758Y01133D02*
Y01157D01*
X01786*
Y01133D02*
Y01157D01*
X01709Y008D02*
X01786D01*
X01802Y00816*
Y00863*
X01785Y0088D02*
X01802Y00863D01*
X01709Y0088D02*
X01785D01*
X01709Y00998D02*
X01786D01*
X01802Y01013*
Y01061*
X01785Y01077D02*
X01802Y01061D01*
X01709Y01077D02*
X01785D01*
X00969Y01044D02*
X01029D01*
X00954Y01029D02*
X00969Y01044D01*
X00954Y00979D02*
Y01029D01*
Y00979D02*
X0097Y00963D01*
X01028*
X01059Y01044D02*
X0112D01*
Y00964D02*
Y01044D01*
X01059Y00964D02*
X0112D01*
X01049Y00985D02*
Y01024D01*
X01034Y01001D02*
X01049Y00985D01*
X0103Y01005D02*
X01034Y01001D01*
X0103Y01005D02*
X01034Y01008D01*
X01049Y01024*
X01036Y00852D02*
X01052Y00868D01*
X01032Y00849D02*
X01036Y00852D01*
X01032Y00849D02*
X01036Y00845D01*
X01052Y00829*
Y00868*
X01062Y00808D02*
X01123D01*
Y00888*
X01062D02*
X01123D01*
X00973Y00807D02*
X01031D01*
X00957Y00823D02*
X00973Y00807D01*
X00957Y00823D02*
Y00873D01*
X00972Y00888*
X01032*
X01585Y01D02*
Y01167D01*
X01483D02*
X01495D01*
X01573D02*
X01585D01*
X01483Y01D02*
Y01167D01*
X00488Y00437D02*
Y00604D01*
X00385Y00437D02*
X00397D01*
X00476D02*
X00488D01*
X00385D02*
Y00604D01*
X00414Y00997D02*
Y00879D01*
X00547Y00997D02*
Y00879D01*
X00544D02*
X00547D01*
X00414D02*
X00417D01*
X00544Y00997D02*
X00547D01*
X00414D02*
X00417D01*
X00246Y00063D02*
X00255D01*
X00251*
Y00034*
X00246*
X00255*
X0027D02*
Y00053D01*
X00285*
X0029Y00048*
Y00034*
X00305D02*
Y00058D01*
Y00048*
X003*
X0031*
X00305*
Y00058*
X0031Y00063*
X00325Y00034D02*
X00335D01*
X0033*
Y00053*
X00325*
X0035Y00034D02*
Y00053D01*
X00365*
X0037Y00048*
Y00034*
X0038D02*
X0039D01*
X00385*
Y00053*
X0038*
X0041Y00058D02*
Y00053D01*
X00405*
X00415*
X0041*
Y00039*
X00415Y00034*
X00445D02*
X00435D01*
X0043Y00039*
Y00048*
X00435Y00053*
X00445*
X0045Y00048*
Y00043*
X0043*
X0046Y00034D02*
Y00063D01*
Y00043D02*
X00475Y00053D01*
X0046Y00043D02*
X00475Y00034D01*
X0052Y00053D02*
X0053Y00034D01*
X0054Y00053*
X0055Y00034D02*
X0056D01*
X00555*
Y00063*
X0055Y00058*
X00575Y00034D02*
Y00039D01*
X0058*
Y00034*
X00575*
X006Y00058D02*
X00605Y00063D01*
X00615*
X0062Y00058*
Y00039*
X00615Y00034*
X00605*
X006Y00039*
Y00058*
X00539Y01226D02*
Y01275D01*
X00555Y01259*
X00572Y01275*
Y01226*
X00588D02*
X00605D01*
X00597*
Y01259*
X00588*
X00663D02*
X00638D01*
X0063Y0125*
Y01234*
X00638Y01226*
X00663*
X0068Y01259D02*
Y01226D01*
Y01242*
X00688Y0125*
X00697Y01259*
X00705*
X00738Y01226D02*
X00755D01*
X00763Y01234*
Y0125*
X00755Y01259*
X00738*
X0073Y0125*
Y01234*
X00738Y01226*
X00813Y01267D02*
X00805Y01275D01*
X00788*
X0078Y01267*
Y01259*
X00788Y0125*
X00805*
X00813Y01242*
Y01234*
X00805Y01226*
X00788*
X0078Y01234*
X0083Y01259D02*
Y01234D01*
X00838Y01226*
X00863*
Y01259*
X0088Y01226D02*
Y01259D01*
X00905*
X00913Y0125*
Y01226*
X0098D02*
X00997D01*
X00988*
Y01275*
X0098Y01267*
X01022Y01226D02*
Y01234D01*
X0103*
Y01226*
X01022*
X01097Y01275D02*
X01063D01*
Y0125*
X0108Y01259*
X01088*
X01097Y0125*
Y01234*
X01088Y01226*
X01072*
X01063Y01234*
X01113Y01226D02*
Y01259D01*
X0113Y01275*
X01147Y01259*
Y01226*
Y0125*
X01113*
X0165Y00835D02*
X01644Y00828D01*
Y00815*
X0165Y00809*
X01657*
X01664Y00815*
Y00828*
X0167Y00835*
X01677*
X01684Y00828*
Y00815*
X01677Y00809*
X01644Y00868D02*
Y00855D01*
X0165Y00848*
X01677*
X01684Y00855*
Y00868*
X01677Y00875*
X0165*
X01644Y00868*
Y00888D02*
X01684D01*
Y00915*
X01664Y00968D02*
Y00995D01*
X0165Y00982D02*
X01677D01*
X01664Y01048D02*
Y01075D01*
X01647Y00414D02*
X01687D01*
Y00433*
X0168Y0044*
X01673*
X01667Y00433*
Y00414*
Y00433*
X0166Y0044*
X01653*
X01647Y00433*
Y00414*
X01687Y00453D02*
X0166D01*
X01647Y00467*
X0166Y0048*
X01687*
X01667*
Y00453*
X01647Y00493D02*
Y0052D01*
Y00507*
X01687*
X01667Y00573D02*
Y006D01*
X01653Y00587D02*
X0168D01*
X01667Y00653D02*
Y0068D01*
X00434Y01322D02*
Y01372D01*
X0045Y01355*
X00467Y01372*
Y01322*
X00483D02*
Y01372D01*
X00508*
X00517Y01364*
Y01347*
X00508Y01339*
X00483*
X00533Y01322D02*
Y01372D01*
X00558*
X00567Y01364*
Y01347*
X00558Y01339*
X00533*
X00583Y01372D02*
X00617D01*
X006*
Y01322*
X00717Y01364D02*
X00708Y01372D01*
X00692*
X00683Y01364*
Y01355*
X00692Y01347*
X00708*
X00717Y01339*
Y0133*
X00708Y01322*
X00692*
X00683Y0133*
X00742Y01322D02*
X00758D01*
X00767Y0133*
Y01347*
X00758Y01355*
X00742*
X00733Y01347*
Y0133*
X00742Y01322*
X00783D02*
X008D01*
X00792*
Y01372*
X00783*
X00833Y01355D02*
X0085D01*
X00858Y01347*
Y01322*
X00833*
X00825Y0133*
X00833Y01339*
X00858*
X00875Y01355D02*
Y01322D01*
Y01339*
X00883Y01347*
X00892Y01355*
X009*
X01008Y01364D02*
X01Y01372D01*
X00983*
X00975Y01364*
Y0133*
X00983Y01322*
X01*
X01008Y0133*
X01025Y01372D02*
Y01322D01*
Y01347*
X01033Y01355*
X0105*
X01058Y01347*
Y01322*
X01083Y01355D02*
X011D01*
X01108Y01347*
Y01322*
X01083*
X01075Y0133*
X01083Y01339*
X01108*
X01125Y01355D02*
Y01322D01*
Y01339*
X01133Y01347*
X01142Y01355*
X0115*
X01192Y01306D02*
X012D01*
X01208Y01314*
Y01355*
X01183*
X01175Y01347*
Y0133*
X01183Y01322*
X01208*
X0125D02*
X01233D01*
X01225Y0133*
Y01347*
X01233Y01355*
X0125*
X01258Y01347*
Y01339*
X01225*
X01275Y01355D02*
Y01322D01*
Y01339*
X01283Y01347*
X01292Y01355*
X013*
G54D14*
X01566Y00665D02*
Y00792D01*
X01235Y00528D02*
Y00587D01*
Y00665D02*
Y00724D01*
X01566Y00462D02*
Y00589D01*
X00908Y00431D02*
X00915D01*
X00957D02*
X00965D01*
X0032Y00694D02*
X00328D01*
X00369D02*
X00377D01*
G54D15*
X00835Y00398D02*
Y00697D01*
X00733Y00398D02*
X00835D01*
X00733Y00697D02*
X00835D01*
X00536Y00398D02*
Y00697D01*
Y00398D02*
X00638D01*
X00536Y00697D02*
X00638D01*
G54D16*
X00229Y00767D02*
X00298D01*
X00293Y0079D02*
X00298D01*
X00229D02*
X00234D01*
X00229Y00797D02*
X00234D01*
X00229Y0079D02*
Y00797D01*
X00298Y0079D02*
Y00797D01*
X00293D02*
X00298D01*
X00293Y0079D02*
Y00797D01*
X00234Y0079D02*
Y00797D01*
M02*