G04*
G04 #@! TF.GenerationSoftware,Altium Limited,Altium Designer,24.2.2 (26)*
G04*
G04 Layer_Color=8388736*
%FSLAX44Y44*%
%MOMM*%
G71*
G04*
G04 #@! TF.SameCoordinates,967F0760-92D6-49E7-A335-9EBDF73BCE5C*
G04*
G04*
G04 #@! TF.FilePolarity,Negative*
G04*
G01*
G75*
%ADD27R,1.8296X1.5866*%
%ADD28R,1.5866X1.8296*%
%ADD29R,1.3401X1.8780*%
%ADD30R,1.2341X1.4786*%
%ADD31R,1.4786X1.2341*%
%ADD32R,1.1500X1.5495*%
%ADD33R,2.3500X3.2501*%
%ADD34R,1.6740X1.6700*%
%ADD35R,4.4500X1.7500*%
%ADD36R,0.9000X1.1500*%
%ADD37R,1.8500X2.1500*%
%ADD38R,1.4516X1.5116*%
%ADD39R,1.3000X1.1000*%
%ADD40R,0.3556X0.8026*%
%ADD41R,2.6016X1.8009*%
%ADD42C,2.1016*%
%ADD43C,0.7500*%
%ADD44C,3.6500*%
D27*
X354202Y258202D02*
D03*
Y290054D02*
D03*
D28*
X337704Y90533D02*
D03*
X305852D02*
D03*
D29*
X394648D02*
D03*
X365748D02*
D03*
D30*
X346930Y231202D02*
D03*
X326930D02*
D03*
X218788Y255270D02*
D03*
X198788D02*
D03*
X199461Y215646D02*
D03*
X219461D02*
D03*
X258118Y60053D02*
D03*
X238118D02*
D03*
X85946Y228600D02*
D03*
X65946D02*
D03*
D31*
X321436Y285144D02*
D03*
Y265144D02*
D03*
X264628Y110693D02*
D03*
Y90693D02*
D03*
Y158953D02*
D03*
Y138953D02*
D03*
X236688D02*
D03*
Y158953D02*
D03*
D32*
X275171Y255270D02*
D03*
X254165D02*
D03*
X254838Y215646D02*
D03*
X275844D02*
D03*
D33*
X389762Y263209D02*
D03*
X110998Y144523D02*
D03*
D34*
X389762Y295207D02*
D03*
X110998Y112524D02*
D03*
D35*
X322338Y159113D02*
D03*
X389798D02*
D03*
D36*
X237958Y88967D02*
D03*
Y112419D02*
D03*
X88646Y173694D02*
D03*
Y197146D02*
D03*
D37*
X174244Y109192D02*
D03*
Y169192D02*
D03*
D38*
X110998Y196088D02*
D03*
Y176088D02*
D03*
D39*
X67056Y203614D02*
D03*
Y169766D02*
D03*
D40*
X134674Y252730D02*
D03*
X129675D02*
D03*
X124673D02*
D03*
X119674D02*
D03*
X114675D02*
D03*
X109674D02*
D03*
Y223774D02*
D03*
X114675D02*
D03*
X119674D02*
D03*
X124673D02*
D03*
X129675D02*
D03*
X134674D02*
D03*
D41*
X122174Y238252D02*
D03*
D42*
X487172Y160782D02*
D03*
Y110693D02*
D03*
Y213462D02*
D03*
Y263550D02*
D03*
D43*
X116586Y209804D02*
D03*
X111252Y201422D02*
D03*
X322072Y248412D02*
D03*
X263652Y236982D02*
D03*
X138938Y209804D02*
D03*
X185166Y255270D02*
D03*
X115062Y303530D02*
D03*
X181864Y215646D02*
D03*
X137414Y201422D02*
D03*
X148844Y90932D02*
D03*
Y224282D02*
D03*
X150114Y283972D02*
D03*
X149937Y264978D02*
D03*
X258278Y42273D02*
D03*
D44*
X30000Y30000D02*
D03*
X510640D02*
D03*
Y330000D02*
D03*
X30000D02*
D03*
M02*
