G04*
G04 #@! TF.GenerationSoftware,Altium Limited,Altium Designer,24.2.2 (26)*
G04*
G04 Layer_Color=255*
%FSLAX44Y44*%
%MOMM*%
G71*
G04*
G04 #@! TF.SameCoordinates,967F0760-92D6-49E7-A335-9EBDF73BCE5C*
G04*
G04*
G04 #@! TF.FilePolarity,Positive*
G04*
G01*
G75*
%ADD17R,1.1901X1.7280*%
%ADD18R,1.0000X1.3995*%
%ADD19R,2.2000X3.1001*%
%ADD20R,1.5240X1.5200*%
%ADD21R,4.3000X1.6000*%
%ADD22R,0.7500X1.0000*%
%ADD23R,1.7000X2.0000*%
%ADD24R,1.1500X0.9500*%
%ADD25R,0.2540X0.7010*%
%ADD26R,2.5000X1.6993*%
%ADD47R,1.7280X1.4850*%
%ADD48R,1.4850X1.7280*%
%ADD49R,1.1325X1.3770*%
%ADD50R,1.3770X1.1325*%
%ADD51R,1.3500X1.4100*%
%ADD52C,2.0000*%
D17*
X394648Y90533D02*
D03*
X365748D02*
D03*
D18*
X275171Y255270D02*
D03*
X254165D02*
D03*
X254838Y215646D02*
D03*
X275844D02*
D03*
D19*
X389762Y263209D02*
D03*
X110998Y144523D02*
D03*
D20*
X389762Y295207D02*
D03*
X110998Y112524D02*
D03*
D21*
X322338Y159113D02*
D03*
X389798D02*
D03*
D22*
X237958Y88967D02*
D03*
Y112419D02*
D03*
X88646Y173694D02*
D03*
Y197146D02*
D03*
D23*
X174244Y109192D02*
D03*
Y169192D02*
D03*
D24*
X67056Y203614D02*
D03*
Y169766D02*
D03*
D25*
X134674Y252730D02*
D03*
X129675D02*
D03*
X124673D02*
D03*
X119674D02*
D03*
X114675D02*
D03*
X109674D02*
D03*
Y223774D02*
D03*
X114675D02*
D03*
X119674D02*
D03*
X124673D02*
D03*
X129675D02*
D03*
X134674D02*
D03*
D26*
X122174Y238252D02*
D03*
D47*
X354202Y258202D02*
D03*
Y290054D02*
D03*
D48*
X337704Y90533D02*
D03*
X305852D02*
D03*
D49*
X346930Y231202D02*
D03*
X326930D02*
D03*
X218788Y255270D02*
D03*
X198788D02*
D03*
X199461Y215646D02*
D03*
X219461D02*
D03*
X258118Y60053D02*
D03*
X238118D02*
D03*
X85946Y228600D02*
D03*
X65946D02*
D03*
D50*
X321436Y285144D02*
D03*
Y265144D02*
D03*
X264628Y110693D02*
D03*
Y90693D02*
D03*
Y158953D02*
D03*
Y138953D02*
D03*
X236688D02*
D03*
Y158953D02*
D03*
D51*
X110998Y196088D02*
D03*
Y176088D02*
D03*
D52*
X487172Y160782D02*
D03*
Y110693D02*
D03*
Y213462D02*
D03*
Y263550D02*
D03*
M02*
