G04*
G04 #@! TF.GenerationSoftware,Altium Limited,Altium Designer,24.2.2 (26)*
G04*
G04 Layer_Color=8421504*
%FSLAX44Y44*%
%MOMM*%
G71*
G04*
G04 #@! TF.SameCoordinates,967F0760-92D6-49E7-A335-9EBDF73BCE5C*
G04*
G04*
G04 #@! TF.FilePolarity,Positive*
G04*
G01*
G75*
%ADD17R,1.1901X1.7280*%
%ADD18R,1.0000X1.3995*%
%ADD19R,2.2000X3.1001*%
%ADD20R,1.5240X1.5200*%
%ADD21R,4.3000X1.6000*%
%ADD22R,0.7500X1.0000*%
%ADD23R,1.7000X2.0000*%
%ADD24R,1.1500X0.9500*%
%ADD25R,0.2540X0.7010*%
%ADD26R,2.5000X1.6993*%
G36*
X362842Y296478D02*
Y283628D01*
X361842Y282628D01*
X358139D01*
X357139Y283628D01*
Y286677D01*
X356139Y287677D01*
X352264D01*
X351264Y286677D01*
Y283628D01*
X350264Y282628D01*
X346562D01*
X345562Y283628D01*
Y296478D01*
X346562Y297478D01*
X361842D01*
X362842Y296478D01*
D02*
G37*
G36*
X328336Y291644D02*
Y280144D01*
X327836Y279644D01*
X323735Y279594D01*
Y284094D01*
X319235D01*
Y279694D01*
X315036Y279644D01*
X314536Y280144D01*
Y291644D01*
X315036Y292144D01*
X327836D01*
X328336Y291644D01*
D02*
G37*
G36*
Y270144D02*
Y258644D01*
X327836Y258144D01*
X315036D01*
X314536Y258644D01*
Y270144D01*
X315036Y270644D01*
X319235Y270644D01*
Y266194D01*
X323735D01*
Y270594D01*
X327836Y270644D01*
X328336Y270144D01*
D02*
G37*
G36*
X362842Y264628D02*
Y251778D01*
X361842Y250778D01*
X346562D01*
X345562Y251778D01*
Y264628D01*
X346562Y265628D01*
X350264D01*
X351264Y264628D01*
Y261579D01*
X352264Y260579D01*
X356139D01*
X357139Y261579D01*
Y264628D01*
X358139Y265628D01*
X361842D01*
X362842Y264628D01*
D02*
G37*
G36*
X225788Y261670D02*
Y248870D01*
X225288Y248370D01*
X213788D01*
X213288Y248870D01*
X213288Y253070D01*
X217738D01*
Y257570D01*
X213338D01*
X213288Y261670D01*
X213788Y262170D01*
X225288D01*
X225788Y261670D01*
D02*
G37*
G36*
X204288D02*
X204338Y257570D01*
X199838D01*
Y253070D01*
X204238D01*
X204288Y248870D01*
X203788Y248370D01*
X192288D01*
X191788Y248870D01*
Y261670D01*
X192288Y262170D01*
X203788D01*
X204288Y261670D01*
D02*
G37*
G36*
X353930Y237602D02*
Y224802D01*
X353430Y224302D01*
X341930D01*
X341430Y224802D01*
X341430Y229002D01*
X345880D01*
Y233501D01*
X341480D01*
X341430Y237602D01*
X341930Y238102D01*
X353430D01*
X353930Y237602D01*
D02*
G37*
G36*
X332430D02*
X332480Y233501D01*
X327980D01*
Y229002D01*
X332380D01*
X332430Y224802D01*
X331930Y224302D01*
X320430D01*
X319930Y224802D01*
Y237602D01*
X320430Y238102D01*
X331930D01*
X332430Y237602D01*
D02*
G37*
G36*
X92946Y235000D02*
Y222200D01*
X92446Y221700D01*
X80946D01*
X80446Y222200D01*
X80396Y226301D01*
X84896D01*
Y230800D01*
X80496D01*
X80446Y235000D01*
X80946Y235500D01*
X92446D01*
X92946Y235000D01*
D02*
G37*
G36*
X71446D02*
X71446Y230800D01*
X66996D01*
Y226301D01*
X71396D01*
X71446Y222200D01*
X70946Y221700D01*
X59446D01*
X58946Y222200D01*
Y235000D01*
X59446Y235500D01*
X70946D01*
X71446Y235000D01*
D02*
G37*
G36*
X226461Y222046D02*
Y209246D01*
X225961Y208746D01*
X214461D01*
X213961Y209246D01*
X213961Y213446D01*
X218411D01*
Y217945D01*
X214011D01*
X213961Y222046D01*
X214461Y222546D01*
X225961D01*
X226461Y222046D01*
D02*
G37*
G36*
X204961D02*
X205011Y217945D01*
X200511D01*
Y213446D01*
X204911D01*
X204961Y209246D01*
X204461Y208746D01*
X192961D01*
X192461Y209246D01*
Y222046D01*
X192961Y222546D01*
X204461D01*
X204961Y222046D01*
D02*
G37*
G36*
X117898Y202638D02*
Y191138D01*
X117398Y190638D01*
X113298Y190587D01*
Y195088D01*
X108798D01*
Y190688D01*
X104598Y190638D01*
X104098Y191138D01*
Y202638D01*
X104598Y203138D01*
X117398D01*
X117898Y202638D01*
D02*
G37*
G36*
X108699Y177089D02*
X113198D01*
Y181489D01*
X117398Y181538D01*
X117898Y181038D01*
Y169538D01*
X117398Y169038D01*
X104598D01*
X104098Y169538D01*
Y181038D01*
X104598Y181538D01*
X108699Y181589D01*
Y177089D01*
D02*
G37*
G36*
X271528Y165453D02*
Y153953D01*
X271028Y153453D01*
X266828Y153453D01*
Y157903D01*
X262328D01*
Y153503D01*
X258228Y153453D01*
X257728Y153953D01*
Y165453D01*
X258228Y165953D01*
X271028D01*
X271528Y165453D01*
D02*
G37*
G36*
X243588D02*
Y153953D01*
X243088Y153453D01*
X238888Y153453D01*
Y157903D01*
X234388D01*
Y153503D01*
X230288Y153453D01*
X229788Y153953D01*
Y165453D01*
X230288Y165953D01*
X243088D01*
X243588Y165453D01*
D02*
G37*
G36*
X262328Y140003D02*
X266828D01*
Y144403D01*
X271028Y144453D01*
X271528Y143953D01*
Y132453D01*
X271028Y131953D01*
X258228D01*
X257728Y132453D01*
Y143953D01*
X258228Y144453D01*
X262328Y144503D01*
Y140003D01*
D02*
G37*
G36*
X234388D02*
X238888D01*
Y144403D01*
X243088Y144453D01*
X243588Y143953D01*
Y132453D01*
X243088Y131953D01*
X230288D01*
X229788Y132453D01*
Y143953D01*
X230288Y144453D01*
X234388Y144503D01*
Y140003D01*
D02*
G37*
G36*
X271528Y117193D02*
Y105693D01*
X271028Y105193D01*
X266828Y105193D01*
Y109643D01*
X262328D01*
Y105243D01*
X258228Y105193D01*
X257728Y105693D01*
Y117193D01*
X258228Y117693D01*
X271028D01*
X271528Y117193D01*
D02*
G37*
G36*
X262328Y91743D02*
X266828D01*
Y96143D01*
X271028Y96193D01*
X271528Y95693D01*
Y84193D01*
X271028Y83693D01*
X258228D01*
X257728Y84193D01*
Y95693D01*
X258228Y96193D01*
X262328Y96243D01*
Y91743D01*
D02*
G37*
G36*
X345128Y98173D02*
Y82893D01*
X344128Y81893D01*
X331278D01*
X330278Y82893D01*
Y86596D01*
X331278Y87596D01*
X334327D01*
X335327Y88596D01*
Y92471D01*
X334327Y93471D01*
X331278D01*
X330278Y94471D01*
Y98173D01*
X331278Y99173D01*
X344128D01*
X345128Y98173D01*
D02*
G37*
G36*
X313278D02*
Y94471D01*
X312278Y93471D01*
X309229D01*
X308229Y92471D01*
Y88596D01*
X309229Y87596D01*
X312278D01*
X313278Y86596D01*
Y82893D01*
X312278Y81893D01*
X299428D01*
X298428Y82893D01*
Y98173D01*
X299428Y99173D01*
X312278D01*
X313278Y98173D01*
D02*
G37*
G36*
X265118Y66453D02*
Y53653D01*
X264618Y53153D01*
X253118D01*
X252618Y53653D01*
X252568Y57754D01*
X257068D01*
Y62254D01*
X252668D01*
X252618Y66453D01*
X253118Y66953D01*
X264618D01*
X265118Y66453D01*
D02*
G37*
G36*
X243618D02*
X243618Y62254D01*
X239168D01*
Y57754D01*
X243568D01*
X243618Y53653D01*
X243118Y53153D01*
X231618D01*
X231118Y53653D01*
Y66453D01*
X231618Y66953D01*
X243118D01*
X243618Y66453D01*
D02*
G37*
D17*
X394648Y90533D02*
D03*
X365748D02*
D03*
D18*
X275171Y255270D02*
D03*
X254165D02*
D03*
X254838Y215646D02*
D03*
X275844D02*
D03*
D19*
X389762Y263209D02*
D03*
X110998Y144523D02*
D03*
D20*
X389762Y295207D02*
D03*
X110998Y112524D02*
D03*
D21*
X322338Y159113D02*
D03*
X389798D02*
D03*
D22*
X237958Y88967D02*
D03*
Y112419D02*
D03*
X88646Y173694D02*
D03*
Y197146D02*
D03*
D23*
X174244Y109192D02*
D03*
Y169192D02*
D03*
D24*
X67056Y203614D02*
D03*
Y169766D02*
D03*
D25*
X134674Y252730D02*
D03*
X129675D02*
D03*
X124673D02*
D03*
X119674D02*
D03*
X114675D02*
D03*
X109674D02*
D03*
Y223774D02*
D03*
X114675D02*
D03*
X119674D02*
D03*
X124673D02*
D03*
X129675D02*
D03*
X134674D02*
D03*
D26*
X122174Y238252D02*
D03*
M02*
