G04*
G04 #@! TF.GenerationSoftware,Altium Limited,Altium Designer,24.2.2 (26)*
G04*
G04 Layer_Color=8388736*
%FSLAX44Y44*%
%MOMM*%
G71*
G04*
G04 #@! TF.SameCoordinates,967F0760-92D6-49E7-A335-9EBDF73BCE5C*
G04*
G04*
G04 #@! TF.FilePolarity,Positive*
G04*
G01*
G75*
G36*
X68004Y199408D02*
X66108D01*
Y206992D01*
X68004D01*
Y199408D01*
D02*
G37*
G36*
X89346Y191430D02*
X87786D01*
Y197670D01*
X89346D01*
Y191430D01*
D02*
G37*
G36*
X89546Y176150D02*
X93946D01*
Y174590D01*
X89546D01*
Y172270D01*
X87986D01*
Y174590D01*
X83546D01*
Y176150D01*
X87986D01*
Y178510D01*
X89546D01*
Y176150D01*
D02*
G37*
G36*
X68034Y172076D02*
X73406D01*
Y170180D01*
X68034D01*
Y167336D01*
X66138D01*
Y170180D01*
X60766D01*
Y172076D01*
X66138D01*
Y174920D01*
X68034D01*
Y172076D01*
D02*
G37*
G36*
X112298Y113124D02*
X117798Y113124D01*
Y112724D01*
Y111124D01*
X112298D01*
Y105624D01*
X110298D01*
Y111124D01*
X104798D01*
X104798Y113124D01*
X110298Y113124D01*
Y118624D01*
X112298D01*
Y113124D01*
D02*
G37*
G36*
X110298Y144624D02*
Y157624D01*
X112298D01*
Y144624D01*
X111898D01*
X110298D01*
D01*
D02*
G37*
G36*
X238618Y111524D02*
X243057D01*
Y109964D01*
X238618D01*
Y107603D01*
X237058D01*
Y109964D01*
X232658D01*
Y111524D01*
X237058D01*
Y113843D01*
X238618D01*
Y111524D01*
D02*
G37*
G36*
X238818Y88444D02*
X237258D01*
Y94684D01*
X238818D01*
Y88444D01*
D02*
G37*
G36*
X260397Y214553D02*
X249398D01*
Y216553D01*
X260397D01*
Y214553D01*
D02*
G37*
G36*
X276751Y216242D02*
X281285D01*
Y214242D01*
X276751D01*
Y210087D01*
X274751D01*
Y214242D01*
X270285D01*
Y216242D01*
X274751D01*
Y221087D01*
X276751D01*
Y216242D01*
D02*
G37*
G36*
X323277Y160358D02*
X327012D01*
Y157868D01*
X323277D01*
Y150813D01*
X320787D01*
Y157868D01*
X317053D01*
Y160358D01*
X320787D01*
Y167413D01*
X323277D01*
Y160358D01*
D02*
G37*
G36*
X394572D02*
Y157868D01*
X384613D01*
Y160358D01*
X394572D01*
D01*
D02*
G37*
G36*
X259724Y254177D02*
X248724D01*
Y256177D01*
X259724D01*
Y254177D01*
D02*
G37*
G36*
X276078Y255866D02*
X280612D01*
Y253866D01*
X276078D01*
Y249711D01*
X274078D01*
Y253866D01*
X269612D01*
Y255866D01*
X274078D01*
Y260711D01*
X276078D01*
Y255866D01*
D02*
G37*
G36*
X390462Y296608D02*
X395962D01*
X395962Y294608D01*
X390462Y294608D01*
Y289108D01*
X388462D01*
Y294608D01*
X382962Y294608D01*
Y295008D01*
Y296608D01*
X388462D01*
Y302108D01*
X390462D01*
Y296608D01*
D02*
G37*
G36*
Y250108D02*
X388462D01*
Y263108D01*
X390462D01*
Y250108D01*
D02*
G37*
M02*
