M48
;Layer_Color=9474304
;FILE_FORMAT=4:4
METRIC,LZ
;TYPE=PLATED
T01F00S00C0.3000
T02F00S00C1.1999
T03F00S00C3.0000
%
T01
X00258278Y00042273
X00148844Y00090932
X00137414Y00201422
X00138938Y00209804
X00116586
X00111252Y00201422
X00148844Y00224282
X00181864Y00215646
X00185166Y0025527
X00149937Y00264978
X00150114Y00283972
X00115062Y0030353
X00263652Y00236982
X00322072Y00248412
T02
X00487172Y00110693
Y00160782
Y00213462
Y0026355
T03
X0003Y0003
X0051064
Y0033
X0003
M30
