G04*
G04 #@! TF.GenerationSoftware,Altium Limited,Altium Designer,24.2.2 (26)*
G04*
G04 Layer_Physical_Order=1*
G04 Layer_Color=255*
%FSLAX44Y44*%
%MOMM*%
G71*
G04*
G04 #@! TF.SameCoordinates,967F0760-92D6-49E7-A335-9EBDF73BCE5C*
G04*
G04*
G04 #@! TF.FilePolarity,Positive*
G04*
G01*
G75*
%ADD13C,0.2540*%
%ADD17R,1.1901X1.7280*%
%ADD18R,1.0000X1.3995*%
%ADD19R,2.2000X3.1001*%
%ADD20R,1.5240X1.5200*%
%ADD21R,4.3000X1.6000*%
%ADD22R,0.7500X1.0000*%
%ADD23R,1.7000X2.0000*%
%ADD24R,1.1500X0.9500*%
%ADD25R,0.2540X0.7010*%
%ADD26R,2.5000X1.6993*%
%ADD45C,1.0160*%
%ADD46C,0.5080*%
%ADD47R,1.7280X1.4850*%
%ADD48R,1.4850X1.7280*%
%ADD49R,1.1325X1.3770*%
%ADD50R,1.3770X1.1325*%
%ADD51R,1.3500X1.4100*%
%ADD52C,2.0000*%
%ADD53C,0.6000*%
%ADD54C,3.5000*%
G36*
X538981Y2039D02*
X2039D01*
Y359403D01*
X538981D01*
Y2039D01*
D02*
G37*
%LPC*%
G36*
X512489Y348770D02*
X508791D01*
X505165Y348049D01*
X501749Y346634D01*
X498675Y344580D01*
X496060Y341965D01*
X494006Y338891D01*
X492591Y335475D01*
X491870Y331849D01*
Y328151D01*
X492591Y324525D01*
X494006Y321109D01*
X496060Y318035D01*
X498675Y315420D01*
X501749Y313366D01*
X505165Y311951D01*
X508791Y311230D01*
X512489D01*
X516115Y311951D01*
X519531Y313366D01*
X522605Y315420D01*
X525220Y318035D01*
X527274Y321109D01*
X528689Y324525D01*
X529410Y328151D01*
Y331849D01*
X528689Y335475D01*
X527274Y338891D01*
X525220Y341965D01*
X522605Y344580D01*
X519531Y346634D01*
X516115Y348049D01*
X512489Y348770D01*
D02*
G37*
G36*
X31849D02*
X28151D01*
X24525Y348049D01*
X21109Y346634D01*
X18035Y344580D01*
X15420Y341965D01*
X13366Y338891D01*
X11951Y335475D01*
X11230Y331849D01*
Y328151D01*
X11951Y324525D01*
X13366Y321109D01*
X15420Y318035D01*
X18035Y315420D01*
X21109Y313366D01*
X24525Y311951D01*
X28151Y311230D01*
X31849D01*
X35475Y311951D01*
X38891Y313366D01*
X41965Y315420D01*
X44580Y318035D01*
X46634Y321109D01*
X48049Y324525D01*
X48770Y328151D01*
Y331849D01*
X48049Y335475D01*
X46634Y338891D01*
X44580Y341965D01*
X41965Y344580D01*
X38891Y346634D01*
X35475Y348049D01*
X31849Y348770D01*
D02*
G37*
G36*
X364112Y298749D02*
X354837D01*
Y290689D01*
X364112D01*
Y298749D01*
D02*
G37*
G36*
X353567D02*
X344292D01*
Y290689D01*
X353567D01*
Y298749D01*
D02*
G37*
G36*
X329591Y292077D02*
X322071D01*
Y285779D01*
X329591D01*
Y292077D01*
D02*
G37*
G36*
X320801D02*
X313281D01*
Y285779D01*
X320801D01*
Y292077D01*
D02*
G37*
G36*
X364112Y289419D02*
X354837D01*
Y281359D01*
X364112D01*
Y289419D01*
D02*
G37*
G36*
X353567D02*
X344292D01*
Y281359D01*
X353567D01*
Y289419D01*
D02*
G37*
G36*
X329591Y284509D02*
X322071D01*
Y278211D01*
X329591D01*
Y284509D01*
D02*
G37*
G36*
X320801D02*
X313281D01*
Y278211D01*
X320801D01*
Y284509D01*
D02*
G37*
G36*
X488656Y274820D02*
X487807D01*
Y264185D01*
X498442D01*
Y265034D01*
X497674Y267901D01*
X496190Y270470D01*
X494092Y272569D01*
X491522Y274052D01*
X488656Y274820D01*
D02*
G37*
G36*
X486537D02*
X485688D01*
X482822Y274052D01*
X480252Y272569D01*
X478154Y270470D01*
X476670Y267901D01*
X475902Y265034D01*
Y264185D01*
X486537D01*
Y274820D01*
D02*
G37*
G36*
X260435Y263538D02*
X247895D01*
Y259155D01*
X225721D01*
Y263425D01*
X211855D01*
Y247115D01*
X225721D01*
Y251385D01*
X247895D01*
Y247002D01*
X260435D01*
Y263538D01*
D02*
G37*
G36*
X109039Y257505D02*
X107134D01*
Y253365D01*
X109039D01*
Y257505D01*
D02*
G37*
G36*
X498442Y262915D02*
X487807D01*
Y252280D01*
X488656D01*
X491522Y253048D01*
X494092Y254532D01*
X496190Y256630D01*
X497674Y259200D01*
X498442Y262067D01*
Y262915D01*
D02*
G37*
G36*
X486537D02*
X475902D01*
Y262067D01*
X476670Y259200D01*
X478154Y256630D01*
X480252Y254532D01*
X482822Y253048D01*
X485688Y252280D01*
X486537D01*
Y262915D01*
D02*
G37*
G36*
X115911Y307800D02*
X114213D01*
X112643Y307150D01*
X111442Y305949D01*
X110792Y304379D01*
Y302681D01*
X111442Y301111D01*
X112085Y300468D01*
Y257505D01*
X110309D01*
Y252730D01*
X109674D01*
Y252095D01*
X107134D01*
Y247955D01*
X108404D01*
Y238887D01*
X122174D01*
X135944D01*
Y247955D01*
X137214D01*
Y250140D01*
X145542D01*
Y250129D01*
X147399Y250373D01*
X149129Y251090D01*
X150614Y252230D01*
X151754Y253715D01*
X152471Y255445D01*
X152715Y257302D01*
X152704D01*
Y261707D01*
X153385Y262388D01*
X156662D01*
Y262368D01*
X157191Y262149D01*
X157410Y261620D01*
X157430D01*
Y234950D01*
X157421D01*
X157656Y233160D01*
X158348Y231491D01*
X159447Y230059D01*
X160879Y228960D01*
X162548Y228269D01*
X164338Y228033D01*
Y228042D01*
X271286D01*
Y223914D01*
X269574D01*
Y207378D01*
X282114D01*
Y210237D01*
X340614D01*
Y210225D01*
X343257Y210573D01*
X345721Y211593D01*
X347836Y213216D01*
X349459Y215331D01*
X350479Y217794D01*
X350827Y220438D01*
X350814D01*
Y223047D01*
X353862D01*
Y239357D01*
X353404D01*
Y249507D01*
X364112D01*
Y251728D01*
X377492D01*
Y246438D01*
X402032D01*
Y279979D01*
X377492D01*
Y264676D01*
X364112D01*
Y266897D01*
X344292D01*
Y260392D01*
X342303Y257800D01*
X340930Y254486D01*
X340476Y251032D01*
X340455Y250930D01*
Y239357D01*
X339997D01*
Y223047D01*
X343045D01*
Y220438D01*
X343039D01*
X342855Y219510D01*
X342329Y218723D01*
X341542Y218197D01*
X340614Y218012D01*
Y218007D01*
X282114D01*
Y223914D01*
X279056D01*
Y231140D01*
Y247002D01*
X281441D01*
Y263538D01*
X268901D01*
Y247002D01*
X271286D01*
Y233222D01*
X267726D01*
X267200Y234492D01*
X267272Y234563D01*
X267922Y236133D01*
Y237831D01*
X267272Y239401D01*
X266071Y240602D01*
X264501Y241252D01*
X262803D01*
X261233Y240602D01*
X260203Y239572D01*
X174244D01*
Y239607D01*
X173402Y239774D01*
X172687Y240252D01*
X172210Y240966D01*
X172043Y241808D01*
X172008D01*
Y269240D01*
X172019D01*
X171775Y271097D01*
X171058Y272827D01*
X169918Y274312D01*
X168433Y275452D01*
X166703Y276169D01*
X164846Y276413D01*
Y276402D01*
X133604D01*
Y276479D01*
X131080Y275977D01*
X128940Y274547D01*
X128574Y273999D01*
X127304Y274384D01*
Y280162D01*
X127298Y280190D01*
X127649Y281037D01*
X128496Y281388D01*
X128524Y281382D01*
X146665D01*
X147695Y280352D01*
X149265Y279702D01*
X150963D01*
X152533Y280352D01*
X153734Y281553D01*
X154384Y283123D01*
Y284821D01*
X153734Y286391D01*
X152533Y287592D01*
X150963Y288242D01*
X149265D01*
X147695Y287592D01*
X146665Y286562D01*
X128524D01*
Y286636D01*
X126046Y286144D01*
X123946Y284740D01*
X123534Y284123D01*
X122264Y284509D01*
Y298236D01*
X122262Y298246D01*
X122582Y299856D01*
X123499Y301229D01*
X124872Y302146D01*
X126482Y302466D01*
X126492Y302464D01*
X173482D01*
Y302464D01*
X175018Y302159D01*
X176320Y301288D01*
X177191Y299986D01*
X177496Y298450D01*
X177496D01*
Y260350D01*
X177480D01*
X177742Y258361D01*
X178510Y256507D01*
X179731Y254915D01*
X181138Y253836D01*
X181546Y252851D01*
X182747Y251650D01*
X184317Y251000D01*
X186015D01*
X187585Y251650D01*
X188615Y252680D01*
X191855D01*
Y247115D01*
X205721D01*
Y263425D01*
X191855D01*
Y257860D01*
X188615D01*
X187585Y258890D01*
X186015Y259540D01*
X184317D01*
X184097Y259449D01*
X182725Y260255D01*
X182706Y260350D01*
X182676D01*
Y298450D01*
X182705D01*
X182391Y300837D01*
X181469Y303061D01*
X180004Y304972D01*
X178093Y306437D01*
X175869Y307359D01*
X173482Y307673D01*
Y307644D01*
X126492D01*
Y307675D01*
X124049Y307353D01*
X121773Y306410D01*
X120325Y305300D01*
X118967Y305542D01*
X118798Y305668D01*
X118682Y305949D01*
X117481Y307150D01*
X115911Y307800D01*
D02*
G37*
G36*
X135944Y237617D02*
X122174D01*
X108404D01*
Y228549D01*
X107134D01*
Y226364D01*
X92879D01*
Y236755D01*
X79013D01*
Y220445D01*
X92879D01*
Y221184D01*
X107134D01*
Y218999D01*
X117084D01*
Y214074D01*
X115737D01*
X114167Y213424D01*
X113137Y212394D01*
X73246D01*
Y212419D01*
X70967Y212119D01*
X68843Y211240D01*
X67020Y209840D01*
X66861Y209634D01*
X60036D01*
Y197594D01*
X74076D01*
Y207214D01*
X113137D01*
X114167Y206184D01*
X113636Y205056D01*
X112101Y205692D01*
X110403D01*
X108833Y205042D01*
X108199Y204408D01*
X102978D01*
Y199736D01*
X93666D01*
Y203416D01*
X83626D01*
Y190876D01*
X93666D01*
Y194556D01*
X102978D01*
Y187768D01*
X119018D01*
Y204408D01*
X118036D01*
X117783Y205678D01*
X119005Y206184D01*
X120206Y207385D01*
X120856Y208955D01*
X121557Y208896D01*
X122083Y208703D01*
Y188763D01*
X122056D01*
X122363Y186432D01*
X123263Y184259D01*
X124694Y182393D01*
X126560Y180962D01*
X128733Y180062D01*
X131064Y179755D01*
Y179782D01*
X164474D01*
Y157922D01*
X184014D01*
Y180462D01*
X176580D01*
Y186690D01*
X176605D01*
X176806Y187176D01*
X177292Y187377D01*
Y187402D01*
X214884D01*
Y187357D01*
X215528Y187229D01*
X216074Y186864D01*
X216439Y186318D01*
X216567Y185674D01*
X216612D01*
Y143256D01*
X216603D01*
X216838Y141470D01*
X217528Y139805D01*
X218624Y138376D01*
X220054Y137279D01*
X221718Y136589D01*
X223505Y136354D01*
Y136363D01*
X228533D01*
Y132021D01*
X244843D01*
Y145886D01*
X245855Y146508D01*
X255460D01*
X256473Y145886D01*
X256473Y145238D01*
Y132021D01*
X262038D01*
Y117626D01*
X256473D01*
Y113283D01*
X242978D01*
Y118689D01*
X232938D01*
Y113334D01*
X224282D01*
Y113343D01*
X222492Y113108D01*
X220823Y112416D01*
X219391Y111317D01*
X218291Y109885D01*
X217600Y108216D01*
X217365Y106426D01*
X217374D01*
Y85344D01*
X217374D01*
X217069Y83808D01*
X216198Y82506D01*
X214896Y81635D01*
X213360Y81330D01*
Y81330D01*
X54356D01*
X54269Y81312D01*
X52126Y81739D01*
X50236Y83002D01*
X48973Y84892D01*
X48546Y87035D01*
X48564Y87122D01*
Y221742D01*
X48561Y221754D01*
X48884Y223377D01*
X49810Y224764D01*
X51197Y225690D01*
X52820Y226013D01*
X52832Y226010D01*
X59013D01*
Y220445D01*
X72879D01*
Y236755D01*
X59013D01*
Y231190D01*
X52832D01*
Y231221D01*
X50379Y230898D01*
X48092Y229951D01*
X46129Y228445D01*
X44623Y226481D01*
X43676Y224195D01*
X43353Y221742D01*
X43384D01*
Y87122D01*
X43340D01*
X43715Y84271D01*
X44816Y81614D01*
X46566Y79332D01*
X48848Y77582D01*
X51505Y76481D01*
X54356Y76106D01*
Y76150D01*
X213360D01*
Y76121D01*
X215747Y76435D01*
X217971Y77357D01*
X219882Y78822D01*
X221347Y80733D01*
X222269Y82957D01*
X222583Y85344D01*
X222554D01*
Y106426D01*
X222599D01*
X222727Y107070D01*
X223092Y107616D01*
X223638Y107981D01*
X224282Y108109D01*
Y108154D01*
X232938D01*
Y106149D01*
X242978D01*
Y108103D01*
X256473D01*
Y103760D01*
X272783D01*
Y117626D01*
X267218D01*
Y132021D01*
X272783D01*
Y145238D01*
X272783Y145886D01*
X273795Y146508D01*
X283845D01*
X284327Y146461D01*
X285327Y146046D01*
X286000Y145373D01*
X286415Y144373D01*
X286462Y143891D01*
Y118625D01*
X286659Y117634D01*
X287626Y115300D01*
X288188Y114460D01*
X289974Y112674D01*
X290814Y112112D01*
X293148Y111145D01*
X294139Y110948D01*
X315595Y110948D01*
X316325Y110876D01*
X317783Y110273D01*
X318807Y109249D01*
X319410Y107791D01*
X319482Y107061D01*
Y75438D01*
X319482Y74688D01*
X319532Y74437D01*
X319532Y74182D01*
X319825Y72710D01*
X319922Y72474D01*
X319972Y72224D01*
X320546Y70837D01*
X320688Y70625D01*
X320786Y70390D01*
X321620Y69142D01*
X321800Y68961D01*
X321942Y68749D01*
X323003Y67688D01*
X323215Y67546D01*
X323396Y67366D01*
X324644Y66532D01*
X324879Y66434D01*
X325092Y66292D01*
X326478Y65718D01*
X326729Y65668D01*
X326964Y65571D01*
X328436Y65278D01*
X328691Y65278D01*
X328942Y65228D01*
X329692Y65228D01*
X376682D01*
X377692Y65228D01*
X378684Y65425D01*
X380551Y66199D01*
X381391Y66760D01*
X382820Y68189D01*
X383381Y69029D01*
X383381Y69029D01*
X384155Y70896D01*
X384155Y70897D01*
X384352Y71887D01*
X384352Y72898D01*
X384352Y72898D01*
Y100838D01*
X384352Y104648D01*
X384352Y105911D01*
X384263Y106359D01*
X384155Y106902D01*
X384155Y106902D01*
X383188Y109236D01*
X382626Y110076D01*
X380840Y111863D01*
X380526Y112072D01*
X380000Y112424D01*
X380000Y112424D01*
X377666Y113390D01*
X377666Y113390D01*
X376675Y113587D01*
X375412Y113587D01*
X375412Y113587D01*
X364045Y113588D01*
X363304Y113624D01*
X361788Y113926D01*
X360419Y114493D01*
X359188Y115316D01*
X358140Y116363D01*
X357317Y117595D01*
X356750Y118964D01*
X356448Y120480D01*
X356412Y121222D01*
X356412Y171958D01*
X356412Y172708D01*
X356362Y172959D01*
X356362Y173214D01*
X356069Y174686D01*
X355972Y174922D01*
X355922Y175172D01*
X355347Y176558D01*
X355206Y176771D01*
X355108Y177006D01*
X354274Y178254D01*
X354094Y178435D01*
X353952Y178647D01*
X352891Y179708D01*
X352678Y179850D01*
X352498Y180030D01*
X351250Y180864D01*
X351014Y180962D01*
X350802Y181103D01*
X349415Y181678D01*
X349165Y181727D01*
X348929Y181825D01*
X347890Y182032D01*
X347728Y182032D01*
X347573Y182075D01*
X346397Y182160D01*
X346302Y182149D01*
X346209Y182167D01*
X346204D01*
X346201Y182168D01*
X239277Y182168D01*
Y192064D01*
X239291D01*
X239039Y193977D01*
X238301Y195759D01*
X237127Y197289D01*
X235597Y198463D01*
X233814Y199202D01*
X231902Y199453D01*
Y199440D01*
X163068D01*
Y199485D01*
X162424Y199613D01*
X161878Y199978D01*
X161513Y200524D01*
X161385Y201168D01*
X161340D01*
Y205486D01*
X161349D01*
X161113Y207276D01*
X160422Y208945D01*
X159323Y210377D01*
X157891Y211476D01*
X156222Y212167D01*
X154432Y212403D01*
Y212394D01*
X142387D01*
X141357Y213424D01*
X139787Y214074D01*
X138089D01*
X136519Y213424D01*
X135318Y212223D01*
X134668Y210653D01*
Y208955D01*
X135318Y207385D01*
X135908Y206795D01*
X135611Y205297D01*
X134995Y205042D01*
X133965Y204012D01*
X133604D01*
X133560Y204003D01*
X132638Y204385D01*
X132256Y205308D01*
X132264Y205351D01*
Y218999D01*
X137214D01*
Y221184D01*
X145903D01*
X146425Y220662D01*
X147995Y220012D01*
X149693D01*
X151263Y220662D01*
X152464Y221863D01*
X153114Y223433D01*
Y225131D01*
X152464Y226701D01*
X151263Y227902D01*
X149693Y228552D01*
X147995D01*
X146425Y227902D01*
X145224Y226701D01*
X145084Y226364D01*
X137214D01*
Y228549D01*
X135944D01*
Y237617D01*
D02*
G37*
G36*
X329591Y272077D02*
X313281D01*
Y258211D01*
X314961D01*
Y236696D01*
X315027Y236366D01*
X315391Y233604D01*
X316584Y230723D01*
X318482Y228249D01*
X319997Y227087D01*
Y223047D01*
X333862D01*
Y239357D01*
X327910D01*
Y258211D01*
X329591D01*
Y272077D01*
D02*
G37*
G36*
X261108Y223914D02*
X248568D01*
Y219531D01*
X226394D01*
Y223801D01*
X212528D01*
Y207491D01*
X226394D01*
Y211761D01*
X248568D01*
Y207378D01*
X261108D01*
Y223914D01*
D02*
G37*
G36*
X206394Y223801D02*
X192528D01*
Y218236D01*
X185313D01*
X184283Y219266D01*
X182713Y219916D01*
X181015D01*
X179445Y219266D01*
X178244Y218065D01*
X177594Y216495D01*
Y214797D01*
X178244Y213227D01*
X179445Y212026D01*
X181015Y211376D01*
X182713D01*
X184283Y212026D01*
X185313Y213056D01*
X192528D01*
Y207491D01*
X206394D01*
Y223801D01*
D02*
G37*
G36*
X398652Y304077D02*
X380872D01*
Y286338D01*
X398652D01*
Y289690D01*
X441960D01*
X442072Y289712D01*
X442901Y289547D01*
X443700Y289014D01*
X444233Y288216D01*
X444398Y287386D01*
X444376Y287274D01*
Y225044D01*
X444450Y224669D01*
X444759Y221529D01*
X445785Y218148D01*
X447450Y215033D01*
X449691Y212302D01*
X452421Y210062D01*
X455537Y208396D01*
X458917Y207371D01*
X462057Y207062D01*
X462432Y206987D01*
X477896D01*
X478154Y206542D01*
X480252Y204443D01*
X482822Y202960D01*
X485688Y202192D01*
X488656D01*
X491522Y202960D01*
X494092Y204443D01*
X496190Y206542D01*
X497674Y209111D01*
X498442Y211978D01*
Y214945D01*
X497674Y217812D01*
X496190Y220382D01*
X494092Y222480D01*
X491522Y223964D01*
X488656Y224732D01*
X485688D01*
X482822Y223964D01*
X480252Y222480D01*
X478154Y220382D01*
X477896Y219936D01*
X462432D01*
X462188Y219887D01*
X460440Y220235D01*
X458752Y221363D01*
X457623Y223052D01*
X457276Y224799D01*
X457324Y225044D01*
Y287274D01*
X457224Y287779D01*
X456979Y290262D01*
X456108Y293134D01*
X454693Y295782D01*
X452789Y298102D01*
X450468Y300007D01*
X447820Y301422D01*
X444948Y302293D01*
X442465Y302538D01*
X441960Y302638D01*
X398652D01*
Y304077D01*
D02*
G37*
G36*
X93666Y179964D02*
X83626D01*
Y172356D01*
X74076D01*
Y175786D01*
X60036D01*
Y163746D01*
X74076D01*
Y167176D01*
X84718D01*
Y167099D01*
X86351Y167424D01*
X93666D01*
Y179964D01*
D02*
G37*
G36*
X488656Y172052D02*
X487807D01*
Y161417D01*
X498442D01*
Y162266D01*
X497674Y165132D01*
X496190Y167702D01*
X494092Y169800D01*
X491522Y171284D01*
X488656Y172052D01*
D02*
G37*
G36*
X486537D02*
X485688D01*
X482822Y171284D01*
X480252Y169800D01*
X478154Y167702D01*
X476670Y165132D01*
X475902Y162266D01*
Y161417D01*
X486537D01*
Y172052D01*
D02*
G37*
G36*
X412568Y168383D02*
X390433D01*
Y159748D01*
X412568D01*
Y168383D01*
D02*
G37*
G36*
X389163D02*
X367028D01*
Y159748D01*
X389163D01*
Y168383D01*
D02*
G37*
G36*
X412568Y158478D02*
X390433D01*
Y149843D01*
X412568D01*
Y158478D01*
D02*
G37*
G36*
X389163D02*
X367028D01*
Y149843D01*
X389163D01*
Y158478D01*
D02*
G37*
G36*
X119018Y184408D02*
X102978D01*
Y167768D01*
X108408D01*
Y161294D01*
X98728D01*
Y149656D01*
X93472D01*
Y149672D01*
X91483Y149410D01*
X89629Y148642D01*
X88037Y147421D01*
X86816Y145829D01*
X86048Y143975D01*
X85786Y141986D01*
X85802D01*
Y96520D01*
X85782D01*
X86061Y94398D01*
X86880Y92421D01*
X88183Y90723D01*
X89881Y89420D01*
X91858Y88601D01*
X93980Y88322D01*
Y88342D01*
X145395D01*
X146425Y87312D01*
X147995Y86662D01*
X149693D01*
X151263Y87312D01*
X152293Y88342D01*
X170180D01*
Y88335D01*
X171904Y88562D01*
X173510Y89227D01*
X174890Y90286D01*
X175949Y91665D01*
X176614Y93272D01*
X176841Y94996D01*
X176834D01*
Y97922D01*
X184014D01*
Y120462D01*
X164474D01*
Y97922D01*
X171654D01*
Y94996D01*
X171667Y94934D01*
X171249Y93927D01*
X170242Y93510D01*
X170180Y93522D01*
X152293D01*
X151263Y94552D01*
X149693Y95202D01*
X147995D01*
X146425Y94552D01*
X145395Y93522D01*
X93980D01*
Y93542D01*
X92840Y93769D01*
X91874Y94414D01*
X91229Y95380D01*
X91002Y96520D01*
X90982D01*
Y141986D01*
X91012D01*
X91199Y142928D01*
X91732Y143726D01*
X92530Y144259D01*
X93472Y144446D01*
Y144476D01*
X98728D01*
Y127753D01*
X123268D01*
Y161294D01*
X113588D01*
Y167768D01*
X119018D01*
Y184408D01*
D02*
G37*
G36*
X498442Y160147D02*
X487807D01*
Y149512D01*
X488656D01*
X491522Y150280D01*
X494092Y151764D01*
X496190Y153862D01*
X497674Y156432D01*
X498442Y159298D01*
Y160147D01*
D02*
G37*
G36*
X486537D02*
X475902D01*
Y159298D01*
X476670Y156432D01*
X478154Y153862D01*
X480252Y151764D01*
X482822Y150280D01*
X485688Y149512D01*
X486537D01*
Y160147D01*
D02*
G37*
G36*
X119888Y121395D02*
X111633D01*
Y113160D01*
X119888D01*
Y121395D01*
D02*
G37*
G36*
X110363D02*
X102108D01*
Y113160D01*
X110363D01*
Y121395D01*
D02*
G37*
G36*
X119888Y111889D02*
X111633D01*
Y103655D01*
X119888D01*
Y111889D01*
D02*
G37*
G36*
X110363D02*
X102108D01*
Y103655D01*
X110363D01*
Y111889D01*
D02*
G37*
G36*
X488656Y121963D02*
X485688D01*
X482822Y121195D01*
X480252Y119711D01*
X478154Y117613D01*
X476670Y115043D01*
X475902Y112177D01*
Y109209D01*
X476670Y106343D01*
X478154Y103773D01*
X480252Y101675D01*
X480698Y101418D01*
Y100693D01*
X480732Y100518D01*
X480481Y99256D01*
X479667Y98038D01*
X478449Y97224D01*
X477187Y96973D01*
X477012Y97008D01*
X401868D01*
Y100443D01*
X387427D01*
Y80623D01*
X401868D01*
Y84059D01*
X477012D01*
X477455Y84147D01*
X480248Y84422D01*
X483361Y85366D01*
X486229Y86899D01*
X488743Y88962D01*
X490806Y91476D01*
X492339Y94345D01*
X493283Y97457D01*
X493558Y100250D01*
X493646Y100693D01*
Y101418D01*
X494092Y101675D01*
X496190Y103773D01*
X497674Y106343D01*
X498442Y109209D01*
Y112177D01*
X497674Y115043D01*
X496190Y117613D01*
X494092Y119711D01*
X491522Y121195D01*
X488656Y121963D01*
D02*
G37*
G36*
X272783Y97626D02*
X265263D01*
Y91328D01*
X272783D01*
Y97626D01*
D02*
G37*
G36*
X263993D02*
X256473D01*
Y91328D01*
X263993D01*
Y97626D01*
D02*
G37*
G36*
X314547Y100443D02*
X306487D01*
Y91168D01*
X314547D01*
Y100443D01*
D02*
G37*
G36*
X305217D02*
X297157D01*
Y91168D01*
X305217D01*
Y100443D01*
D02*
G37*
G36*
X272783Y90058D02*
X265263D01*
Y83761D01*
X272783D01*
Y90058D01*
D02*
G37*
G36*
X263993D02*
X256473D01*
Y83761D01*
X263993D01*
Y90058D01*
D02*
G37*
G36*
X314547Y89898D02*
X306487D01*
Y80623D01*
X314547D01*
Y89898D01*
D02*
G37*
G36*
X305217D02*
X297157D01*
Y80623D01*
X305217D01*
Y89898D01*
D02*
G37*
G36*
X237958Y95442D02*
X236930Y95237D01*
X232938D01*
Y92884D01*
X231976Y91445D01*
X231483Y88967D01*
Y68208D01*
X231185D01*
Y51898D01*
X245050D01*
Y68208D01*
X244432D01*
Y88967D01*
X243939Y91445D01*
X242978Y92884D01*
Y95237D01*
X238985D01*
X237958Y95442D01*
D02*
G37*
G36*
X265050Y68208D02*
X251185D01*
Y51898D01*
X255528D01*
Y45562D01*
X254658Y44692D01*
X254008Y43123D01*
Y41424D01*
X254658Y39855D01*
X255859Y38653D01*
X257428Y38003D01*
X259127D01*
X260697Y38653D01*
X261898Y39855D01*
X262548Y41424D01*
Y43123D01*
X261898Y44692D01*
X260707Y45882D01*
Y51898D01*
X265050D01*
Y68208D01*
D02*
G37*
G36*
X512489Y48770D02*
X508791D01*
X505165Y48049D01*
X501749Y46634D01*
X498675Y44580D01*
X496060Y41965D01*
X494006Y38891D01*
X492591Y35475D01*
X491870Y31849D01*
Y28151D01*
X492591Y24525D01*
X494006Y21109D01*
X496060Y18035D01*
X498675Y15420D01*
X501749Y13366D01*
X505165Y11951D01*
X508791Y11230D01*
X512489D01*
X516115Y11951D01*
X519531Y13366D01*
X522605Y15420D01*
X525220Y18035D01*
X527274Y21109D01*
X528689Y24525D01*
X529410Y28151D01*
Y31849D01*
X528689Y35475D01*
X527274Y38891D01*
X525220Y41965D01*
X522605Y44580D01*
X519531Y46634D01*
X516115Y48049D01*
X512489Y48770D01*
D02*
G37*
G36*
X31849D02*
X28151D01*
X24525Y48049D01*
X21109Y46634D01*
X18035Y44580D01*
X15420Y41965D01*
X13366Y38891D01*
X11951Y35475D01*
X11230Y31849D01*
Y28151D01*
X11951Y24525D01*
X13366Y21109D01*
X15420Y18035D01*
X18035Y15420D01*
X21109Y13366D01*
X24525Y11951D01*
X28151Y11230D01*
X31849D01*
X35475Y11951D01*
X38891Y13366D01*
X41965Y15420D01*
X44580Y18035D01*
X46634Y21109D01*
X48049Y24525D01*
X48770Y28151D01*
Y31849D01*
X48049Y35475D01*
X46634Y38891D01*
X44580Y41965D01*
X41965Y44580D01*
X38891Y46634D01*
X35475Y48049D01*
X31849Y48770D01*
D02*
G37*
%LPD*%
G36*
X133604Y271222D02*
X164846D01*
Y271182D01*
X165589Y271035D01*
X166219Y270613D01*
X166640Y269983D01*
X166788Y269240D01*
X166828D01*
Y241808D01*
X166814D01*
X167068Y239885D01*
X167810Y238093D01*
X168990Y236555D01*
X170529Y235374D01*
X172321Y234632D01*
X173383Y234492D01*
X173300Y233222D01*
X164338D01*
Y233267D01*
X163694Y233395D01*
X163148Y233760D01*
X162783Y234306D01*
X162655Y234950D01*
X162610D01*
Y261620D01*
X162675D01*
X162218Y263921D01*
X160914Y265872D01*
X158963Y267176D01*
X156662Y267633D01*
Y267568D01*
X153385D01*
X152355Y268598D01*
X150786Y269248D01*
X149087D01*
X147518Y268598D01*
X146317Y267397D01*
X145667Y265827D01*
Y264129D01*
X146317Y262559D01*
X147518Y261358D01*
X147524Y261355D01*
Y257302D01*
X147484D01*
X147337Y256559D01*
X146915Y255929D01*
X146285Y255508D01*
X145542Y255360D01*
Y255320D01*
X137214D01*
Y257505D01*
X132264D01*
Y269883D01*
X132256Y269926D01*
X132638Y270849D01*
X133560Y271231D01*
X133604Y271222D01*
D02*
G37*
G36*
X154432Y207169D02*
X155076Y207041D01*
X155622Y206676D01*
X155987Y206130D01*
X156115Y205486D01*
X156160D01*
Y201168D01*
X156151D01*
X156386Y199378D01*
X157078Y197709D01*
X158177Y196277D01*
X159609Y195177D01*
X161278Y194487D01*
X163068Y194251D01*
Y194260D01*
X231902D01*
Y194224D01*
X232729Y194060D01*
X233430Y193592D01*
X233898Y192891D01*
X234062Y192064D01*
X234098D01*
Y182168D01*
X231648D01*
X230973Y182168D01*
X230722Y182118D01*
X230467D01*
X229142Y181854D01*
X228907Y181757D01*
X228657Y181707D01*
X227408Y181190D01*
X227196Y181048D01*
X226961Y180951D01*
X225837Y180200D01*
X225657Y180020D01*
X225445Y179878D01*
X224490Y178923D01*
X224348Y178711D01*
X224167Y178531D01*
X223417Y177407D01*
X223319Y177171D01*
X223178Y176959D01*
X223062Y176679D01*
X221792Y176932D01*
Y185674D01*
X221801D01*
X221565Y187464D01*
X220875Y189133D01*
X219775Y190565D01*
X218343Y191665D01*
X216674Y192355D01*
X214884Y192591D01*
Y192582D01*
X177292D01*
Y192647D01*
X175013Y192193D01*
X173080Y190902D01*
X171789Y188969D01*
X171336Y186690D01*
X171336D01*
X171067Y185531D01*
X170434Y185012D01*
X169247Y184962D01*
X131064D01*
Y184966D01*
X129611Y185255D01*
X128379Y186078D01*
X127556Y187310D01*
X127267Y188763D01*
X127263D01*
Y200911D01*
X128533Y201296D01*
X128940Y200687D01*
X131080Y199257D01*
X133604Y198755D01*
Y198755D01*
X134630Y198167D01*
X134995Y197802D01*
X136565Y197152D01*
X138263D01*
X139833Y197802D01*
X141034Y199003D01*
X141684Y200573D01*
Y202271D01*
X141034Y203841D01*
X140443Y204431D01*
X140742Y205929D01*
X141357Y206184D01*
X142387Y207214D01*
X154432D01*
Y207169D01*
D02*
G37*
G36*
X346202Y179578D02*
X346202Y179578D01*
X346209D01*
X347385Y179492D01*
X348424Y179285D01*
X349811Y178711D01*
X351059Y177877D01*
X352121Y176815D01*
X352955Y175567D01*
X353529Y174181D01*
X353822Y172708D01*
X353822Y171958D01*
X353822Y121158D01*
X353871Y120162D01*
X354259Y118209D01*
X355022Y116369D01*
X356128Y114712D01*
X357537Y113304D01*
X359193Y112198D01*
X361033Y111435D01*
X362986Y111047D01*
X363982Y110998D01*
X375412Y110997D01*
X375412Y110997D01*
X375412Y110997D01*
X376675Y110998D01*
X379009Y110031D01*
X380795Y108245D01*
X381762Y105911D01*
X381762Y104648D01*
X381762Y100838D01*
Y72898D01*
X381762Y72898D01*
X381762Y71887D01*
X380989Y70020D01*
X379560Y68591D01*
X377692Y67818D01*
X376682Y67818D01*
X329692D01*
X328941Y67818D01*
X327469Y68111D01*
X326082Y68685D01*
X324834Y69519D01*
X323773Y70580D01*
X322939Y71828D01*
X322365Y73215D01*
X322072Y74688D01*
X322072Y75438D01*
Y107188D01*
X322072D01*
X322072Y107188D01*
X321950Y108427D01*
X321002Y110716D01*
X319250Y112468D01*
X316961Y113416D01*
X315722Y113538D01*
X294139Y113538D01*
X291805Y114505D01*
X290019Y116291D01*
X289052Y118625D01*
Y144018D01*
X288954Y145009D01*
X288196Y146840D01*
X286794Y148242D01*
X284963Y149000D01*
X283972Y149098D01*
X231140D01*
X229877Y149098D01*
X227543Y150065D01*
X225757Y151851D01*
X224790Y154185D01*
X224790Y155448D01*
X224790Y172720D01*
X224790Y172720D01*
X224790Y172720D01*
X224891Y173903D01*
X225053Y174720D01*
X225570Y175968D01*
X226321Y177092D01*
X227276Y178047D01*
X228399Y178797D01*
X229648Y179314D01*
X230972Y179578D01*
X231648Y179578D01*
X234098D01*
Y158953D01*
X234295Y157962D01*
X234856Y157122D01*
X235697Y156561D01*
X236688Y156363D01*
X237679Y156561D01*
X238519Y157122D01*
X239080Y157962D01*
X239277Y158953D01*
Y179578D01*
X346201Y179578D01*
X346202Y179578D01*
D02*
G37*
D13*
X45974Y87122D02*
G03*
X54356Y78740I8382J0D01*
G01*
X213360D02*
G03*
X219964Y85344I0J6604D01*
G01*
X52832Y228600D02*
G03*
X45974Y221742I0J-6858D01*
G01*
X116586Y209804D02*
G03*
X119674Y212892I0J3088D01*
G01*
X73246Y209804D02*
G03*
X67056Y203614I0J-6190D01*
G01*
X85946Y228600D02*
G03*
X90772Y223774I4826J0D01*
G01*
X224282Y110744D02*
G03*
X219964Y106426I0J-4318D01*
G01*
X170180Y90932D02*
G03*
X174244Y94996I0J4064D01*
G01*
X110998Y144523D02*
G03*
X108455Y147066I-2542J0D01*
G01*
X93472D02*
G03*
X88392Y141986I0J-5080D01*
G01*
Y96520D02*
G03*
X93980Y90932I5588J0D01*
G01*
X84718Y169766D02*
G03*
X88646Y173694I0J3928D01*
G01*
X110998Y196088D02*
G03*
X109940Y197146I-1058J0D01*
G01*
X274663Y230632D02*
G03*
X275171Y231140I0J508D01*
G01*
X160020Y234950D02*
G03*
X164338Y230632I4318J0D01*
G01*
X160020Y261620D02*
G03*
X156662Y264978I-3358J0D01*
G01*
X169418Y241808D02*
G03*
X174244Y236982I4826J0D01*
G01*
X169418Y269240D02*
G03*
X164846Y273812I-4572J0D01*
G01*
X133604D02*
G03*
X129675Y269883I0J-3929D01*
G01*
X158750Y205486D02*
G03*
X154432Y209804I-4318J0D01*
G01*
X158750Y201168D02*
G03*
X163068Y196850I4318J0D01*
G01*
X236688Y192064D02*
G03*
X231902Y196850I-4786J0D01*
G01*
X124673Y188763D02*
G03*
X131064Y182372I6391J0D01*
G01*
X172974Y179832D02*
G03*
X170434Y182372I-2540J0D01*
G01*
X173990Y169446D02*
G03*
X174244Y169192I254J0D01*
G01*
X172974Y170462D02*
G03*
X174244Y169192I1270J0D01*
G01*
X177292Y189992D02*
G03*
X173990Y186690I0J-3302D01*
G01*
X219202Y185674D02*
G03*
X214884Y189992I-4318J0D01*
G01*
X219202Y143256D02*
G03*
X223505Y138953I4303J0D01*
G01*
X180086Y260350D02*
G03*
X185166Y255270I5080J0D01*
G01*
X115062Y303530D02*
G03*
X114675Y302194I2153J-1348D01*
G01*
X126492Y305054D02*
G03*
X119674Y298236I0J-6818D01*
G01*
X180086Y298450D02*
G03*
X173482Y305054I-6604J0D01*
G01*
X129675Y205351D02*
G03*
X133604Y201422I3929J0D01*
G01*
X148336Y223774D02*
G03*
X148844Y224282I0J508D01*
G01*
X128524Y283972D02*
G03*
X124714Y280162I0J-3810D01*
G01*
X145542Y252730D02*
G03*
X150114Y257302I0J4572D01*
G01*
X54356Y78740D02*
X213360D01*
X219964Y85344D02*
Y106426D01*
X45974Y87122D02*
Y221742D01*
X52832Y228600D02*
X65946D01*
X73246Y209804D02*
X116586D01*
X138938D02*
X154432D01*
X119674Y212892D02*
Y223774D01*
X90772D02*
X109674D01*
X224282Y110744D02*
X239684D01*
Y110693D02*
Y110744D01*
X93980Y90932D02*
X148844D01*
X170180D01*
X174244Y94996D02*
Y109192D01*
X110998Y144523D02*
Y176088D01*
X93472Y147066D02*
X108455D01*
X88392Y96520D02*
Y141986D01*
X67056Y169766D02*
X84718D01*
X110998Y196088D02*
X111252Y196342D01*
X88646Y197146D02*
X109940D01*
X111252Y196342D02*
Y201422D01*
X164338Y230632D02*
X274663D01*
X160020Y234950D02*
Y261620D01*
X149937Y264922D02*
X150114D01*
X149937Y264978D02*
X156662D01*
X174244Y236982D02*
X263652D01*
X169418Y241808D02*
Y269240D01*
X133604Y273812D02*
X164846D01*
X129675Y252730D02*
Y269883D01*
X163068Y196850D02*
X231902D01*
X158750Y201168D02*
Y205486D01*
X236688Y158953D02*
Y192064D01*
X124673Y188763D02*
Y223774D01*
X173990Y169446D02*
Y186690D01*
X239684Y110693D02*
X264628D01*
X172974Y170462D02*
Y179832D01*
X177292Y189992D02*
X214884D01*
X219202Y143256D02*
Y185674D01*
X223505Y138953D02*
X236688D01*
X264628Y110693D02*
Y138953D01*
X185166Y255270D02*
X198788D01*
X258118Y42273D02*
Y60053D01*
X114675Y252730D02*
Y302194D01*
X115062Y303530D02*
X115062Y303530D01*
X181864Y215646D02*
X199461D01*
X119674Y252730D02*
Y298236D01*
X126492Y305054D02*
X173482D01*
X180086Y260350D02*
Y298450D01*
X133604Y201422D02*
X137414D01*
X129675Y205351D02*
Y223774D01*
X134674D02*
X148336D01*
X131064Y182372D02*
X170434D01*
X124714Y252730D02*
Y280162D01*
X128524Y283972D02*
X150114D01*
X134674Y252730D02*
X145542D01*
X124673D02*
X124714D01*
X149937Y264922D02*
Y264978D01*
X150114Y257302D02*
Y264922D01*
X258118Y42273D02*
X258278D01*
D17*
X394648Y90533D02*
D03*
X365748D02*
D03*
D18*
X275171Y255270D02*
D03*
X254165D02*
D03*
X254838Y215646D02*
D03*
X275844D02*
D03*
D19*
X389762Y263209D02*
D03*
X110998Y144523D02*
D03*
D20*
X389762Y295207D02*
D03*
X110998Y112524D02*
D03*
D21*
X322338Y159113D02*
D03*
X389798D02*
D03*
D22*
X237958Y88967D02*
D03*
Y112419D02*
D03*
X88646Y173694D02*
D03*
Y197146D02*
D03*
D23*
X174244Y109192D02*
D03*
Y169192D02*
D03*
D24*
X67056Y203614D02*
D03*
Y169766D02*
D03*
D25*
X134674Y252730D02*
D03*
X129675D02*
D03*
X124673D02*
D03*
X119674D02*
D03*
X114675D02*
D03*
X109674D02*
D03*
Y223774D02*
D03*
X114675D02*
D03*
X119674D02*
D03*
X124673D02*
D03*
X129675D02*
D03*
X134674D02*
D03*
D26*
X122174Y238252D02*
D03*
D45*
X477012Y90533D02*
G03*
X487172Y100693I0J10160D01*
G01*
X321436Y236696D02*
G03*
X326930Y231202I5494J0D01*
G01*
X354202Y258202D02*
G03*
X346930Y250930I0J-7272D01*
G01*
X390718Y296164D02*
G03*
X389762Y295207I0J-957D01*
G01*
X450850Y287274D02*
G03*
X441960Y296164I-8890J0D01*
G01*
X450850Y225044D02*
G03*
X462432Y213462I11582J0D01*
G01*
X487172Y100693D02*
Y110693D01*
X394648Y90533D02*
X477012D01*
X321436Y236696D02*
Y265144D01*
X346930Y231202D02*
Y250930D01*
X354202Y258202D02*
X384755D01*
X390718Y296164D02*
X441960D01*
X450850Y225044D02*
Y287274D01*
X462432Y213462D02*
X487172D01*
X237958Y60053D02*
Y88967D01*
Y60053D02*
X238118D01*
D46*
X275171Y216319D02*
G03*
X275844Y215646I673J0D01*
G01*
D02*
G03*
X277368Y214122I1524J0D01*
G01*
X340614D02*
G03*
X346930Y220438I0J6316D01*
G01*
X275171Y231140D02*
Y255270D01*
Y216319D02*
Y231140D01*
X219461Y215646D02*
X254838D01*
X218788Y255270D02*
X254165D01*
X277368Y214122D02*
X340614D01*
X346930Y220438D02*
Y231202D01*
X384755Y258202D02*
X389762Y263209D01*
D47*
X354202Y258202D02*
D03*
Y290054D02*
D03*
D48*
X337704Y90533D02*
D03*
X305852D02*
D03*
D49*
X346930Y231202D02*
D03*
X326930D02*
D03*
X218788Y255270D02*
D03*
X198788D02*
D03*
X199461Y215646D02*
D03*
X219461D02*
D03*
X258118Y60053D02*
D03*
X238118D02*
D03*
X85946Y228600D02*
D03*
X65946D02*
D03*
D50*
X321436Y285144D02*
D03*
Y265144D02*
D03*
X264628Y110693D02*
D03*
Y90693D02*
D03*
Y158953D02*
D03*
Y138953D02*
D03*
X236688D02*
D03*
Y158953D02*
D03*
D51*
X110998Y196088D02*
D03*
Y176088D02*
D03*
D52*
X487172Y160782D02*
D03*
Y110693D02*
D03*
Y213462D02*
D03*
Y263550D02*
D03*
D53*
X116586Y209804D02*
D03*
X111252Y201422D02*
D03*
X322072Y248412D02*
D03*
X263652Y236982D02*
D03*
X138938Y209804D02*
D03*
X185166Y255270D02*
D03*
X115062Y303530D02*
D03*
X181864Y215646D02*
D03*
X137414Y201422D02*
D03*
X148844Y90932D02*
D03*
Y224282D02*
D03*
X150114Y283972D02*
D03*
X149937Y264978D02*
D03*
X258278Y42273D02*
D03*
D54*
X30000Y30000D02*
D03*
X510640D02*
D03*
Y330000D02*
D03*
X30000D02*
D03*
M02*
