G04*
G04 #@! TF.GenerationSoftware,Altium Limited,Altium Designer,24.2.2 (26)*
G04*
G04 Layer_Color=128*
%FSLAX44Y44*%
%MOMM*%
G71*
G04*
G04 #@! TF.SameCoordinates,967F0760-92D6-49E7-A335-9EBDF73BCE5C*
G04*
G04*
G04 #@! TF.FilePolarity,Positive*
G04*
G01*
G75*
%ADD58C,0.1270*%
D58*
X481172Y160782D02*
X493172D01*
X487172Y154782D02*
Y166782D01*
X481172Y110693D02*
X493172D01*
X487172Y104694D02*
Y116693D01*
X481172Y213462D02*
X493172D01*
X487172Y207462D02*
Y219461D01*
X481172Y263550D02*
X493172D01*
X487172Y257551D02*
Y269550D01*
X115086Y209804D02*
X118086D01*
X116586Y208304D02*
Y211304D01*
X109752Y201422D02*
X112752D01*
X111252Y199922D02*
Y202922D01*
X320572Y248412D02*
X323572D01*
X322072Y246912D02*
Y249912D01*
X262152Y236982D02*
X265152D01*
X263652Y235482D02*
Y238482D01*
X137438Y209804D02*
X140438D01*
X138938Y208304D02*
Y211304D01*
X183666Y255270D02*
X186666D01*
X185166Y253770D02*
Y256770D01*
X113562Y303530D02*
X116562D01*
X115062Y302030D02*
Y305030D01*
X180364Y215646D02*
X183364D01*
X181864Y214146D02*
Y217146D01*
X135914Y201422D02*
X138914D01*
X137414Y199922D02*
Y202922D01*
X147344Y90932D02*
X150344D01*
X148844Y89432D02*
Y92432D01*
X147344Y224282D02*
X150344D01*
X148844Y222782D02*
Y225782D01*
X148614Y283972D02*
X151614D01*
X150114Y282472D02*
Y285472D01*
X148437Y264978D02*
X151437D01*
X149937Y263478D02*
Y266478D01*
X256778Y42273D02*
X259778D01*
X258278Y40773D02*
Y43773D01*
X15000Y30000D02*
X45000D01*
X30000Y15000D02*
Y45000D01*
X495640Y30000D02*
X525640D01*
X510640Y15000D02*
Y45000D01*
X495640Y330000D02*
X525640D01*
X510640Y315000D02*
Y345000D01*
X15000Y330000D02*
X45000D01*
X30000Y315000D02*
Y345000D01*
M02*
